<svg width="3193" height="1904" viewBox="0 0 3193 1904" fill="none" xmlns="http://www.w3.org/2000/svg">
<path d="M1604.79 1468.5L414 781" stroke="#858585" stroke-width="4" stroke-dasharray="8 8"/>
<path d="M1603.88 1468.15L1248 140" stroke="#858585" stroke-width="4" stroke-dasharray="8 8"/>
<path d="M1604.5 1467.79L917 277" stroke="#858585" stroke-width="4" stroke-dasharray="8 8"/>
<path d="M1605 1468L633 496" stroke="#858585" stroke-width="4" stroke-dasharray="8 8"/>
<path d="M1605.15 1466.88L277 1111" stroke="#858585" stroke-width="4" stroke-dasharray="8 8"/>
<path d="M1605.15 1467L277 1822.88" stroke="#858585" stroke-width="4" stroke-dasharray="8 8"/>
<path d="M1605 1467H2980" stroke="#858585" stroke-width="4" stroke-dasharray="8 8"/>
<path d="M230 1467H1605" stroke="#858585" stroke-width="4" stroke-dasharray="8 8"/>
<path d="M1605 1467.27L2577.27 495" stroke="#858585" stroke-width="4" stroke-dasharray="8 8"/>
<path d="M1605 1467.5L2795.78 780" stroke="#858585" stroke-width="4" stroke-dasharray="8 8"/>
<path d="M1605 1468.15L1960.88 140" stroke="#858585" stroke-width="4" stroke-dasharray="8 8"/>
<path d="M1605 1466.88L2933.15 1111" stroke="#858585" stroke-width="4" stroke-dasharray="8 8"/>
<path d="M1605 1467L2933.15 1822.88" stroke="#ABABAB" stroke-width="4" stroke-dasharray="8 8"/>
<path d="M1605 1467.78L2292.5 277" stroke="#858585" stroke-width="4" stroke-dasharray="8 8"/>
<path d="M1604 1468L1604 93" stroke="#858585" stroke-width="4" stroke-dasharray="8 8"/>
<path d="M61.1666 1490.93V1494H37.5986V1491.55L51.5666 1477.87C53.3266 1476.14 54.5106 1474.66 55.1186 1473.41C55.7586 1472.13 56.0786 1470.85 56.0786 1469.57C56.0786 1467.58 55.3906 1466.05 54.0146 1464.96C52.6706 1463.84 50.7346 1463.28 48.2066 1463.28C44.2706 1463.28 41.2146 1464.53 39.0386 1467.02L36.5906 1464.91C37.9026 1463.38 39.5666 1462.19 41.5826 1461.36C43.6306 1460.53 45.9346 1460.11 48.4946 1460.11C51.9186 1460.11 54.6226 1460.93 56.6066 1462.56C58.6226 1464.16 59.6306 1466.37 59.6306 1469.18C59.6306 1470.91 59.2466 1472.58 58.4786 1474.18C57.7106 1475.78 56.2546 1477.62 54.1106 1479.7L42.6866 1490.93H61.1666ZM78.7083 1494.29C76.1163 1494.29 73.7963 1493.6 71.7483 1492.22C69.7323 1490.85 68.1483 1488.88 66.9963 1486.32C65.8763 1483.73 65.3163 1480.69 65.3163 1477.2C65.3163 1473.71 65.8763 1470.69 66.9963 1468.13C68.1483 1465.54 69.7323 1463.55 71.7483 1462.18C73.7963 1460.8 76.1163 1460.11 78.7083 1460.11C81.3003 1460.11 83.6043 1460.8 85.6203 1462.18C87.6683 1463.55 89.2683 1465.54 90.4203 1468.13C91.5723 1470.69 92.1483 1473.71 92.1483 1477.2C92.1483 1480.69 91.5723 1483.73 90.4203 1486.32C89.2683 1488.88 87.6683 1490.85 85.6203 1492.22C83.6043 1493.6 81.3003 1494.29 78.7083 1494.29ZM78.7083 1491.12C80.6603 1491.12 82.3723 1490.58 83.8443 1489.49C85.3483 1488.4 86.5163 1486.82 87.3483 1484.74C88.1803 1482.66 88.5963 1480.14 88.5963 1477.2C88.5963 1474.26 88.1803 1471.74 87.3483 1469.66C86.5163 1467.58 85.3483 1466 83.8443 1464.91C82.3723 1463.82 80.6603 1463.28 78.7083 1463.28C76.7563 1463.28 75.0283 1463.82 73.5243 1464.91C72.0523 1466 70.9003 1467.58 70.0683 1469.66C69.2363 1471.74 68.8203 1474.26 68.8203 1477.2C68.8203 1480.14 69.2363 1482.66 70.0683 1484.74C70.9003 1486.82 72.0523 1488.4 73.5243 1489.49C75.0283 1490.58 76.7563 1491.12 78.7083 1491.12ZM110.49 1494.29C107.898 1494.29 105.578 1493.6 103.53 1492.22C101.514 1490.85 99.9296 1488.88 98.7776 1486.32C97.6576 1483.73 97.0976 1480.69 97.0976 1477.2C97.0976 1473.71 97.6576 1470.69 98.7776 1468.13C99.9296 1465.54 101.514 1463.55 103.53 1462.18C105.578 1460.8 107.898 1460.11 110.49 1460.11C113.082 1460.11 115.386 1460.8 117.402 1462.18C119.45 1463.55 121.05 1465.54 122.202 1468.13C123.354 1470.69 123.93 1473.71 123.93 1477.2C123.93 1480.69 123.354 1483.73 122.202 1486.32C121.05 1488.88 119.45 1490.85 117.402 1492.22C115.386 1493.6 113.082 1494.29 110.49 1494.29ZM110.49 1491.12C112.442 1491.12 114.154 1490.58 115.626 1489.49C117.13 1488.4 118.298 1486.82 119.13 1484.74C119.962 1482.66 120.378 1480.14 120.378 1477.2C120.378 1474.26 119.962 1471.74 119.13 1469.66C118.298 1467.58 117.13 1466 115.626 1464.91C114.154 1463.82 112.442 1463.28 110.49 1463.28C108.538 1463.28 106.81 1463.82 105.306 1464.91C103.834 1466 102.682 1467.58 101.85 1469.66C101.018 1471.74 100.602 1474.26 100.602 1477.2C100.602 1480.14 101.018 1482.66 101.85 1484.74C102.682 1486.82 103.834 1488.4 105.306 1489.49C106.81 1490.58 108.538 1491.12 110.49 1491.12ZM152.216 1460.4V1462.85L138.152 1494H134.408L148.232 1463.47H130.952V1469.76H127.544V1460.4H152.216Z" fill="black"/>
<path d="M3064.61 1487.93V1491H3041.04V1488.55L3055.01 1474.87C3056.77 1473.14 3057.96 1471.66 3058.56 1470.41C3059.2 1469.13 3059.52 1467.85 3059.52 1466.57C3059.52 1464.58 3058.84 1463.05 3057.46 1461.96C3056.12 1460.84 3054.18 1460.28 3051.65 1460.28C3047.72 1460.28 3044.66 1461.53 3042.48 1464.02L3040.04 1461.91C3041.35 1460.38 3043.01 1459.19 3045.03 1458.36C3047.08 1457.53 3049.38 1457.11 3051.94 1457.11C3055.36 1457.11 3058.07 1457.93 3060.05 1459.56C3062.07 1461.16 3063.08 1463.37 3063.08 1466.18C3063.08 1467.91 3062.69 1469.58 3061.92 1471.18C3061.16 1472.78 3059.7 1474.62 3057.56 1476.7L3046.13 1487.93H3064.61ZM3082.15 1491.29C3079.56 1491.29 3077.24 1490.6 3075.19 1489.22C3073.18 1487.85 3071.59 1485.88 3070.44 1483.32C3069.32 1480.73 3068.76 1477.69 3068.76 1474.2C3068.76 1470.71 3069.32 1467.69 3070.44 1465.13C3071.59 1462.54 3073.18 1460.55 3075.19 1459.18C3077.24 1457.8 3079.56 1457.11 3082.15 1457.11C3084.75 1457.11 3087.05 1457.8 3089.07 1459.18C3091.11 1460.55 3092.71 1462.54 3093.87 1465.13C3095.02 1467.69 3095.59 1470.71 3095.59 1474.2C3095.59 1477.69 3095.02 1480.73 3093.87 1483.32C3092.71 1485.88 3091.11 1487.85 3089.07 1489.22C3087.05 1490.6 3084.75 1491.29 3082.15 1491.29ZM3082.15 1488.12C3084.11 1488.12 3085.82 1487.58 3087.29 1486.49C3088.79 1485.4 3089.96 1483.82 3090.79 1481.74C3091.63 1479.66 3092.04 1477.14 3092.04 1474.2C3092.04 1471.26 3091.63 1468.74 3090.79 1466.66C3089.96 1464.58 3088.79 1463 3087.29 1461.91C3085.82 1460.82 3084.11 1460.28 3082.15 1460.28C3080.2 1460.28 3078.47 1460.82 3076.97 1461.91C3075.5 1463 3074.35 1464.58 3073.51 1466.66C3072.68 1468.74 3072.27 1471.26 3072.27 1474.2C3072.27 1477.14 3072.68 1479.66 3073.51 1481.74C3074.35 1483.82 3075.5 1485.4 3076.97 1486.49C3078.47 1487.58 3080.2 1488.12 3082.15 1488.12ZM3123.39 1487.93V1491H3099.83V1488.55L3113.79 1474.87C3115.55 1473.14 3116.74 1471.66 3117.35 1470.41C3117.99 1469.13 3118.31 1467.85 3118.31 1466.57C3118.31 1464.58 3117.62 1463.05 3116.24 1461.96C3114.9 1460.84 3112.96 1460.28 3110.43 1460.28C3106.5 1460.28 3103.44 1461.53 3101.27 1464.02L3098.82 1461.91C3100.13 1460.38 3101.79 1459.19 3103.81 1458.36C3105.86 1457.53 3108.16 1457.11 3110.72 1457.11C3114.15 1457.11 3116.85 1457.93 3118.83 1459.56C3120.85 1461.16 3121.86 1463.37 3121.86 1466.18C3121.86 1467.91 3121.47 1469.58 3120.71 1471.18C3119.94 1472.78 3118.48 1474.62 3116.34 1476.7L3104.91 1487.93H3123.39ZM3140.93 1491.29C3138.34 1491.29 3136.02 1490.6 3133.97 1489.22C3131.96 1487.85 3130.37 1485.88 3129.22 1483.32C3128.1 1480.73 3127.54 1477.69 3127.54 1474.2C3127.54 1470.71 3128.1 1467.69 3129.22 1465.13C3130.37 1462.54 3131.96 1460.55 3133.97 1459.18C3136.02 1457.8 3138.34 1457.11 3140.93 1457.11C3143.53 1457.11 3145.83 1457.8 3147.85 1459.18C3149.89 1460.55 3151.49 1462.54 3152.65 1465.13C3153.8 1467.69 3154.37 1470.71 3154.37 1474.2C3154.37 1477.69 3153.8 1480.73 3152.65 1483.32C3151.49 1485.88 3149.89 1487.85 3147.85 1489.22C3145.83 1490.6 3143.53 1491.29 3140.93 1491.29ZM3140.93 1488.12C3142.89 1488.12 3144.6 1487.58 3146.07 1486.49C3147.57 1485.4 3148.74 1483.82 3149.57 1481.74C3150.41 1479.66 3150.82 1477.14 3150.82 1474.2C3150.82 1471.26 3150.41 1468.74 3149.57 1466.66C3148.74 1464.58 3147.57 1463 3146.07 1461.91C3144.6 1460.82 3142.89 1460.28 3140.93 1460.28C3138.98 1460.28 3137.25 1460.82 3135.75 1461.91C3134.28 1463 3133.13 1464.58 3132.29 1466.66C3131.46 1468.74 3131.05 1471.26 3131.05 1474.2C3131.05 1477.14 3131.46 1479.66 3132.29 1481.74C3133.13 1483.82 3134.28 1485.4 3135.75 1486.49C3137.25 1487.58 3138.98 1488.12 3140.93 1488.12Z" fill="black"/>
<path d="M3022.07 1111.93V1115H2998.5V1112.55L3012.47 1098.87C3014.23 1097.14 3015.42 1095.66 3016.02 1094.41C3016.66 1093.13 3016.98 1091.85 3016.98 1090.57C3016.98 1088.58 3016.3 1087.05 3014.92 1085.96C3013.58 1084.84 3011.64 1084.28 3009.11 1084.28C3005.18 1084.28 3002.12 1085.53 2999.94 1088.02L2997.5 1085.91C2998.81 1084.38 3000.47 1083.19 3002.49 1082.36C3004.54 1081.53 3006.84 1081.11 3009.4 1081.11C3012.82 1081.11 3015.53 1081.93 3017.51 1083.56C3019.53 1085.16 3020.54 1087.37 3020.54 1090.18C3020.54 1091.91 3020.15 1093.58 3019.38 1095.18C3018.62 1096.78 3017.16 1098.62 3015.02 1100.7L3003.59 1111.93H3022.07ZM3039.61 1115.29C3037.02 1115.29 3034.7 1114.6 3032.65 1113.22C3030.64 1111.85 3029.05 1109.88 3027.9 1107.32C3026.78 1104.73 3026.22 1101.69 3026.22 1098.2C3026.22 1094.71 3026.78 1091.69 3027.9 1089.13C3029.05 1086.54 3030.64 1084.55 3032.65 1083.18C3034.7 1081.8 3037.02 1081.11 3039.61 1081.11C3042.21 1081.11 3044.51 1081.8 3046.53 1083.18C3048.57 1084.55 3050.17 1086.54 3051.33 1089.13C3052.48 1091.69 3053.05 1094.71 3053.05 1098.2C3053.05 1101.69 3052.48 1104.73 3051.33 1107.32C3050.17 1109.88 3048.57 1111.85 3046.53 1113.22C3044.51 1114.6 3042.21 1115.29 3039.61 1115.29ZM3039.61 1112.12C3041.57 1112.12 3043.28 1111.58 3044.75 1110.49C3046.25 1109.4 3047.42 1107.82 3048.25 1105.74C3049.09 1103.66 3049.5 1101.14 3049.5 1098.2C3049.5 1095.26 3049.09 1092.74 3048.25 1090.66C3047.42 1088.58 3046.25 1087 3044.75 1085.91C3043.28 1084.82 3041.57 1084.28 3039.61 1084.28C3037.66 1084.28 3035.93 1084.82 3034.43 1085.91C3032.96 1087 3031.81 1088.58 3030.97 1090.66C3030.14 1092.74 3029.73 1095.26 3029.73 1098.2C3029.73 1101.14 3030.14 1103.66 3030.97 1105.74C3031.81 1107.82 3032.96 1109.4 3034.43 1110.49C3035.93 1111.58 3037.66 1112.12 3039.61 1112.12ZM3067.22 1081.4V1115H3063.77V1084.47H3055.85V1081.4H3067.22ZM3094.5 1097.38C3096.61 1098.09 3098.23 1099.14 3099.35 1100.55C3100.5 1101.96 3101.08 1103.66 3101.08 1105.64C3101.08 1107.59 3100.55 1109.3 3099.49 1110.78C3098.44 1112.22 3096.92 1113.34 3094.93 1114.14C3092.98 1114.9 3090.68 1115.29 3088.02 1115.29C3083.99 1115.29 3080.82 1114.42 3078.52 1112.7C3076.21 1110.97 3075.06 1108.62 3075.06 1105.64C3075.06 1103.62 3075.61 1101.93 3076.69 1100.55C3077.81 1099.14 3079.43 1098.09 3081.54 1097.38C3079.81 1096.71 3078.5 1095.75 3077.61 1094.5C3076.71 1093.22 3076.26 1091.72 3076.26 1089.99C3076.26 1087.27 3077.32 1085.11 3079.43 1083.51C3081.57 1081.91 3084.44 1081.11 3088.02 1081.11C3090.39 1081.11 3092.45 1081.48 3094.21 1082.22C3096.01 1082.92 3097.4 1083.94 3098.39 1085.29C3099.38 1086.63 3099.88 1088.2 3099.88 1089.99C3099.88 1091.72 3099.41 1093.22 3098.49 1094.5C3097.56 1095.75 3096.23 1096.71 3094.5 1097.38ZM3079.72 1090.09C3079.72 1091.94 3080.45 1093.42 3081.93 1094.5C3083.4 1095.59 3085.43 1096.14 3088.02 1096.14C3090.61 1096.14 3092.65 1095.59 3094.12 1094.5C3095.62 1093.42 3096.37 1091.96 3096.37 1090.14C3096.37 1088.25 3095.61 1086.76 3094.07 1085.67C3092.57 1084.58 3090.55 1084.04 3088.02 1084.04C3085.46 1084.04 3083.43 1084.58 3081.93 1085.67C3080.45 1086.76 3079.72 1088.23 3079.72 1090.09ZM3088.02 1112.36C3091 1112.36 3093.32 1111.75 3094.98 1110.54C3096.68 1109.32 3097.53 1107.67 3097.53 1105.59C3097.53 1103.51 3096.68 1101.88 3094.98 1100.7C3093.32 1099.48 3091 1098.87 3088.02 1098.87C3085.08 1098.87 3082.76 1099.48 3081.06 1100.7C3079.4 1101.88 3078.57 1103.51 3078.57 1105.59C3078.57 1107.7 3079.4 1109.37 3081.06 1110.58C3082.73 1111.77 3085.05 1112.36 3088.02 1112.36Z" fill="black"/>
<path d="M3015.74 1864.93V1868H2992.17V1865.55L3006.14 1851.87C3007.9 1850.14 3009.08 1848.66 3009.69 1847.41C3010.33 1846.13 3010.65 1844.85 3010.65 1843.57C3010.65 1841.58 3009.96 1840.05 3008.58 1838.96C3007.24 1837.84 3005.3 1837.28 3002.78 1837.28C2998.84 1837.28 2995.78 1838.53 2993.61 1841.02L2991.16 1838.91C2992.47 1837.38 2994.14 1836.19 2996.15 1835.36C2998.2 1834.53 3000.5 1834.11 3003.06 1834.11C3006.49 1834.11 3009.19 1834.93 3011.18 1836.56C3013.19 1838.16 3014.2 1840.37 3014.2 1843.18C3014.2 1844.91 3013.82 1846.58 3013.05 1848.18C3012.28 1849.78 3010.82 1851.62 3008.68 1853.7L2997.26 1864.93H3015.74ZM3033.28 1868.29C3030.69 1868.29 3028.37 1867.6 3026.32 1866.22C3024.3 1864.85 3022.72 1862.88 3021.57 1860.32C3020.45 1857.73 3019.89 1854.69 3019.89 1851.2C3019.89 1847.71 3020.45 1844.69 3021.57 1842.13C3022.72 1839.54 3024.3 1837.55 3026.32 1836.18C3028.37 1834.8 3030.69 1834.11 3033.28 1834.11C3035.87 1834.11 3038.17 1834.8 3040.19 1836.18C3042.24 1837.55 3043.84 1839.54 3044.99 1842.13C3046.14 1844.69 3046.72 1847.71 3046.72 1851.2C3046.72 1854.69 3046.14 1857.73 3044.99 1860.32C3043.84 1862.88 3042.24 1864.85 3040.19 1866.22C3038.17 1867.6 3035.87 1868.29 3033.28 1868.29ZM3033.28 1865.12C3035.23 1865.12 3036.94 1864.58 3038.41 1863.49C3039.92 1862.4 3041.09 1860.82 3041.92 1858.74C3042.75 1856.66 3043.17 1854.14 3043.17 1851.2C3043.17 1848.26 3042.75 1845.74 3041.92 1843.66C3041.09 1841.58 3039.92 1840 3038.41 1838.91C3036.94 1837.82 3035.23 1837.28 3033.28 1837.28C3031.33 1837.28 3029.6 1837.82 3028.09 1838.91C3026.62 1840 3025.47 1841.58 3024.64 1843.66C3023.81 1845.74 3023.39 1848.26 3023.39 1851.2C3023.39 1854.14 3023.81 1856.66 3024.64 1858.74C3025.47 1860.82 3026.62 1862.4 3028.09 1863.49C3029.6 1864.58 3031.33 1865.12 3033.28 1865.12ZM3074.52 1864.93V1868H3050.95V1865.55L3064.92 1851.87C3066.68 1850.14 3067.86 1848.66 3068.47 1847.41C3069.11 1846.13 3069.43 1844.85 3069.43 1843.57C3069.43 1841.58 3068.74 1840.05 3067.37 1838.96C3066.02 1837.84 3064.09 1837.28 3061.56 1837.28C3057.62 1837.28 3054.57 1838.53 3052.39 1841.02L3049.94 1838.91C3051.25 1837.38 3052.92 1836.19 3054.93 1835.36C3056.98 1834.53 3059.29 1834.11 3061.85 1834.11C3065.27 1834.11 3067.97 1834.93 3069.96 1836.56C3071.97 1838.16 3072.98 1840.37 3072.98 1843.18C3072.98 1844.91 3072.6 1846.58 3071.83 1848.18C3071.06 1849.78 3069.61 1851.62 3067.46 1853.7L3056.04 1864.93H3074.52ZM3088.17 1834.4V1868H3084.71V1837.47H3076.79V1834.4H3088.17Z" fill="black"/>
<path d="M125.307 1111.93V1115H101.739V1112.55L115.707 1098.87C117.467 1097.14 118.651 1095.66 119.259 1094.41C119.899 1093.13 120.219 1091.85 120.219 1090.57C120.219 1088.58 119.531 1087.05 118.155 1085.96C116.811 1084.84 114.875 1084.28 112.347 1084.28C108.411 1084.28 105.355 1085.53 103.179 1088.02L100.731 1085.91C102.043 1084.38 103.707 1083.19 105.723 1082.36C107.771 1081.53 110.075 1081.11 112.635 1081.11C116.059 1081.11 118.763 1081.93 120.747 1083.56C122.763 1085.16 123.771 1087.37 123.771 1090.18C123.771 1091.91 123.387 1093.58 122.619 1095.18C121.851 1096.78 120.395 1098.62 118.251 1100.7L106.827 1111.93H125.307ZM142.849 1115.29C140.257 1115.29 137.937 1114.6 135.889 1113.22C133.873 1111.85 132.289 1109.88 131.137 1107.32C130.017 1104.73 129.457 1101.69 129.457 1098.2C129.457 1094.71 130.017 1091.69 131.137 1089.13C132.289 1086.54 133.873 1084.55 135.889 1083.18C137.937 1081.8 140.257 1081.11 142.849 1081.11C145.441 1081.11 147.745 1081.8 149.761 1083.18C151.809 1084.55 153.409 1086.54 154.561 1089.13C155.713 1091.69 156.289 1094.71 156.289 1098.2C156.289 1101.69 155.713 1104.73 154.561 1107.32C153.409 1109.88 151.809 1111.85 149.761 1113.22C147.745 1114.6 145.441 1115.29 142.849 1115.29ZM142.849 1112.12C144.801 1112.12 146.513 1111.58 147.985 1110.49C149.489 1109.4 150.657 1107.82 151.489 1105.74C152.321 1103.66 152.737 1101.14 152.737 1098.2C152.737 1095.26 152.321 1092.74 151.489 1090.66C150.657 1088.58 149.489 1087 147.985 1085.91C146.513 1084.82 144.801 1084.28 142.849 1084.28C140.897 1084.28 139.169 1084.82 137.665 1085.91C136.193 1087 135.041 1088.58 134.209 1090.66C133.377 1092.74 132.961 1095.26 132.961 1098.2C132.961 1101.14 133.377 1103.66 134.209 1105.74C135.041 1107.82 136.193 1109.4 137.665 1110.49C139.169 1111.58 140.897 1112.12 142.849 1112.12ZM174.63 1115.29C172.038 1115.29 169.718 1114.6 167.67 1113.22C165.654 1111.85 164.07 1109.88 162.918 1107.32C161.798 1104.73 161.238 1101.69 161.238 1098.2C161.238 1094.71 161.798 1091.69 162.918 1089.13C164.07 1086.54 165.654 1084.55 167.67 1083.18C169.718 1081.8 172.038 1081.11 174.63 1081.11C177.222 1081.11 179.526 1081.8 181.542 1083.18C183.59 1084.55 185.19 1086.54 186.342 1089.13C187.494 1091.69 188.07 1094.71 188.07 1098.2C188.07 1101.69 187.494 1104.73 186.342 1107.32C185.19 1109.88 183.59 1111.85 181.542 1113.22C179.526 1114.6 177.222 1115.29 174.63 1115.29ZM174.63 1112.12C176.582 1112.12 178.294 1111.58 179.766 1110.49C181.27 1109.4 182.438 1107.82 183.27 1105.74C184.102 1103.66 184.518 1101.14 184.518 1098.2C184.518 1095.26 184.102 1092.74 183.27 1090.66C182.438 1088.58 181.27 1087 179.766 1085.91C178.294 1084.82 176.582 1084.28 174.63 1084.28C172.678 1084.28 170.95 1084.82 169.446 1085.91C167.974 1087 166.822 1088.58 165.99 1090.66C165.158 1092.74 164.742 1095.26 164.742 1098.2C164.742 1101.14 165.158 1103.66 165.99 1105.74C166.822 1107.82 167.974 1109.4 169.446 1110.49C170.95 1111.58 172.678 1112.12 174.63 1112.12ZM212.267 1097.38C214.379 1098.09 215.995 1099.14 217.115 1100.55C218.267 1101.96 218.843 1103.66 218.843 1105.64C218.843 1107.59 218.315 1109.3 217.259 1110.78C216.203 1112.22 214.683 1113.34 212.699 1114.14C210.747 1114.9 208.443 1115.29 205.787 1115.29C201.755 1115.29 198.587 1114.42 196.283 1112.7C193.979 1110.97 192.827 1108.62 192.827 1105.64C192.827 1103.62 193.371 1101.93 194.459 1100.55C195.579 1099.14 197.195 1098.09 199.307 1097.38C197.579 1096.71 196.267 1095.75 195.371 1094.5C194.475 1093.22 194.027 1091.72 194.027 1089.99C194.027 1087.27 195.083 1085.11 197.195 1083.51C199.339 1081.91 202.203 1081.11 205.787 1081.11C208.155 1081.11 210.219 1081.48 211.979 1082.22C213.771 1082.92 215.163 1083.94 216.155 1085.29C217.147 1086.63 217.643 1088.2 217.643 1089.99C217.643 1091.72 217.179 1093.22 216.251 1094.5C215.323 1095.75 213.995 1096.71 212.267 1097.38ZM197.483 1090.09C197.483 1091.94 198.219 1093.42 199.691 1094.5C201.163 1095.59 203.195 1096.14 205.787 1096.14C208.379 1096.14 210.411 1095.59 211.883 1094.5C213.387 1093.42 214.139 1091.96 214.139 1090.14C214.139 1088.25 213.371 1086.76 211.835 1085.67C210.331 1084.58 208.315 1084.04 205.787 1084.04C203.227 1084.04 201.195 1084.58 199.691 1085.67C198.219 1086.76 197.483 1088.23 197.483 1090.09ZM205.787 1112.36C208.763 1112.36 211.083 1111.75 212.747 1110.54C214.443 1109.32 215.291 1107.67 215.291 1105.59C215.291 1103.51 214.443 1101.88 212.747 1100.7C211.083 1099.48 208.763 1098.87 205.787 1098.87C202.843 1098.87 200.523 1099.48 198.827 1100.7C197.163 1101.88 196.331 1103.51 196.331 1105.59C196.331 1107.7 197.163 1109.37 198.827 1110.58C200.491 1111.77 202.811 1112.36 205.787 1112.36Z" fill="black"/>
<path d="M119.487 1853.93V1857H95.9189V1854.55L109.887 1840.87C111.647 1839.14 112.831 1837.66 113.439 1836.41C114.079 1835.13 114.399 1833.85 114.399 1832.57C114.399 1830.58 113.711 1829.05 112.335 1827.96C110.991 1826.84 109.055 1826.28 106.527 1826.28C102.591 1826.28 99.5349 1827.53 97.3589 1830.02L94.9109 1827.91C96.2229 1826.38 97.8869 1825.19 99.9029 1824.36C101.951 1823.53 104.255 1823.11 106.815 1823.11C110.239 1823.11 112.943 1823.93 114.927 1825.56C116.943 1827.16 117.951 1829.37 117.951 1832.18C117.951 1833.91 117.567 1835.58 116.799 1837.18C116.031 1838.78 114.575 1840.62 112.431 1842.7L101.007 1853.93H119.487ZM137.029 1857.29C134.437 1857.29 132.117 1856.6 130.069 1855.22C128.053 1853.85 126.469 1851.88 125.317 1849.32C124.197 1846.73 123.637 1843.69 123.637 1840.2C123.637 1836.71 124.197 1833.69 125.317 1831.13C126.469 1828.54 128.053 1826.55 130.069 1825.18C132.117 1823.8 134.437 1823.11 137.029 1823.11C139.621 1823.11 141.925 1823.8 143.941 1825.18C145.989 1826.55 147.589 1828.54 148.741 1831.13C149.893 1833.69 150.469 1836.71 150.469 1840.2C150.469 1843.69 149.893 1846.73 148.741 1849.32C147.589 1851.88 145.989 1853.85 143.941 1855.22C141.925 1856.6 139.621 1857.29 137.029 1857.29ZM137.029 1854.12C138.981 1854.12 140.693 1853.58 142.165 1852.49C143.669 1851.4 144.837 1849.82 145.669 1847.74C146.501 1845.66 146.917 1843.14 146.917 1840.2C146.917 1837.26 146.501 1834.74 145.669 1832.66C144.837 1830.58 143.669 1829 142.165 1827.91C140.693 1826.82 138.981 1826.28 137.029 1826.28C135.077 1826.28 133.349 1826.82 131.845 1827.91C130.373 1829 129.221 1830.58 128.389 1832.66C127.557 1834.74 127.141 1837.26 127.141 1840.2C127.141 1843.14 127.557 1845.66 128.389 1847.74C129.221 1849.82 130.373 1851.4 131.845 1852.49C133.349 1853.58 135.077 1854.12 137.029 1854.12ZM168.81 1857.29C166.218 1857.29 163.898 1856.6 161.85 1855.22C159.834 1853.85 158.25 1851.88 157.098 1849.32C155.978 1846.73 155.418 1843.69 155.418 1840.2C155.418 1836.71 155.978 1833.69 157.098 1831.13C158.25 1828.54 159.834 1826.55 161.85 1825.18C163.898 1823.8 166.218 1823.11 168.81 1823.11C171.402 1823.11 173.706 1823.8 175.722 1825.18C177.77 1826.55 179.37 1828.54 180.522 1831.13C181.674 1833.69 182.25 1836.71 182.25 1840.2C182.25 1843.69 181.674 1846.73 180.522 1849.32C179.37 1851.88 177.77 1853.85 175.722 1855.22C173.706 1856.6 171.402 1857.29 168.81 1857.29ZM168.81 1854.12C170.762 1854.12 172.474 1853.58 173.946 1852.49C175.45 1851.4 176.618 1849.82 177.45 1847.74C178.282 1845.66 178.698 1843.14 178.698 1840.2C178.698 1837.26 178.282 1834.74 177.45 1832.66C176.618 1830.58 175.45 1829 173.946 1827.91C172.474 1826.82 170.762 1826.28 168.81 1826.28C166.858 1826.28 165.13 1826.82 163.626 1827.91C162.154 1829 161.002 1830.58 160.17 1832.66C159.338 1834.74 158.922 1837.26 158.922 1840.2C158.922 1843.14 159.338 1845.66 160.17 1847.74C161.002 1849.82 162.154 1851.4 163.626 1852.49C165.13 1853.58 166.858 1854.12 168.81 1854.12ZM201.119 1836.89C203.327 1836.89 205.279 1837.3 206.975 1838.14C208.703 1838.97 210.047 1840.15 211.007 1841.69C211.967 1843.19 212.447 1844.95 212.447 1846.97C212.447 1849.02 211.951 1850.82 210.959 1852.39C209.967 1853.96 208.591 1855.18 206.831 1856.04C205.103 1856.87 203.151 1857.29 200.975 1857.29C196.527 1857.29 193.119 1855.83 190.751 1852.92C188.383 1849.98 187.199 1845.83 187.199 1840.49C187.199 1836.74 187.839 1833.58 189.119 1830.98C190.399 1828.39 192.191 1826.44 194.495 1825.13C196.799 1823.78 199.487 1823.11 202.559 1823.11C205.887 1823.11 208.543 1823.72 210.527 1824.94L209.135 1827.72C207.535 1826.66 205.359 1826.14 202.607 1826.14C198.895 1826.14 195.983 1827.32 193.871 1829.69C191.759 1832.02 190.703 1835.43 190.703 1839.91C190.703 1840.71 190.751 1841.62 190.847 1842.65C191.679 1840.82 193.007 1839.42 194.831 1838.42C196.655 1837.4 198.751 1836.89 201.119 1836.89ZM200.831 1854.36C203.263 1854.36 205.231 1853.7 206.735 1852.39C208.271 1851.05 209.039 1849.27 209.039 1847.06C209.039 1844.86 208.271 1843.1 206.735 1841.78C205.231 1840.47 203.183 1839.82 200.591 1839.82C198.895 1839.82 197.391 1840.14 196.079 1840.78C194.799 1841.42 193.791 1842.3 193.055 1843.42C192.319 1844.54 191.951 1845.78 191.951 1847.16C191.951 1848.44 192.287 1849.62 192.959 1850.71C193.663 1851.8 194.687 1852.68 196.031 1853.35C197.375 1854.02 198.975 1854.36 200.831 1854.36Z" fill="black"/>
<path d="M2881.24 766.928V770H2857.68V767.552L2871.64 753.872C2873.4 752.144 2874.59 750.656 2875.2 749.408C2875.84 748.128 2876.16 746.848 2876.16 745.568C2876.16 743.584 2875.47 742.048 2874.09 740.96C2872.75 739.84 2870.81 739.28 2868.28 739.28C2864.35 739.28 2861.29 740.528 2859.12 743.024L2856.67 740.912C2857.98 739.376 2859.64 738.192 2861.66 737.36C2863.71 736.528 2866.01 736.112 2868.57 736.112C2872 736.112 2874.7 736.928 2876.68 738.56C2878.7 740.16 2879.71 742.368 2879.71 745.184C2879.71 746.912 2879.32 748.576 2878.56 750.176C2877.79 751.776 2876.33 753.616 2874.19 755.696L2862.76 766.928H2881.24ZM2898.79 770.288C2896.19 770.288 2893.87 769.6 2891.83 768.224C2889.81 766.848 2888.23 764.88 2887.07 762.32C2885.95 759.728 2885.39 756.688 2885.39 753.2C2885.39 749.712 2885.95 746.688 2887.07 744.128C2888.23 741.536 2889.81 739.552 2891.83 738.176C2893.87 736.8 2896.19 736.112 2898.79 736.112C2901.38 736.112 2903.68 736.8 2905.7 738.176C2907.75 739.552 2909.35 741.536 2910.5 744.128C2911.65 746.688 2912.23 749.712 2912.23 753.2C2912.23 756.688 2911.65 759.728 2910.5 762.32C2909.35 764.88 2907.75 766.848 2905.7 768.224C2903.68 769.6 2901.38 770.288 2898.79 770.288ZM2898.79 767.12C2900.74 767.12 2902.45 766.576 2903.92 765.488C2905.43 764.4 2906.59 762.816 2907.43 760.736C2908.26 758.656 2908.67 756.144 2908.67 753.2C2908.67 750.256 2908.26 747.744 2907.43 745.664C2906.59 743.584 2905.43 742 2903.92 740.912C2902.45 739.824 2900.74 739.28 2898.79 739.28C2896.83 739.28 2895.11 739.824 2893.6 740.912C2892.13 742 2890.98 743.584 2890.15 745.664C2889.31 747.744 2888.9 750.256 2888.9 753.2C2888.9 756.144 2889.31 758.656 2890.15 760.736C2890.98 762.816 2892.13 764.4 2893.6 765.488C2895.11 766.576 2896.83 767.12 2898.79 767.12ZM2926.39 736.4V770H2922.94V739.472H2915.02V736.4H2926.39ZM2958.14 736.4V738.848L2944.07 770H2940.33L2954.15 739.472H2936.87V745.76H2933.47V736.4H2958.14Z" fill="black"/>
<path d="M268.487 766.928V770H244.919V767.552L258.887 753.872C260.647 752.144 261.831 750.656 262.439 749.408C263.079 748.128 263.399 746.848 263.399 745.568C263.399 743.584 262.711 742.048 261.335 740.96C259.991 739.84 258.055 739.28 255.527 739.28C251.591 739.28 248.535 740.528 246.359 743.024L243.911 740.912C245.223 739.376 246.887 738.192 248.903 737.36C250.951 736.528 253.255 736.112 255.815 736.112C259.239 736.112 261.943 736.928 263.927 738.56C265.943 740.16 266.951 742.368 266.951 745.184C266.951 746.912 266.567 748.576 265.799 750.176C265.031 751.776 263.575 753.616 261.431 755.696L250.007 766.928H268.487ZM286.029 770.288C283.437 770.288 281.117 769.6 279.069 768.224C277.053 766.848 275.469 764.88 274.317 762.32C273.197 759.728 272.637 756.688 272.637 753.2C272.637 749.712 273.197 746.688 274.317 744.128C275.469 741.536 277.053 739.552 279.069 738.176C281.117 736.8 283.437 736.112 286.029 736.112C288.621 736.112 290.925 736.8 292.941 738.176C294.989 739.552 296.589 741.536 297.741 744.128C298.893 746.688 299.469 749.712 299.469 753.2C299.469 756.688 298.893 759.728 297.741 762.32C296.589 764.88 294.989 766.848 292.941 768.224C290.925 769.6 288.621 770.288 286.029 770.288ZM286.029 767.12C287.981 767.12 289.693 766.576 291.165 765.488C292.669 764.4 293.837 762.816 294.669 760.736C295.501 758.656 295.917 756.144 295.917 753.2C295.917 750.256 295.501 747.744 294.669 745.664C293.837 743.584 292.669 742 291.165 740.912C289.693 739.824 287.981 739.28 286.029 739.28C284.077 739.28 282.349 739.824 280.845 740.912C279.373 742 278.221 743.584 277.389 745.664C276.557 747.744 276.141 750.256 276.141 753.2C276.141 756.144 276.557 758.656 277.389 760.736C278.221 762.816 279.373 764.4 280.845 765.488C282.349 766.576 284.077 767.12 286.029 767.12ZM317.81 770.288C315.218 770.288 312.898 769.6 310.85 768.224C308.834 766.848 307.25 764.88 306.098 762.32C304.978 759.728 304.418 756.688 304.418 753.2C304.418 749.712 304.978 746.688 306.098 744.128C307.25 741.536 308.834 739.552 310.85 738.176C312.898 736.8 315.218 736.112 317.81 736.112C320.402 736.112 322.706 736.8 324.722 738.176C326.77 739.552 328.37 741.536 329.522 744.128C330.674 746.688 331.25 749.712 331.25 753.2C331.25 756.688 330.674 759.728 329.522 762.32C328.37 764.88 326.77 766.848 324.722 768.224C322.706 769.6 320.402 770.288 317.81 770.288ZM317.81 767.12C319.762 767.12 321.474 766.576 322.946 765.488C324.45 764.4 325.618 762.816 326.45 760.736C327.282 758.656 327.698 756.144 327.698 753.2C327.698 750.256 327.282 747.744 326.45 745.664C325.618 743.584 324.45 742 322.946 740.912C321.474 739.824 319.762 739.28 317.81 739.28C315.858 739.28 314.13 739.824 312.626 740.912C311.154 742 310.002 743.584 309.17 745.664C308.338 747.744 307.922 750.256 307.922 753.2C307.922 756.144 308.338 758.656 309.17 760.736C310.002 762.816 311.154 764.4 312.626 765.488C314.13 766.576 315.858 767.12 317.81 767.12ZM346.663 736.112C351.111 736.112 354.519 737.584 356.887 740.528C359.255 743.44 360.439 747.568 360.439 752.912C360.439 756.656 359.799 759.824 358.519 762.416C357.239 765.008 355.447 766.976 353.143 768.32C350.839 769.632 348.151 770.288 345.079 770.288C341.751 770.288 339.095 769.68 337.111 768.464L338.503 765.68C340.103 766.736 342.279 767.264 345.031 767.264C348.743 767.264 351.655 766.096 353.767 763.76C355.879 761.392 356.935 757.968 356.935 753.488C356.935 752.656 356.887 751.744 356.791 750.752C355.959 752.576 354.631 754 352.807 755.024C350.983 756.016 348.887 756.512 346.519 756.512C344.311 756.512 342.343 756.096 340.615 755.264C338.919 754.432 337.591 753.264 336.631 751.76C335.671 750.224 335.191 748.448 335.191 746.432C335.191 744.384 335.687 742.576 336.679 741.008C337.671 739.44 339.031 738.24 340.759 737.408C342.519 736.544 344.487 736.112 346.663 736.112ZM347.047 753.584C348.743 753.584 350.231 753.264 351.511 752.624C352.823 751.984 353.847 751.104 354.583 749.984C355.319 748.864 355.687 747.616 355.687 746.24C355.687 744.96 355.335 743.776 354.631 742.688C353.959 741.6 352.951 740.72 351.607 740.048C350.263 739.376 348.663 739.04 346.807 739.04C344.375 739.04 342.391 739.712 340.855 741.056C339.351 742.368 338.599 744.128 338.599 746.336C338.599 748.544 339.351 750.304 340.855 751.616C342.391 752.928 344.455 753.584 347.047 753.584Z" fill="black"/>
<path d="M2643.75 471.928V475H2620.18V472.552L2634.15 458.872C2635.91 457.144 2637.1 455.656 2637.7 454.408C2638.34 453.128 2638.66 451.848 2638.66 450.568C2638.66 448.584 2637.98 447.048 2636.6 445.96C2635.26 444.84 2633.32 444.28 2630.79 444.28C2626.86 444.28 2623.8 445.528 2621.62 448.024L2619.18 445.912C2620.49 444.376 2622.15 443.192 2624.17 442.36C2626.22 441.528 2628.52 441.112 2631.08 441.112C2634.5 441.112 2637.21 441.928 2639.19 443.56C2641.21 445.16 2642.22 447.368 2642.22 450.184C2642.22 451.912 2641.83 453.576 2641.06 455.176C2640.3 456.776 2638.84 458.616 2636.7 460.696L2625.27 471.928H2643.75ZM2661.29 475.288C2658.7 475.288 2656.38 474.6 2654.33 473.224C2652.32 471.848 2650.73 469.88 2649.58 467.32C2648.46 464.728 2647.9 461.688 2647.9 458.2C2647.9 454.712 2648.46 451.688 2649.58 449.128C2650.73 446.536 2652.32 444.552 2654.33 443.176C2656.38 441.8 2658.7 441.112 2661.29 441.112C2663.89 441.112 2666.19 441.8 2668.21 443.176C2670.25 444.552 2671.85 446.536 2673.01 449.128C2674.16 451.688 2674.73 454.712 2674.73 458.2C2674.73 461.688 2674.16 464.728 2673.01 467.32C2671.85 469.88 2670.25 471.848 2668.21 473.224C2666.19 474.6 2663.89 475.288 2661.29 475.288ZM2661.29 472.12C2663.25 472.12 2664.96 471.576 2666.43 470.488C2667.93 469.4 2669.1 467.816 2669.93 465.736C2670.77 463.656 2671.18 461.144 2671.18 458.2C2671.18 455.256 2670.77 452.744 2669.93 450.664C2669.1 448.584 2667.93 447 2666.43 445.912C2664.96 444.824 2663.25 444.28 2661.29 444.28C2659.34 444.28 2657.61 444.824 2656.11 445.912C2654.64 447 2653.49 448.584 2652.65 450.664C2651.82 452.744 2651.41 455.256 2651.41 458.2C2651.41 461.144 2651.82 463.656 2652.65 465.736C2653.49 467.816 2654.64 469.4 2656.11 470.488C2657.61 471.576 2659.34 472.12 2661.29 472.12ZM2688.9 441.4V475H2685.45V444.472H2677.53V441.4H2688.9ZM2710.85 454.888C2713.06 454.888 2715.01 455.304 2716.71 456.136C2718.44 456.968 2719.78 458.152 2720.74 459.688C2721.7 461.192 2722.18 462.952 2722.18 464.968C2722.18 467.016 2721.69 468.824 2720.69 470.392C2719.7 471.96 2718.33 473.176 2716.57 474.04C2714.84 474.872 2712.89 475.288 2710.71 475.288C2706.26 475.288 2702.85 473.832 2700.49 470.92C2698.12 467.976 2696.93 463.832 2696.93 458.488C2696.93 454.744 2697.57 451.576 2698.85 448.984C2700.13 446.392 2701.93 444.44 2704.23 443.128C2706.53 441.784 2709.22 441.112 2712.29 441.112C2715.62 441.112 2718.28 441.72 2720.26 442.936L2718.87 445.72C2717.27 444.664 2715.09 444.136 2712.34 444.136C2708.63 444.136 2705.72 445.32 2703.61 447.688C2701.49 450.024 2700.44 453.432 2700.44 457.912C2700.44 458.712 2700.49 459.624 2700.58 460.648C2701.41 458.824 2702.74 457.416 2704.57 456.424C2706.39 455.4 2708.49 454.888 2710.85 454.888ZM2710.57 472.36C2713 472.36 2714.97 471.704 2716.47 470.392C2718.01 469.048 2718.77 467.272 2718.77 465.064C2718.77 462.856 2718.01 461.096 2716.47 459.784C2714.97 458.472 2712.92 457.816 2710.33 457.816C2708.63 457.816 2707.13 458.136 2705.81 458.776C2704.53 459.416 2703.53 460.296 2702.79 461.416C2702.05 462.536 2701.69 463.784 2701.69 465.16C2701.69 466.44 2702.02 467.624 2702.69 468.712C2703.4 469.8 2704.42 470.68 2705.77 471.352C2707.11 472.024 2708.71 472.36 2710.57 472.36Z" fill="black"/>
<path d="M511.487 471.928V475H487.919V472.552L501.887 458.872C503.647 457.144 504.831 455.656 505.439 454.408C506.079 453.128 506.399 451.848 506.399 450.568C506.399 448.584 505.711 447.048 504.335 445.96C502.991 444.84 501.055 444.28 498.527 444.28C494.591 444.28 491.535 445.528 489.359 448.024L486.911 445.912C488.223 444.376 489.887 443.192 491.903 442.36C493.951 441.528 496.255 441.112 498.815 441.112C502.239 441.112 504.943 441.928 506.927 443.56C508.943 445.16 509.951 447.368 509.951 450.184C509.951 451.912 509.567 453.576 508.799 455.176C508.031 456.776 506.575 458.616 504.431 460.696L493.007 471.928H511.487ZM529.029 475.288C526.437 475.288 524.117 474.6 522.069 473.224C520.053 471.848 518.469 469.88 517.317 467.32C516.197 464.728 515.637 461.688 515.637 458.2C515.637 454.712 516.197 451.688 517.317 449.128C518.469 446.536 520.053 444.552 522.069 443.176C524.117 441.8 526.437 441.112 529.029 441.112C531.621 441.112 533.925 441.8 535.941 443.176C537.989 444.552 539.589 446.536 540.741 449.128C541.893 451.688 542.469 454.712 542.469 458.2C542.469 461.688 541.893 464.728 540.741 467.32C539.589 469.88 537.989 471.848 535.941 473.224C533.925 474.6 531.621 475.288 529.029 475.288ZM529.029 472.12C530.981 472.12 532.693 471.576 534.165 470.488C535.669 469.4 536.837 467.816 537.669 465.736C538.501 463.656 538.917 461.144 538.917 458.2C538.917 455.256 538.501 452.744 537.669 450.664C536.837 448.584 535.669 447 534.165 445.912C532.693 444.824 530.981 444.28 529.029 444.28C527.077 444.28 525.349 444.824 523.845 445.912C522.373 447 521.221 448.584 520.389 450.664C519.557 452.744 519.141 455.256 519.141 458.2C519.141 461.144 519.557 463.656 520.389 465.736C521.221 467.816 522.373 469.4 523.845 470.488C525.349 471.576 527.077 472.12 529.029 472.12ZM556.636 441.4V475H553.18V444.472H545.26V441.4H556.636ZM578.06 475.288C575.468 475.288 573.148 474.6 571.1 473.224C569.084 471.848 567.5 469.88 566.348 467.32C565.228 464.728 564.668 461.688 564.668 458.2C564.668 454.712 565.228 451.688 566.348 449.128C567.5 446.536 569.084 444.552 571.1 443.176C573.148 441.8 575.468 441.112 578.06 441.112C580.652 441.112 582.956 441.8 584.972 443.176C587.02 444.552 588.62 446.536 589.772 449.128C590.924 451.688 591.5 454.712 591.5 458.2C591.5 461.688 590.924 464.728 589.772 467.32C588.62 469.88 587.02 471.848 584.972 473.224C582.956 474.6 580.652 475.288 578.06 475.288ZM578.06 472.12C580.012 472.12 581.724 471.576 583.196 470.488C584.7 469.4 585.868 467.816 586.7 465.736C587.532 463.656 587.948 461.144 587.948 458.2C587.948 455.256 587.532 452.744 586.7 450.664C585.868 448.584 584.7 447 583.196 445.912C581.724 444.824 580.012 444.28 578.06 444.28C576.108 444.28 574.38 444.824 572.876 445.912C571.404 447 570.252 448.584 569.42 450.664C568.588 452.744 568.172 455.256 568.172 458.2C568.172 461.144 568.588 463.656 569.42 465.736C570.252 467.816 571.404 469.4 572.876 470.488C574.38 471.576 576.108 472.12 578.06 472.12Z" fill="black"/>
<path d="M2345.78 242.928V246H2322.22V243.552L2336.18 229.872C2337.94 228.144 2339.13 226.656 2339.74 225.408C2340.38 224.128 2340.7 222.848 2340.7 221.568C2340.7 219.584 2340.01 218.048 2338.63 216.96C2337.29 215.84 2335.35 215.28 2332.82 215.28C2328.89 215.28 2325.83 216.528 2323.66 219.024L2321.21 216.912C2322.52 215.376 2324.18 214.192 2326.2 213.36C2328.25 212.528 2330.55 212.112 2333.11 212.112C2336.54 212.112 2339.24 212.928 2341.22 214.56C2343.24 216.16 2344.25 218.368 2344.25 221.184C2344.25 222.912 2343.86 224.576 2343.1 226.176C2342.33 227.776 2340.87 229.616 2338.73 231.696L2327.3 242.928H2345.78ZM2363.33 246.288C2360.73 246.288 2358.41 245.6 2356.37 244.224C2354.35 242.848 2352.77 240.88 2351.61 238.32C2350.49 235.728 2349.93 232.688 2349.93 229.2C2349.93 225.712 2350.49 222.688 2351.61 220.128C2352.77 217.536 2354.35 215.552 2356.37 214.176C2358.41 212.8 2360.73 212.112 2363.33 212.112C2365.92 212.112 2368.22 212.8 2370.24 214.176C2372.29 215.552 2373.89 217.536 2375.04 220.128C2376.19 222.688 2376.77 225.712 2376.77 229.2C2376.77 232.688 2376.19 235.728 2375.04 238.32C2373.89 240.88 2372.29 242.848 2370.24 244.224C2368.22 245.6 2365.92 246.288 2363.33 246.288ZM2363.33 243.12C2365.28 243.12 2366.99 242.576 2368.46 241.488C2369.97 240.4 2371.13 238.816 2371.97 236.736C2372.8 234.656 2373.21 232.144 2373.21 229.2C2373.21 226.256 2372.8 223.744 2371.97 221.664C2371.13 219.584 2369.97 218 2368.46 216.912C2366.99 215.824 2365.28 215.28 2363.33 215.28C2361.37 215.28 2359.65 215.824 2358.14 216.912C2356.67 218 2355.52 219.584 2354.69 221.664C2353.85 223.744 2353.44 226.256 2353.44 229.2C2353.44 232.144 2353.85 234.656 2354.69 236.736C2355.52 238.816 2356.67 240.4 2358.14 241.488C2359.65 242.576 2361.37 243.12 2363.33 243.12ZM2390.93 212.4V246H2387.48V215.472H2379.56V212.4H2390.93ZM2407.8 226.176C2412.66 226.176 2416.2 227.056 2418.4 228.816C2420.64 230.544 2421.76 232.976 2421.76 236.112C2421.76 238.064 2421.3 239.808 2420.37 241.344C2419.48 242.88 2418.12 244.096 2416.29 244.992C2414.47 245.856 2412.23 246.288 2409.57 246.288C2407.17 246.288 2404.88 245.904 2402.71 245.136C2400.56 244.336 2398.84 243.28 2397.52 241.968L2399.2 239.232C2400.32 240.384 2401.8 241.328 2403.62 242.064C2405.44 242.768 2407.41 243.12 2409.52 243.12C2412.31 243.12 2414.45 242.496 2415.96 241.248C2417.49 240 2418.26 238.336 2418.26 236.256C2418.26 233.952 2417.4 232.208 2415.67 231.024C2413.97 229.84 2411.09 229.248 2407.03 229.248H2399.88L2401.6 212.4H2419.99V215.472H2404.63L2403.48 226.176H2407.8Z" fill="black"/>
<path d="M817.706 242.928V246H794.138V243.552L808.106 229.872C809.866 228.144 811.05 226.656 811.658 225.408C812.298 224.128 812.618 222.848 812.618 221.568C812.618 219.584 811.93 218.048 810.554 216.96C809.21 215.84 807.274 215.28 804.746 215.28C800.81 215.28 797.754 216.528 795.578 219.024L793.13 216.912C794.442 215.376 796.106 214.192 798.122 213.36C800.17 212.528 802.474 212.112 805.034 212.112C808.458 212.112 811.162 212.928 813.146 214.56C815.162 216.16 816.17 218.368 816.17 221.184C816.17 222.912 815.786 224.576 815.018 226.176C814.25 227.776 812.794 229.616 810.65 231.696L799.226 242.928H817.706ZM835.247 246.288C832.655 246.288 830.335 245.6 828.287 244.224C826.271 242.848 824.687 240.88 823.535 238.32C822.415 235.728 821.855 232.688 821.855 229.2C821.855 225.712 822.415 222.688 823.535 220.128C824.687 217.536 826.271 215.552 828.287 214.176C830.335 212.8 832.655 212.112 835.247 212.112C837.839 212.112 840.143 212.8 842.159 214.176C844.207 215.552 845.807 217.536 846.959 220.128C848.111 222.688 848.687 225.712 848.687 229.2C848.687 232.688 848.111 235.728 846.959 238.32C845.807 240.88 844.207 242.848 842.159 244.224C840.143 245.6 837.839 246.288 835.247 246.288ZM835.247 243.12C837.199 243.12 838.911 242.576 840.383 241.488C841.887 240.4 843.055 238.816 843.887 236.736C844.719 234.656 845.135 232.144 845.135 229.2C845.135 226.256 844.719 223.744 843.887 221.664C843.055 219.584 841.887 218 840.383 216.912C838.911 215.824 837.199 215.28 835.247 215.28C833.295 215.28 831.567 215.824 830.063 216.912C828.591 218 827.439 219.584 826.607 221.664C825.775 223.744 825.359 226.256 825.359 229.2C825.359 232.144 825.775 234.656 826.607 236.736C827.439 238.816 828.591 240.4 830.063 241.488C831.567 242.576 833.295 243.12 835.247 243.12ZM862.855 212.4V246H859.399V215.472H851.479V212.4H862.855ZM880.199 212.4V246H876.743V215.472H868.823V212.4H880.199Z" fill="black"/>
<path d="M1991.01 101.928V105H1967.44V102.552L1981.41 88.872C1983.17 87.144 1984.35 85.656 1984.96 84.408C1985.6 83.128 1985.92 81.848 1985.92 80.568C1985.92 78.584 1985.23 77.048 1983.86 75.96C1982.51 74.84 1980.58 74.28 1978.05 74.28C1974.11 74.28 1971.06 75.528 1968.88 78.024L1966.43 75.912C1967.75 74.376 1969.41 73.192 1971.43 72.36C1973.47 71.528 1975.78 71.112 1978.34 71.112C1981.76 71.112 1984.47 71.928 1986.45 73.56C1988.47 75.16 1989.47 77.368 1989.47 80.184C1989.47 81.912 1989.09 83.576 1988.32 85.176C1987.55 86.776 1986.1 88.616 1983.95 90.696L1972.53 101.928H1991.01ZM2008.55 105.288C2005.96 105.288 2003.64 104.6 2001.59 103.224C1999.58 101.848 1997.99 99.88 1996.84 97.32C1995.72 94.728 1995.16 91.688 1995.16 88.2C1995.16 84.712 1995.72 81.688 1996.84 79.128C1997.99 76.536 1999.58 74.552 2001.59 73.176C2003.64 71.8 2005.96 71.112 2008.55 71.112C2011.14 71.112 2013.45 71.8 2015.46 73.176C2017.51 74.552 2019.11 76.536 2020.26 79.128C2021.42 81.688 2021.99 84.712 2021.99 88.2C2021.99 91.688 2021.42 94.728 2020.26 97.32C2019.11 99.88 2017.51 101.848 2015.46 103.224C2013.45 104.6 2011.14 105.288 2008.55 105.288ZM2008.55 102.12C2010.5 102.12 2012.22 101.576 2013.69 100.488C2015.19 99.4 2016.36 97.816 2017.19 95.736C2018.02 93.656 2018.44 91.144 2018.44 88.2C2018.44 85.256 2018.02 82.744 2017.19 80.664C2016.36 78.584 2015.19 77 2013.69 75.912C2012.22 74.824 2010.5 74.28 2008.55 74.28C2006.6 74.28 2004.87 74.824 2003.37 75.912C2001.9 77 2000.74 78.584 1999.91 80.664C1999.08 82.744 1998.66 85.256 1998.66 88.2C1998.66 91.144 1999.08 93.656 1999.91 95.736C2000.74 97.816 2001.9 99.4 2003.37 100.488C2004.87 101.576 2006.6 102.12 2008.55 102.12ZM2036.16 71.4V105H2032.7V74.472H2024.78V71.4H2036.16ZM2072.75 96.168H2066.03V105H2062.58V96.168H2043.62V93.672L2061.42 71.4H2065.26L2048.08 93.096H2062.67V85.32H2066.03V93.096H2072.75V96.168Z" fill="black"/>
<path d="M1164.74 101.928V105H1141.17V102.552L1155.14 88.872C1156.9 87.144 1158.08 85.656 1158.69 84.408C1159.33 83.128 1159.65 81.848 1159.65 80.568C1159.65 78.584 1158.96 77.048 1157.58 75.96C1156.24 74.84 1154.3 74.28 1151.78 74.28C1147.84 74.28 1144.78 75.528 1142.61 78.024L1140.16 75.912C1141.47 74.376 1143.14 73.192 1145.15 72.36C1147.2 71.528 1149.5 71.112 1152.06 71.112C1155.49 71.112 1158.19 71.928 1160.18 73.56C1162.19 75.16 1163.2 77.368 1163.2 80.184C1163.2 81.912 1162.82 83.576 1162.05 85.176C1161.28 86.776 1159.82 88.616 1157.68 90.696L1146.26 101.928H1164.74ZM1182.28 105.288C1179.69 105.288 1177.37 104.6 1175.32 103.224C1173.3 101.848 1171.72 99.88 1170.57 97.32C1169.45 94.728 1168.89 91.688 1168.89 88.2C1168.89 84.712 1169.45 81.688 1170.57 79.128C1171.72 76.536 1173.3 74.552 1175.32 73.176C1177.37 71.8 1179.69 71.112 1182.28 71.112C1184.87 71.112 1187.17 71.8 1189.19 73.176C1191.24 74.552 1192.84 76.536 1193.99 79.128C1195.14 81.688 1195.72 84.712 1195.72 88.2C1195.72 91.688 1195.14 94.728 1193.99 97.32C1192.84 99.88 1191.24 101.848 1189.19 103.224C1187.17 104.6 1184.87 105.288 1182.28 105.288ZM1182.28 102.12C1184.23 102.12 1185.94 101.576 1187.41 100.488C1188.92 99.4 1190.09 97.816 1190.92 95.736C1191.75 93.656 1192.17 91.144 1192.17 88.2C1192.17 85.256 1191.75 82.744 1190.92 80.664C1190.09 78.584 1188.92 77 1187.41 75.912C1185.94 74.824 1184.23 74.28 1182.28 74.28C1180.33 74.28 1178.6 74.824 1177.09 75.912C1175.62 77 1174.47 78.584 1173.64 80.664C1172.81 82.744 1172.39 85.256 1172.39 88.2C1172.39 91.144 1172.81 93.656 1173.64 95.736C1174.47 97.816 1175.62 99.4 1177.09 100.488C1178.6 101.576 1180.33 102.12 1182.28 102.12ZM1209.89 71.4V105H1206.43V74.472H1198.51V71.4H1209.89ZM1240.86 101.928V105H1217.29V102.552L1231.26 88.872C1233.02 87.144 1234.21 85.656 1234.81 84.408C1235.45 83.128 1235.77 81.848 1235.77 80.568C1235.77 78.584 1235.09 77.048 1233.71 75.96C1232.37 74.84 1230.43 74.28 1227.9 74.28C1223.97 74.28 1220.91 75.528 1218.73 78.024L1216.29 75.912C1217.6 74.376 1219.26 73.192 1221.28 72.36C1223.33 71.528 1225.63 71.112 1228.19 71.112C1231.61 71.112 1234.32 71.928 1236.3 73.56C1238.32 75.16 1239.33 77.368 1239.33 80.184C1239.33 81.912 1238.94 83.576 1238.17 85.176C1237.41 86.776 1235.95 88.616 1233.81 90.696L1222.38 101.928H1240.86Z" fill="black"/>
<path d="M1571.83 43.928V47H1548.26V44.552L1562.23 30.872C1563.99 29.144 1565.17 27.656 1565.78 26.408C1566.42 25.128 1566.74 23.848 1566.74 22.568C1566.74 20.584 1566.05 19.048 1564.68 17.96C1563.33 16.84 1561.4 16.28 1558.87 16.28C1554.93 16.28 1551.88 17.528 1549.7 20.024L1547.25 17.912C1548.57 16.376 1550.23 15.192 1552.25 14.36C1554.29 13.528 1556.6 13.112 1559.16 13.112C1562.58 13.112 1565.29 13.928 1567.27 15.56C1569.29 17.16 1570.29 19.368 1570.29 22.184C1570.29 23.912 1569.91 25.576 1569.14 27.176C1568.37 28.776 1566.92 30.616 1564.77 32.696L1553.35 43.928H1571.83ZM1589.37 47.288C1586.78 47.288 1584.46 46.6 1582.41 45.224C1580.4 43.848 1578.81 41.88 1577.66 39.32C1576.54 36.728 1575.98 33.688 1575.98 30.2C1575.98 26.712 1576.54 23.688 1577.66 21.128C1578.81 18.536 1580.4 16.552 1582.41 15.176C1584.46 13.8 1586.78 13.112 1589.37 13.112C1591.96 13.112 1594.27 13.8 1596.28 15.176C1598.33 16.552 1599.93 18.536 1601.08 21.128C1602.24 23.688 1602.81 26.712 1602.81 30.2C1602.81 33.688 1602.24 36.728 1601.08 39.32C1599.93 41.88 1598.33 43.848 1596.28 45.224C1594.27 46.6 1591.96 47.288 1589.37 47.288ZM1589.37 44.12C1591.32 44.12 1593.04 43.576 1594.51 42.488C1596.01 41.4 1597.18 39.816 1598.01 37.736C1598.84 35.656 1599.26 33.144 1599.26 30.2C1599.26 27.256 1598.84 24.744 1598.01 22.664C1597.18 20.584 1596.01 19 1594.51 17.912C1593.04 16.824 1591.32 16.28 1589.37 16.28C1587.42 16.28 1585.69 16.824 1584.19 17.912C1582.72 19 1581.56 20.584 1580.73 22.664C1579.9 24.744 1579.48 27.256 1579.48 30.2C1579.48 33.144 1579.9 35.656 1580.73 37.736C1581.56 39.816 1582.72 41.4 1584.19 42.488C1585.69 43.576 1587.42 44.12 1589.37 44.12ZM1616.98 13.4V47H1613.52V16.472H1605.6V13.4H1616.98ZM1636.44 27.8C1639.96 27.992 1642.63 28.952 1644.45 30.68C1646.31 32.376 1647.24 34.6 1647.24 37.352C1647.24 39.272 1646.77 40.984 1645.84 42.488C1644.92 43.96 1643.54 45.128 1641.72 45.992C1639.89 46.856 1637.67 47.288 1635.04 47.288C1632.61 47.288 1630.31 46.904 1628.13 46.136C1625.99 45.336 1624.26 44.28 1622.95 42.968L1624.63 40.232C1625.75 41.384 1627.24 42.328 1629.09 43.064C1630.95 43.768 1632.93 44.12 1635.04 44.12C1637.8 44.12 1639.92 43.528 1641.43 42.344C1642.93 41.128 1643.68 39.464 1643.68 37.352C1643.68 35.272 1642.93 33.64 1641.43 32.456C1639.92 31.272 1637.65 30.68 1634.61 30.68H1632.21V28.136L1641.52 16.472H1624.34V13.4H1645.94V15.848L1636.44 27.8Z" fill="black"/>
</svg>
