<svg width="3193" height="1904" viewBox="0 0 3193 1904" fill="none" xmlns="http://www.w3.org/2000/svg">
<path d="M1604.79 1468.5L414 781" stroke="#858585" stroke-width="4" stroke-dasharray="8 8"/>
<path d="M1603.88 1468.15L1248 140" stroke="#858585" stroke-width="4" stroke-dasharray="8 8"/>
<path d="M1604.5 1467.79L917 277" stroke="#858585" stroke-width="4" stroke-dasharray="8 8"/>
<path d="M1605 1468L633 496" stroke="#858585" stroke-width="4" stroke-dasharray="8 8"/>
<path d="M1605.15 1466.88L277 1111" stroke="#858585" stroke-width="4" stroke-dasharray="8 8"/>
<path d="M1605.15 1467L277 1822.88" stroke="#858585" stroke-width="4" stroke-dasharray="8 8"/>
<path d="M1605 1467H2980" stroke="#858585" stroke-width="4" stroke-dasharray="8 8"/>
<path d="M230 1467H1605" stroke="#858585" stroke-width="4" stroke-dasharray="8 8"/>
<path d="M1605 1467.27L2577.27 495" stroke="#858585" stroke-width="4" stroke-dasharray="8 8"/>
<path d="M1605 1467.5L2795.78 780" stroke="#858585" stroke-width="4" stroke-dasharray="8 8"/>
<path d="M1605 1468.15L1960.88 140" stroke="#858585" stroke-width="4" stroke-dasharray="8 8"/>
<path d="M1605 1466.88L2933.15 1111" stroke="#858585" stroke-width="4" stroke-dasharray="8 8"/>
<path d="M1605 1467L2933.15 1822.88" stroke="#858585" stroke-width="4" stroke-dasharray="8 8"/>
<path d="M1605 1467.78L2292.5 277" stroke="#858585" stroke-width="4" stroke-dasharray="8 8"/>
<path d="M1604 1468V93" stroke="#858585" stroke-width="4" stroke-dasharray="8 8"/>
<path d="M61.1658 1490.93V1494H37.5978V1491.55L51.5658 1477.87C53.3258 1476.14 54.5098 1474.66 55.1178 1473.41C55.7578 1472.13 56.0778 1470.85 56.0778 1469.57C56.0778 1467.58 55.3898 1466.05 54.0138 1464.96C52.6698 1463.84 50.7338 1463.28 48.2058 1463.28C44.2698 1463.28 41.2138 1464.53 39.0378 1467.02L36.5898 1464.91C37.9018 1463.38 39.5658 1462.19 41.5818 1461.36C43.6298 1460.53 45.9338 1460.11 48.4938 1460.11C51.9178 1460.11 54.6218 1460.93 56.6058 1462.56C58.6218 1464.16 59.6298 1466.37 59.6298 1469.18C59.6298 1470.91 59.2458 1472.58 58.4778 1474.18C57.7098 1475.78 56.2538 1477.62 54.1098 1479.7L42.6858 1490.93H61.1658ZM78.7075 1494.29C76.1155 1494.29 73.7955 1493.6 71.7475 1492.22C69.7315 1490.85 68.1475 1488.88 66.9955 1486.32C65.8755 1483.73 65.3155 1480.69 65.3155 1477.2C65.3155 1473.71 65.8755 1470.69 66.9955 1468.13C68.1475 1465.54 69.7315 1463.55 71.7475 1462.18C73.7955 1460.8 76.1155 1460.11 78.7075 1460.11C81.2995 1460.11 83.6035 1460.8 85.6195 1462.18C87.6675 1463.55 89.2675 1465.54 90.4195 1468.13C91.5715 1470.69 92.1475 1473.71 92.1475 1477.2C92.1475 1480.69 91.5715 1483.73 90.4195 1486.32C89.2675 1488.88 87.6675 1490.85 85.6195 1492.22C83.6035 1493.6 81.2995 1494.29 78.7075 1494.29ZM78.7075 1491.12C80.6595 1491.12 82.3715 1490.58 83.8435 1489.49C85.3475 1488.4 86.5155 1486.82 87.3475 1484.74C88.1795 1482.66 88.5955 1480.14 88.5955 1477.2C88.5955 1474.26 88.1795 1471.74 87.3475 1469.66C86.5155 1467.58 85.3475 1466 83.8435 1464.91C82.3715 1463.82 80.6595 1463.28 78.7075 1463.28C76.7555 1463.28 75.0275 1463.82 73.5235 1464.91C72.0515 1466 70.8995 1467.58 70.0675 1469.66C69.2355 1471.74 68.8195 1474.26 68.8195 1477.2C68.8195 1480.14 69.2355 1482.66 70.0675 1484.74C70.8995 1486.82 72.0515 1488.4 73.5235 1489.49C75.0275 1490.58 76.7555 1491.12 78.7075 1491.12ZM110.489 1494.29C107.897 1494.29 105.577 1493.6 103.529 1492.22C101.513 1490.85 99.9288 1488.88 98.7768 1486.32C97.6568 1483.73 97.0968 1480.69 97.0968 1477.2C97.0968 1473.71 97.6568 1470.69 98.7768 1468.13C99.9288 1465.54 101.513 1463.55 103.529 1462.18C105.577 1460.8 107.897 1460.11 110.489 1460.11C113.081 1460.11 115.385 1460.8 117.401 1462.18C119.449 1463.55 121.049 1465.54 122.201 1468.13C123.353 1470.69 123.929 1473.71 123.929 1477.2C123.929 1480.69 123.353 1483.73 122.201 1486.32C121.049 1488.88 119.449 1490.85 117.401 1492.22C115.385 1493.6 113.081 1494.29 110.489 1494.29ZM110.489 1491.12C112.441 1491.12 114.153 1490.58 115.625 1489.49C117.129 1488.4 118.297 1486.82 119.129 1484.74C119.961 1482.66 120.377 1480.14 120.377 1477.2C120.377 1474.26 119.961 1471.74 119.129 1469.66C118.297 1467.58 117.129 1466 115.625 1464.91C114.153 1463.82 112.441 1463.28 110.489 1463.28C108.537 1463.28 106.809 1463.82 105.305 1464.91C103.833 1466 102.681 1467.58 101.849 1469.66C101.017 1471.74 100.601 1474.26 100.601 1477.2C100.601 1480.14 101.017 1482.66 101.849 1484.74C102.681 1486.82 103.833 1488.4 105.305 1489.49C106.809 1490.58 108.537 1491.12 110.489 1491.12ZM152.215 1460.4V1462.85L138.151 1494H134.407L148.231 1463.47H130.951V1469.76H127.543V1460.4H152.215Z" fill="black"/>
<path d="M3064.61 1487.93V1491H3041.04V1488.55L3055.01 1474.87C3056.77 1473.14 3057.96 1471.66 3058.56 1470.41C3059.2 1469.13 3059.52 1467.85 3059.52 1466.57C3059.52 1464.58 3058.84 1463.05 3057.46 1461.96C3056.12 1460.84 3054.18 1460.28 3051.65 1460.28C3047.72 1460.28 3044.66 1461.53 3042.48 1464.02L3040.04 1461.91C3041.35 1460.38 3043.01 1459.19 3045.03 1458.36C3047.08 1457.53 3049.38 1457.11 3051.94 1457.11C3055.36 1457.11 3058.07 1457.93 3060.05 1459.56C3062.07 1461.16 3063.08 1463.37 3063.08 1466.18C3063.08 1467.91 3062.69 1469.58 3061.92 1471.18C3061.16 1472.78 3059.7 1474.62 3057.56 1476.7L3046.13 1487.93H3064.61ZM3082.15 1491.29C3079.56 1491.29 3077.24 1490.6 3075.19 1489.22C3073.18 1487.85 3071.59 1485.88 3070.44 1483.32C3069.32 1480.73 3068.76 1477.69 3068.76 1474.2C3068.76 1470.71 3069.32 1467.69 3070.44 1465.13C3071.59 1462.54 3073.18 1460.55 3075.19 1459.18C3077.24 1457.8 3079.56 1457.11 3082.15 1457.11C3084.75 1457.11 3087.05 1457.8 3089.07 1459.18C3091.11 1460.55 3092.71 1462.54 3093.87 1465.13C3095.02 1467.69 3095.59 1470.71 3095.59 1474.2C3095.59 1477.69 3095.02 1480.73 3093.87 1483.32C3092.71 1485.88 3091.11 1487.85 3089.07 1489.22C3087.05 1490.6 3084.75 1491.29 3082.15 1491.29ZM3082.15 1488.12C3084.11 1488.12 3085.82 1487.58 3087.29 1486.49C3088.79 1485.4 3089.96 1483.82 3090.79 1481.74C3091.63 1479.66 3092.04 1477.14 3092.04 1474.2C3092.04 1471.26 3091.63 1468.74 3090.79 1466.66C3089.96 1464.58 3088.79 1463 3087.29 1461.91C3085.82 1460.82 3084.11 1460.28 3082.15 1460.28C3080.2 1460.28 3078.47 1460.82 3076.97 1461.91C3075.5 1463 3074.35 1464.58 3073.51 1466.66C3072.68 1468.74 3072.27 1471.26 3072.27 1474.2C3072.27 1477.14 3072.68 1479.66 3073.51 1481.74C3074.35 1483.82 3075.5 1485.4 3076.97 1486.49C3078.47 1487.58 3080.2 1488.12 3082.15 1488.12ZM3123.39 1487.93V1491H3099.83V1488.55L3113.79 1474.87C3115.55 1473.14 3116.74 1471.66 3117.35 1470.41C3117.99 1469.13 3118.31 1467.85 3118.31 1466.57C3118.31 1464.58 3117.62 1463.05 3116.24 1461.96C3114.9 1460.84 3112.96 1460.28 3110.43 1460.28C3106.5 1460.28 3103.44 1461.53 3101.27 1464.02L3098.82 1461.91C3100.13 1460.38 3101.79 1459.19 3103.81 1458.36C3105.86 1457.53 3108.16 1457.11 3110.72 1457.11C3114.15 1457.11 3116.85 1457.93 3118.83 1459.56C3120.85 1461.16 3121.86 1463.37 3121.86 1466.18C3121.86 1467.91 3121.47 1469.58 3120.71 1471.18C3119.94 1472.78 3118.48 1474.62 3116.34 1476.7L3104.91 1487.93H3123.39ZM3140.93 1491.29C3138.34 1491.29 3136.02 1490.6 3133.97 1489.22C3131.96 1487.85 3130.37 1485.88 3129.22 1483.32C3128.1 1480.73 3127.54 1477.69 3127.54 1474.2C3127.54 1470.71 3128.1 1467.69 3129.22 1465.13C3130.37 1462.54 3131.96 1460.55 3133.97 1459.18C3136.02 1457.8 3138.34 1457.11 3140.93 1457.11C3143.53 1457.11 3145.83 1457.8 3147.85 1459.18C3149.89 1460.55 3151.49 1462.54 3152.65 1465.13C3153.8 1467.69 3154.37 1470.71 3154.37 1474.2C3154.37 1477.69 3153.8 1480.73 3152.65 1483.32C3151.49 1485.88 3149.89 1487.85 3147.85 1489.22C3145.83 1490.6 3143.53 1491.29 3140.93 1491.29ZM3140.93 1488.12C3142.89 1488.12 3144.6 1487.58 3146.07 1486.49C3147.57 1485.4 3148.74 1483.82 3149.57 1481.74C3150.41 1479.66 3150.82 1477.14 3150.82 1474.2C3150.82 1471.26 3150.41 1468.74 3149.57 1466.66C3148.74 1464.58 3147.57 1463 3146.07 1461.91C3144.6 1460.82 3142.89 1460.28 3140.93 1460.28C3138.98 1460.28 3137.25 1460.82 3135.75 1461.91C3134.28 1463 3133.13 1464.58 3132.29 1466.66C3131.46 1468.74 3131.05 1471.26 3131.05 1474.2C3131.05 1477.14 3131.46 1479.66 3132.29 1481.74C3133.13 1483.82 3134.28 1485.4 3135.75 1486.49C3137.25 1487.58 3138.98 1488.12 3140.93 1488.12Z" fill="black"/>
<path d="M3022.07 1111.93V1115H2998.5V1112.55L3012.47 1098.87C3014.23 1097.14 3015.42 1095.66 3016.02 1094.41C3016.66 1093.13 3016.98 1091.85 3016.98 1090.57C3016.98 1088.58 3016.3 1087.05 3014.92 1085.96C3013.58 1084.84 3011.64 1084.28 3009.11 1084.28C3005.18 1084.28 3002.12 1085.53 2999.94 1088.02L2997.5 1085.91C2998.81 1084.38 3000.47 1083.19 3002.49 1082.36C3004.54 1081.53 3006.84 1081.11 3009.4 1081.11C3012.82 1081.11 3015.53 1081.93 3017.51 1083.56C3019.53 1085.16 3020.54 1087.37 3020.54 1090.18C3020.54 1091.91 3020.15 1093.58 3019.38 1095.18C3018.62 1096.78 3017.16 1098.62 3015.02 1100.7L3003.59 1111.93H3022.07ZM3039.61 1115.29C3037.02 1115.29 3034.7 1114.6 3032.65 1113.22C3030.64 1111.85 3029.05 1109.88 3027.9 1107.32C3026.78 1104.73 3026.22 1101.69 3026.22 1098.2C3026.22 1094.71 3026.78 1091.69 3027.9 1089.13C3029.05 1086.54 3030.64 1084.55 3032.65 1083.18C3034.7 1081.8 3037.02 1081.11 3039.61 1081.11C3042.21 1081.11 3044.51 1081.8 3046.53 1083.18C3048.57 1084.55 3050.17 1086.54 3051.33 1089.13C3052.48 1091.69 3053.05 1094.71 3053.05 1098.2C3053.05 1101.69 3052.48 1104.73 3051.33 1107.32C3050.17 1109.88 3048.57 1111.85 3046.53 1113.22C3044.51 1114.6 3042.21 1115.29 3039.61 1115.29ZM3039.61 1112.12C3041.57 1112.12 3043.28 1111.58 3044.75 1110.49C3046.25 1109.4 3047.42 1107.82 3048.25 1105.74C3049.09 1103.66 3049.5 1101.14 3049.5 1098.2C3049.5 1095.26 3049.09 1092.74 3048.25 1090.66C3047.42 1088.58 3046.25 1087 3044.75 1085.91C3043.28 1084.82 3041.57 1084.28 3039.61 1084.28C3037.66 1084.28 3035.93 1084.82 3034.43 1085.91C3032.96 1087 3031.81 1088.58 3030.97 1090.66C3030.14 1092.74 3029.73 1095.26 3029.73 1098.2C3029.73 1101.14 3030.14 1103.66 3030.97 1105.74C3031.81 1107.82 3032.96 1109.4 3034.43 1110.49C3035.93 1111.58 3037.66 1112.12 3039.61 1112.12ZM3067.22 1081.4V1115H3063.77V1084.47H3055.85V1081.4H3067.22ZM3094.5 1097.38C3096.61 1098.09 3098.23 1099.14 3099.35 1100.55C3100.5 1101.96 3101.08 1103.66 3101.08 1105.64C3101.08 1107.59 3100.55 1109.3 3099.49 1110.78C3098.44 1112.22 3096.92 1113.34 3094.93 1114.14C3092.98 1114.9 3090.68 1115.29 3088.02 1115.29C3083.99 1115.29 3080.82 1114.42 3078.52 1112.7C3076.21 1110.97 3075.06 1108.62 3075.06 1105.64C3075.06 1103.62 3075.61 1101.93 3076.69 1100.55C3077.81 1099.14 3079.43 1098.09 3081.54 1097.38C3079.81 1096.71 3078.5 1095.75 3077.61 1094.5C3076.71 1093.22 3076.26 1091.72 3076.26 1089.99C3076.26 1087.27 3077.32 1085.11 3079.43 1083.51C3081.57 1081.91 3084.44 1081.11 3088.02 1081.11C3090.39 1081.11 3092.45 1081.48 3094.21 1082.22C3096.01 1082.92 3097.4 1083.94 3098.39 1085.29C3099.38 1086.63 3099.88 1088.2 3099.88 1089.99C3099.88 1091.72 3099.41 1093.22 3098.49 1094.5C3097.56 1095.75 3096.23 1096.71 3094.5 1097.38ZM3079.72 1090.09C3079.72 1091.94 3080.45 1093.42 3081.93 1094.5C3083.4 1095.59 3085.43 1096.14 3088.02 1096.14C3090.61 1096.14 3092.65 1095.59 3094.12 1094.5C3095.62 1093.42 3096.37 1091.96 3096.37 1090.14C3096.37 1088.25 3095.61 1086.76 3094.07 1085.67C3092.57 1084.58 3090.55 1084.04 3088.02 1084.04C3085.46 1084.04 3083.43 1084.58 3081.93 1085.67C3080.45 1086.76 3079.72 1088.23 3079.72 1090.09ZM3088.02 1112.36C3091 1112.36 3093.32 1111.75 3094.98 1110.54C3096.68 1109.32 3097.53 1107.67 3097.53 1105.59C3097.53 1103.51 3096.68 1101.88 3094.98 1100.7C3093.32 1099.48 3091 1098.87 3088.02 1098.87C3085.08 1098.87 3082.76 1099.48 3081.06 1100.7C3079.4 1101.88 3078.57 1103.51 3078.57 1105.59C3078.57 1107.7 3079.4 1109.37 3081.06 1110.58C3082.73 1111.77 3085.05 1112.36 3088.02 1112.36Z" fill="black"/>
<path d="M3015.74 1864.93V1868H2992.17V1865.55L3006.14 1851.87C3007.9 1850.14 3009.08 1848.66 3009.69 1847.41C3010.33 1846.13 3010.65 1844.85 3010.65 1843.57C3010.65 1841.58 3009.96 1840.05 3008.58 1838.96C3007.24 1837.84 3005.3 1837.28 3002.78 1837.28C2998.84 1837.28 2995.78 1838.53 2993.61 1841.02L2991.16 1838.91C2992.47 1837.38 2994.14 1836.19 2996.15 1835.36C2998.2 1834.53 3000.5 1834.11 3003.06 1834.11C3006.49 1834.11 3009.19 1834.93 3011.18 1836.56C3013.19 1838.16 3014.2 1840.37 3014.2 1843.18C3014.2 1844.91 3013.82 1846.58 3013.05 1848.18C3012.28 1849.78 3010.82 1851.62 3008.68 1853.7L2997.26 1864.93H3015.74ZM3033.28 1868.29C3030.69 1868.29 3028.37 1867.6 3026.32 1866.22C3024.3 1864.85 3022.72 1862.88 3021.57 1860.32C3020.45 1857.73 3019.89 1854.69 3019.89 1851.2C3019.89 1847.71 3020.45 1844.69 3021.57 1842.13C3022.72 1839.54 3024.3 1837.55 3026.32 1836.18C3028.37 1834.8 3030.69 1834.11 3033.28 1834.11C3035.87 1834.11 3038.17 1834.8 3040.19 1836.18C3042.24 1837.55 3043.84 1839.54 3044.99 1842.13C3046.14 1844.69 3046.72 1847.71 3046.72 1851.2C3046.72 1854.69 3046.14 1857.73 3044.99 1860.32C3043.84 1862.88 3042.24 1864.85 3040.19 1866.22C3038.17 1867.6 3035.87 1868.29 3033.28 1868.29ZM3033.28 1865.12C3035.23 1865.12 3036.94 1864.58 3038.41 1863.49C3039.92 1862.4 3041.09 1860.82 3041.92 1858.74C3042.75 1856.66 3043.17 1854.14 3043.17 1851.2C3043.17 1848.26 3042.75 1845.74 3041.92 1843.66C3041.09 1841.58 3039.92 1840 3038.41 1838.91C3036.94 1837.82 3035.23 1837.28 3033.28 1837.28C3031.33 1837.28 3029.6 1837.82 3028.09 1838.91C3026.62 1840 3025.47 1841.58 3024.64 1843.66C3023.81 1845.74 3023.39 1848.26 3023.39 1851.2C3023.39 1854.14 3023.81 1856.66 3024.64 1858.74C3025.47 1860.82 3026.62 1862.4 3028.09 1863.49C3029.6 1864.58 3031.33 1865.12 3033.28 1865.12ZM3074.52 1864.93V1868H3050.95V1865.55L3064.92 1851.87C3066.68 1850.14 3067.86 1848.66 3068.47 1847.41C3069.11 1846.13 3069.43 1844.85 3069.43 1843.57C3069.43 1841.58 3068.74 1840.05 3067.37 1838.96C3066.02 1837.84 3064.09 1837.28 3061.56 1837.28C3057.62 1837.28 3054.57 1838.53 3052.39 1841.02L3049.94 1838.91C3051.25 1837.38 3052.92 1836.19 3054.93 1835.36C3056.98 1834.53 3059.29 1834.11 3061.85 1834.11C3065.27 1834.11 3067.97 1834.93 3069.96 1836.56C3071.97 1838.16 3072.98 1840.37 3072.98 1843.18C3072.98 1844.91 3072.6 1846.58 3071.83 1848.18C3071.06 1849.78 3069.61 1851.62 3067.46 1853.7L3056.04 1864.93H3074.52ZM3088.17 1834.4V1868H3084.71V1837.47H3076.79V1834.4H3088.17Z" fill="black"/>
<path d="M125.306 1111.93V1115H101.738V1112.55L115.706 1098.87C117.466 1097.14 118.65 1095.66 119.258 1094.41C119.898 1093.13 120.218 1091.85 120.218 1090.57C120.218 1088.58 119.53 1087.05 118.154 1085.96C116.81 1084.84 114.874 1084.28 112.346 1084.28C108.41 1084.28 105.354 1085.53 103.178 1088.02L100.73 1085.91C102.042 1084.38 103.706 1083.19 105.722 1082.36C107.77 1081.53 110.074 1081.11 112.634 1081.11C116.058 1081.11 118.762 1081.93 120.746 1083.56C122.762 1085.16 123.77 1087.37 123.77 1090.18C123.77 1091.91 123.386 1093.58 122.618 1095.18C121.85 1096.78 120.394 1098.62 118.25 1100.7L106.826 1111.93H125.306ZM142.848 1115.29C140.256 1115.29 137.936 1114.6 135.888 1113.22C133.872 1111.85 132.288 1109.88 131.136 1107.32C130.016 1104.73 129.456 1101.69 129.456 1098.2C129.456 1094.71 130.016 1091.69 131.136 1089.13C132.288 1086.54 133.872 1084.55 135.888 1083.18C137.936 1081.8 140.256 1081.11 142.848 1081.11C145.44 1081.11 147.744 1081.8 149.76 1083.18C151.808 1084.55 153.408 1086.54 154.56 1089.13C155.712 1091.69 156.288 1094.71 156.288 1098.2C156.288 1101.69 155.712 1104.73 154.56 1107.32C153.408 1109.88 151.808 1111.85 149.76 1113.22C147.744 1114.6 145.44 1115.29 142.848 1115.29ZM142.848 1112.12C144.8 1112.12 146.512 1111.58 147.984 1110.49C149.488 1109.4 150.656 1107.82 151.488 1105.74C152.32 1103.66 152.736 1101.14 152.736 1098.2C152.736 1095.26 152.32 1092.74 151.488 1090.66C150.656 1088.58 149.488 1087 147.984 1085.91C146.512 1084.82 144.8 1084.28 142.848 1084.28C140.896 1084.28 139.168 1084.82 137.664 1085.91C136.192 1087 135.04 1088.58 134.208 1090.66C133.376 1092.74 132.96 1095.26 132.96 1098.2C132.96 1101.14 133.376 1103.66 134.208 1105.74C135.04 1107.82 136.192 1109.4 137.664 1110.49C139.168 1111.58 140.896 1112.12 142.848 1112.12ZM174.629 1115.29C172.037 1115.29 169.717 1114.6 167.669 1113.22C165.653 1111.85 164.069 1109.88 162.917 1107.32C161.797 1104.73 161.237 1101.69 161.237 1098.2C161.237 1094.71 161.797 1091.69 162.917 1089.13C164.069 1086.54 165.653 1084.55 167.669 1083.18C169.717 1081.8 172.037 1081.11 174.629 1081.11C177.221 1081.11 179.525 1081.8 181.541 1083.18C183.589 1084.55 185.189 1086.54 186.341 1089.13C187.493 1091.69 188.069 1094.71 188.069 1098.2C188.069 1101.69 187.493 1104.73 186.341 1107.32C185.189 1109.88 183.589 1111.85 181.541 1113.22C179.525 1114.6 177.221 1115.29 174.629 1115.29ZM174.629 1112.12C176.581 1112.12 178.293 1111.58 179.765 1110.49C181.269 1109.4 182.437 1107.82 183.269 1105.74C184.101 1103.66 184.517 1101.14 184.517 1098.2C184.517 1095.26 184.101 1092.74 183.269 1090.66C182.437 1088.58 181.269 1087 179.765 1085.91C178.293 1084.82 176.581 1084.28 174.629 1084.28C172.677 1084.28 170.949 1084.82 169.445 1085.91C167.973 1087 166.821 1088.58 165.989 1090.66C165.157 1092.74 164.741 1095.26 164.741 1098.2C164.741 1101.14 165.157 1103.66 165.989 1105.74C166.821 1107.82 167.973 1109.4 169.445 1110.49C170.949 1111.58 172.677 1112.12 174.629 1112.12ZM212.266 1097.38C214.378 1098.09 215.994 1099.14 217.114 1100.55C218.266 1101.96 218.842 1103.66 218.842 1105.64C218.842 1107.59 218.314 1109.3 217.258 1110.78C216.202 1112.22 214.682 1113.34 212.698 1114.14C210.746 1114.9 208.442 1115.29 205.786 1115.29C201.754 1115.29 198.586 1114.42 196.282 1112.7C193.978 1110.97 192.826 1108.62 192.826 1105.64C192.826 1103.62 193.37 1101.93 194.458 1100.55C195.578 1099.14 197.194 1098.09 199.306 1097.38C197.578 1096.71 196.266 1095.75 195.37 1094.5C194.474 1093.22 194.026 1091.72 194.026 1089.99C194.026 1087.27 195.082 1085.11 197.194 1083.51C199.338 1081.91 202.202 1081.11 205.786 1081.11C208.154 1081.11 210.218 1081.48 211.978 1082.22C213.77 1082.92 215.162 1083.94 216.154 1085.29C217.146 1086.63 217.642 1088.2 217.642 1089.99C217.642 1091.72 217.178 1093.22 216.25 1094.5C215.322 1095.75 213.994 1096.71 212.266 1097.38ZM197.482 1090.09C197.482 1091.94 198.218 1093.42 199.69 1094.5C201.162 1095.59 203.194 1096.14 205.786 1096.14C208.378 1096.14 210.41 1095.59 211.882 1094.5C213.386 1093.42 214.138 1091.96 214.138 1090.14C214.138 1088.25 213.37 1086.76 211.834 1085.67C210.33 1084.58 208.314 1084.04 205.786 1084.04C203.226 1084.04 201.194 1084.58 199.69 1085.67C198.218 1086.76 197.482 1088.23 197.482 1090.09ZM205.786 1112.36C208.762 1112.36 211.082 1111.75 212.746 1110.54C214.442 1109.32 215.29 1107.67 215.29 1105.59C215.29 1103.51 214.442 1101.88 212.746 1100.7C211.082 1099.48 208.762 1098.87 205.786 1098.87C202.842 1098.87 200.522 1099.48 198.826 1100.7C197.162 1101.88 196.33 1103.51 196.33 1105.59C196.33 1107.7 197.162 1109.37 198.826 1110.58C200.49 1111.77 202.81 1112.36 205.786 1112.36Z" fill="black"/>
<path d="M119.486 1853.93V1857H95.9182V1854.55L109.886 1840.87C111.646 1839.14 112.83 1837.66 113.438 1836.41C114.078 1835.13 114.398 1833.85 114.398 1832.57C114.398 1830.58 113.71 1829.05 112.334 1827.96C110.99 1826.84 109.054 1826.28 106.526 1826.28C102.59 1826.28 99.5342 1827.53 97.3582 1830.02L94.9102 1827.91C96.2222 1826.38 97.8862 1825.19 99.9022 1824.36C101.95 1823.53 104.254 1823.11 106.814 1823.11C110.238 1823.11 112.942 1823.93 114.926 1825.56C116.942 1827.16 117.95 1829.37 117.95 1832.18C117.95 1833.91 117.566 1835.58 116.798 1837.18C116.03 1838.78 114.574 1840.62 112.43 1842.7L101.006 1853.93H119.486ZM137.028 1857.29C134.436 1857.29 132.116 1856.6 130.068 1855.22C128.052 1853.85 126.468 1851.88 125.316 1849.32C124.196 1846.73 123.636 1843.69 123.636 1840.2C123.636 1836.71 124.196 1833.69 125.316 1831.13C126.468 1828.54 128.052 1826.55 130.068 1825.18C132.116 1823.8 134.436 1823.11 137.028 1823.11C139.62 1823.11 141.924 1823.8 143.94 1825.18C145.988 1826.55 147.588 1828.54 148.74 1831.13C149.892 1833.69 150.468 1836.71 150.468 1840.2C150.468 1843.69 149.892 1846.73 148.74 1849.32C147.588 1851.88 145.988 1853.85 143.94 1855.22C141.924 1856.6 139.62 1857.29 137.028 1857.29ZM137.028 1854.12C138.98 1854.12 140.692 1853.58 142.164 1852.49C143.668 1851.4 144.836 1849.82 145.668 1847.74C146.5 1845.66 146.916 1843.14 146.916 1840.2C146.916 1837.26 146.5 1834.74 145.668 1832.66C144.836 1830.58 143.668 1829 142.164 1827.91C140.692 1826.82 138.98 1826.28 137.028 1826.28C135.076 1826.28 133.348 1826.82 131.844 1827.91C130.372 1829 129.22 1830.58 128.388 1832.66C127.556 1834.74 127.14 1837.26 127.14 1840.2C127.14 1843.14 127.556 1845.66 128.388 1847.74C129.22 1849.82 130.372 1851.4 131.844 1852.49C133.348 1853.58 135.076 1854.12 137.028 1854.12ZM168.809 1857.29C166.217 1857.29 163.897 1856.6 161.849 1855.22C159.833 1853.85 158.249 1851.88 157.097 1849.32C155.977 1846.73 155.417 1843.69 155.417 1840.2C155.417 1836.71 155.977 1833.69 157.097 1831.13C158.249 1828.54 159.833 1826.55 161.849 1825.18C163.897 1823.8 166.217 1823.11 168.809 1823.11C171.401 1823.11 173.705 1823.8 175.721 1825.18C177.769 1826.55 179.369 1828.54 180.521 1831.13C181.673 1833.69 182.249 1836.71 182.249 1840.2C182.249 1843.69 181.673 1846.73 180.521 1849.32C179.369 1851.88 177.769 1853.85 175.721 1855.22C173.705 1856.6 171.401 1857.29 168.809 1857.29ZM168.809 1854.12C170.761 1854.12 172.473 1853.58 173.945 1852.49C175.449 1851.4 176.617 1849.82 177.449 1847.74C178.281 1845.66 178.697 1843.14 178.697 1840.2C178.697 1837.26 178.281 1834.74 177.449 1832.66C176.617 1830.58 175.449 1829 173.945 1827.91C172.473 1826.82 170.761 1826.28 168.809 1826.28C166.857 1826.28 165.129 1826.82 163.625 1827.91C162.153 1829 161.001 1830.58 160.169 1832.66C159.337 1834.74 158.921 1837.26 158.921 1840.2C158.921 1843.14 159.337 1845.66 160.169 1847.74C161.001 1849.82 162.153 1851.4 163.625 1852.49C165.129 1853.58 166.857 1854.12 168.809 1854.12ZM201.118 1836.89C203.326 1836.89 205.278 1837.3 206.974 1838.14C208.702 1838.97 210.046 1840.15 211.006 1841.69C211.966 1843.19 212.446 1844.95 212.446 1846.97C212.446 1849.02 211.95 1850.82 210.958 1852.39C209.966 1853.96 208.59 1855.18 206.83 1856.04C205.102 1856.87 203.15 1857.29 200.974 1857.29C196.526 1857.29 193.118 1855.83 190.75 1852.92C188.382 1849.98 187.198 1845.83 187.198 1840.49C187.198 1836.74 187.838 1833.58 189.118 1830.98C190.398 1828.39 192.19 1826.44 194.494 1825.13C196.798 1823.78 199.486 1823.11 202.558 1823.11C205.886 1823.11 208.542 1823.72 210.526 1824.94L209.134 1827.72C207.534 1826.66 205.358 1826.14 202.606 1826.14C198.894 1826.14 195.982 1827.32 193.87 1829.69C191.758 1832.02 190.702 1835.43 190.702 1839.91C190.702 1840.71 190.75 1841.62 190.846 1842.65C191.678 1840.82 193.006 1839.42 194.83 1838.42C196.654 1837.4 198.75 1836.89 201.118 1836.89ZM200.83 1854.36C203.262 1854.36 205.23 1853.7 206.734 1852.39C208.27 1851.05 209.038 1849.27 209.038 1847.06C209.038 1844.86 208.27 1843.1 206.734 1841.78C205.23 1840.47 203.182 1839.82 200.59 1839.82C198.894 1839.82 197.39 1840.14 196.078 1840.78C194.798 1841.42 193.79 1842.3 193.054 1843.42C192.318 1844.54 191.95 1845.78 191.95 1847.16C191.95 1848.44 192.286 1849.62 192.958 1850.71C193.662 1851.8 194.686 1852.68 196.03 1853.35C197.374 1854.02 198.974 1854.36 200.83 1854.36Z" fill="black"/>
<path d="M2881.24 766.928V770H2857.68V767.552L2871.64 753.872C2873.4 752.144 2874.59 750.656 2875.2 749.408C2875.84 748.128 2876.16 746.848 2876.16 745.568C2876.16 743.584 2875.47 742.048 2874.09 740.96C2872.75 739.84 2870.81 739.28 2868.28 739.28C2864.35 739.28 2861.29 740.528 2859.12 743.024L2856.67 740.912C2857.98 739.376 2859.64 738.192 2861.66 737.36C2863.71 736.528 2866.01 736.112 2868.57 736.112C2872 736.112 2874.7 736.928 2876.68 738.56C2878.7 740.16 2879.71 742.368 2879.71 745.184C2879.71 746.912 2879.32 748.576 2878.56 750.176C2877.79 751.776 2876.33 753.616 2874.19 755.696L2862.76 766.928H2881.24ZM2898.79 770.288C2896.19 770.288 2893.87 769.6 2891.83 768.224C2889.81 766.848 2888.23 764.88 2887.07 762.32C2885.95 759.728 2885.39 756.688 2885.39 753.2C2885.39 749.712 2885.95 746.688 2887.07 744.128C2888.23 741.536 2889.81 739.552 2891.83 738.176C2893.87 736.8 2896.19 736.112 2898.79 736.112C2901.38 736.112 2903.68 736.8 2905.7 738.176C2907.75 739.552 2909.35 741.536 2910.5 744.128C2911.65 746.688 2912.23 749.712 2912.23 753.2C2912.23 756.688 2911.65 759.728 2910.5 762.32C2909.35 764.88 2907.75 766.848 2905.7 768.224C2903.68 769.6 2901.38 770.288 2898.79 770.288ZM2898.79 767.12C2900.74 767.12 2902.45 766.576 2903.92 765.488C2905.43 764.4 2906.59 762.816 2907.43 760.736C2908.26 758.656 2908.67 756.144 2908.67 753.2C2908.67 750.256 2908.26 747.744 2907.43 745.664C2906.59 743.584 2905.43 742 2903.92 740.912C2902.45 739.824 2900.74 739.28 2898.79 739.28C2896.83 739.28 2895.11 739.824 2893.6 740.912C2892.13 742 2890.98 743.584 2890.15 745.664C2889.31 747.744 2888.9 750.256 2888.9 753.2C2888.9 756.144 2889.31 758.656 2890.15 760.736C2890.98 762.816 2892.13 764.4 2893.6 765.488C2895.11 766.576 2896.83 767.12 2898.79 767.12ZM2926.39 736.4V770H2922.94V739.472H2915.02V736.4H2926.39ZM2958.14 736.4V738.848L2944.07 770H2940.33L2954.15 739.472H2936.87V745.76H2933.47V736.4H2958.14Z" fill="black"/>
<path d="M268.486 766.928V770H244.918V767.552L258.886 753.872C260.646 752.144 261.83 750.656 262.438 749.408C263.078 748.128 263.398 746.848 263.398 745.568C263.398 743.584 262.71 742.048 261.334 740.96C259.99 739.84 258.054 739.28 255.526 739.28C251.59 739.28 248.534 740.528 246.358 743.024L243.91 740.912C245.222 739.376 246.886 738.192 248.902 737.36C250.95 736.528 253.254 736.112 255.814 736.112C259.238 736.112 261.942 736.928 263.926 738.56C265.942 740.16 266.95 742.368 266.95 745.184C266.95 746.912 266.566 748.576 265.798 750.176C265.03 751.776 263.574 753.616 261.43 755.696L250.006 766.928H268.486ZM286.028 770.288C283.436 770.288 281.116 769.6 279.068 768.224C277.052 766.848 275.468 764.88 274.316 762.32C273.196 759.728 272.636 756.688 272.636 753.2C272.636 749.712 273.196 746.688 274.316 744.128C275.468 741.536 277.052 739.552 279.068 738.176C281.116 736.8 283.436 736.112 286.028 736.112C288.62 736.112 290.924 736.8 292.94 738.176C294.988 739.552 296.588 741.536 297.74 744.128C298.892 746.688 299.468 749.712 299.468 753.2C299.468 756.688 298.892 759.728 297.74 762.32C296.588 764.88 294.988 766.848 292.94 768.224C290.924 769.6 288.62 770.288 286.028 770.288ZM286.028 767.12C287.98 767.12 289.692 766.576 291.164 765.488C292.668 764.4 293.836 762.816 294.668 760.736C295.5 758.656 295.916 756.144 295.916 753.2C295.916 750.256 295.5 747.744 294.668 745.664C293.836 743.584 292.668 742 291.164 740.912C289.692 739.824 287.98 739.28 286.028 739.28C284.076 739.28 282.348 739.824 280.844 740.912C279.372 742 278.22 743.584 277.388 745.664C276.556 747.744 276.14 750.256 276.14 753.2C276.14 756.144 276.556 758.656 277.388 760.736C278.22 762.816 279.372 764.4 280.844 765.488C282.348 766.576 284.076 767.12 286.028 767.12ZM317.809 770.288C315.217 770.288 312.897 769.6 310.849 768.224C308.833 766.848 307.249 764.88 306.097 762.32C304.977 759.728 304.417 756.688 304.417 753.2C304.417 749.712 304.977 746.688 306.097 744.128C307.249 741.536 308.833 739.552 310.849 738.176C312.897 736.8 315.217 736.112 317.809 736.112C320.401 736.112 322.705 736.8 324.721 738.176C326.769 739.552 328.369 741.536 329.521 744.128C330.673 746.688 331.249 749.712 331.249 753.2C331.249 756.688 330.673 759.728 329.521 762.32C328.369 764.88 326.769 766.848 324.721 768.224C322.705 769.6 320.401 770.288 317.809 770.288ZM317.809 767.12C319.761 767.12 321.473 766.576 322.945 765.488C324.449 764.4 325.617 762.816 326.449 760.736C327.281 758.656 327.697 756.144 327.697 753.2C327.697 750.256 327.281 747.744 326.449 745.664C325.617 743.584 324.449 742 322.945 740.912C321.473 739.824 319.761 739.28 317.809 739.28C315.857 739.28 314.129 739.824 312.625 740.912C311.153 742 310.001 743.584 309.169 745.664C308.337 747.744 307.921 750.256 307.921 753.2C307.921 756.144 308.337 758.656 309.169 760.736C310.001 762.816 311.153 764.4 312.625 765.488C314.129 766.576 315.857 767.12 317.809 767.12ZM346.662 736.112C351.11 736.112 354.518 737.584 356.886 740.528C359.254 743.44 360.438 747.568 360.438 752.912C360.438 756.656 359.798 759.824 358.518 762.416C357.238 765.008 355.446 766.976 353.142 768.32C350.838 769.632 348.15 770.288 345.078 770.288C341.75 770.288 339.094 769.68 337.11 768.464L338.502 765.68C340.102 766.736 342.278 767.264 345.03 767.264C348.742 767.264 351.654 766.096 353.766 763.76C355.878 761.392 356.934 757.968 356.934 753.488C356.934 752.656 356.886 751.744 356.79 750.752C355.958 752.576 354.63 754 352.806 755.024C350.982 756.016 348.886 756.512 346.518 756.512C344.31 756.512 342.342 756.096 340.614 755.264C338.918 754.432 337.59 753.264 336.63 751.76C335.67 750.224 335.19 748.448 335.19 746.432C335.19 744.384 335.686 742.576 336.678 741.008C337.67 739.44 339.03 738.24 340.758 737.408C342.518 736.544 344.486 736.112 346.662 736.112ZM347.046 753.584C348.742 753.584 350.23 753.264 351.51 752.624C352.822 751.984 353.846 751.104 354.582 749.984C355.318 748.864 355.686 747.616 355.686 746.24C355.686 744.96 355.334 743.776 354.63 742.688C353.958 741.6 352.95 740.72 351.606 740.048C350.262 739.376 348.662 739.04 346.806 739.04C344.374 739.04 342.39 739.712 340.854 741.056C339.35 742.368 338.598 744.128 338.598 746.336C338.598 748.544 339.35 750.304 340.854 751.616C342.39 752.928 344.454 753.584 347.046 753.584Z" fill="black"/>
<path d="M2643.75 471.928V475H2620.18V472.552L2634.15 458.872C2635.91 457.144 2637.1 455.656 2637.7 454.408C2638.34 453.128 2638.66 451.848 2638.66 450.568C2638.66 448.584 2637.98 447.048 2636.6 445.96C2635.26 444.84 2633.32 444.28 2630.79 444.28C2626.86 444.28 2623.8 445.528 2621.62 448.024L2619.18 445.912C2620.49 444.376 2622.15 443.192 2624.17 442.36C2626.22 441.528 2628.52 441.112 2631.08 441.112C2634.5 441.112 2637.21 441.928 2639.19 443.56C2641.21 445.16 2642.22 447.368 2642.22 450.184C2642.22 451.912 2641.83 453.576 2641.06 455.176C2640.3 456.776 2638.84 458.616 2636.7 460.696L2625.27 471.928H2643.75ZM2661.29 475.288C2658.7 475.288 2656.38 474.6 2654.33 473.224C2652.32 471.848 2650.73 469.88 2649.58 467.32C2648.46 464.728 2647.9 461.688 2647.9 458.2C2647.9 454.712 2648.46 451.688 2649.58 449.128C2650.73 446.536 2652.32 444.552 2654.33 443.176C2656.38 441.8 2658.7 441.112 2661.29 441.112C2663.89 441.112 2666.19 441.8 2668.21 443.176C2670.25 444.552 2671.85 446.536 2673.01 449.128C2674.16 451.688 2674.73 454.712 2674.73 458.2C2674.73 461.688 2674.16 464.728 2673.01 467.32C2671.85 469.88 2670.25 471.848 2668.21 473.224C2666.19 474.6 2663.89 475.288 2661.29 475.288ZM2661.29 472.12C2663.25 472.12 2664.96 471.576 2666.43 470.488C2667.93 469.4 2669.1 467.816 2669.93 465.736C2670.77 463.656 2671.18 461.144 2671.18 458.2C2671.18 455.256 2670.77 452.744 2669.93 450.664C2669.1 448.584 2667.93 447 2666.43 445.912C2664.96 444.824 2663.25 444.28 2661.29 444.28C2659.34 444.28 2657.61 444.824 2656.11 445.912C2654.64 447 2653.49 448.584 2652.65 450.664C2651.82 452.744 2651.41 455.256 2651.41 458.2C2651.41 461.144 2651.82 463.656 2652.65 465.736C2653.49 467.816 2654.64 469.4 2656.11 470.488C2657.61 471.576 2659.34 472.12 2661.29 472.12ZM2688.9 441.4V475H2685.45V444.472H2677.53V441.4H2688.9ZM2710.85 454.888C2713.06 454.888 2715.01 455.304 2716.71 456.136C2718.44 456.968 2719.78 458.152 2720.74 459.688C2721.7 461.192 2722.18 462.952 2722.18 464.968C2722.18 467.016 2721.69 468.824 2720.69 470.392C2719.7 471.96 2718.33 473.176 2716.57 474.04C2714.84 474.872 2712.89 475.288 2710.71 475.288C2706.26 475.288 2702.85 473.832 2700.49 470.92C2698.12 467.976 2696.93 463.832 2696.93 458.488C2696.93 454.744 2697.57 451.576 2698.85 448.984C2700.13 446.392 2701.93 444.44 2704.23 443.128C2706.53 441.784 2709.22 441.112 2712.29 441.112C2715.62 441.112 2718.28 441.72 2720.26 442.936L2718.87 445.72C2717.27 444.664 2715.09 444.136 2712.34 444.136C2708.63 444.136 2705.72 445.32 2703.61 447.688C2701.49 450.024 2700.44 453.432 2700.44 457.912C2700.44 458.712 2700.49 459.624 2700.58 460.648C2701.41 458.824 2702.74 457.416 2704.57 456.424C2706.39 455.4 2708.49 454.888 2710.85 454.888ZM2710.57 472.36C2713 472.36 2714.97 471.704 2716.47 470.392C2718.01 469.048 2718.77 467.272 2718.77 465.064C2718.77 462.856 2718.01 461.096 2716.47 459.784C2714.97 458.472 2712.92 457.816 2710.33 457.816C2708.63 457.816 2707.13 458.136 2705.81 458.776C2704.53 459.416 2703.53 460.296 2702.79 461.416C2702.05 462.536 2701.69 463.784 2701.69 465.16C2701.69 466.44 2702.02 467.624 2702.69 468.712C2703.4 469.8 2704.42 470.68 2705.77 471.352C2707.11 472.024 2708.71 472.36 2710.57 472.36Z" fill="black"/>
<path d="M511.486 471.928V475H487.918V472.552L501.886 458.872C503.646 457.144 504.83 455.656 505.438 454.408C506.078 453.128 506.398 451.848 506.398 450.568C506.398 448.584 505.71 447.048 504.334 445.96C502.99 444.84 501.054 444.28 498.526 444.28C494.59 444.28 491.534 445.528 489.358 448.024L486.91 445.912C488.222 444.376 489.886 443.192 491.902 442.36C493.95 441.528 496.254 441.112 498.814 441.112C502.238 441.112 504.942 441.928 506.926 443.56C508.942 445.16 509.95 447.368 509.95 450.184C509.95 451.912 509.566 453.576 508.798 455.176C508.03 456.776 506.574 458.616 504.43 460.696L493.006 471.928H511.486ZM529.028 475.288C526.436 475.288 524.116 474.6 522.068 473.224C520.052 471.848 518.468 469.88 517.316 467.32C516.196 464.728 515.636 461.688 515.636 458.2C515.636 454.712 516.196 451.688 517.316 449.128C518.468 446.536 520.052 444.552 522.068 443.176C524.116 441.8 526.436 441.112 529.028 441.112C531.62 441.112 533.924 441.8 535.94 443.176C537.988 444.552 539.588 446.536 540.74 449.128C541.892 451.688 542.468 454.712 542.468 458.2C542.468 461.688 541.892 464.728 540.74 467.32C539.588 469.88 537.988 471.848 535.94 473.224C533.924 474.6 531.62 475.288 529.028 475.288ZM529.028 472.12C530.98 472.12 532.692 471.576 534.164 470.488C535.668 469.4 536.836 467.816 537.668 465.736C538.5 463.656 538.916 461.144 538.916 458.2C538.916 455.256 538.5 452.744 537.668 450.664C536.836 448.584 535.668 447 534.164 445.912C532.692 444.824 530.98 444.28 529.028 444.28C527.076 444.28 525.348 444.824 523.844 445.912C522.372 447 521.22 448.584 520.388 450.664C519.556 452.744 519.14 455.256 519.14 458.2C519.14 461.144 519.556 463.656 520.388 465.736C521.22 467.816 522.372 469.4 523.844 470.488C525.348 471.576 527.076 472.12 529.028 472.12ZM556.635 441.4V475H553.179V444.472H545.259V441.4H556.635ZM578.059 475.288C575.467 475.288 573.147 474.6 571.099 473.224C569.083 471.848 567.499 469.88 566.347 467.32C565.227 464.728 564.667 461.688 564.667 458.2C564.667 454.712 565.227 451.688 566.347 449.128C567.499 446.536 569.083 444.552 571.099 443.176C573.147 441.8 575.467 441.112 578.059 441.112C580.651 441.112 582.955 441.8 584.971 443.176C587.019 444.552 588.619 446.536 589.771 449.128C590.923 451.688 591.499 454.712 591.499 458.2C591.499 461.688 590.923 464.728 589.771 467.32C588.619 469.88 587.019 471.848 584.971 473.224C582.955 474.6 580.651 475.288 578.059 475.288ZM578.059 472.12C580.011 472.12 581.723 471.576 583.195 470.488C584.699 469.4 585.867 467.816 586.699 465.736C587.531 463.656 587.947 461.144 587.947 458.2C587.947 455.256 587.531 452.744 586.699 450.664C585.867 448.584 584.699 447 583.195 445.912C581.723 444.824 580.011 444.28 578.059 444.28C576.107 444.28 574.379 444.824 572.875 445.912C571.403 447 570.251 448.584 569.419 450.664C568.587 452.744 568.171 455.256 568.171 458.2C568.171 461.144 568.587 463.656 569.419 465.736C570.251 467.816 571.403 469.4 572.875 470.488C574.379 471.576 576.107 472.12 578.059 472.12Z" fill="black"/>
<path d="M2345.78 242.928V246H2322.22V243.552L2336.18 229.872C2337.94 228.144 2339.13 226.656 2339.74 225.408C2340.38 224.128 2340.7 222.848 2340.7 221.568C2340.7 219.584 2340.01 218.048 2338.63 216.96C2337.29 215.84 2335.35 215.28 2332.82 215.28C2328.89 215.28 2325.83 216.528 2323.66 219.024L2321.21 216.912C2322.52 215.376 2324.18 214.192 2326.2 213.36C2328.25 212.528 2330.55 212.112 2333.11 212.112C2336.54 212.112 2339.24 212.928 2341.22 214.56C2343.24 216.16 2344.25 218.368 2344.25 221.184C2344.25 222.912 2343.86 224.576 2343.1 226.176C2342.33 227.776 2340.87 229.616 2338.73 231.696L2327.3 242.928H2345.78ZM2363.33 246.288C2360.73 246.288 2358.41 245.6 2356.37 244.224C2354.35 242.848 2352.77 240.88 2351.61 238.32C2350.49 235.728 2349.93 232.688 2349.93 229.2C2349.93 225.712 2350.49 222.688 2351.61 220.128C2352.77 217.536 2354.35 215.552 2356.37 214.176C2358.41 212.8 2360.73 212.112 2363.33 212.112C2365.92 212.112 2368.22 212.8 2370.24 214.176C2372.29 215.552 2373.89 217.536 2375.04 220.128C2376.19 222.688 2376.77 225.712 2376.77 229.2C2376.77 232.688 2376.19 235.728 2375.04 238.32C2373.89 240.88 2372.29 242.848 2370.24 244.224C2368.22 245.6 2365.92 246.288 2363.33 246.288ZM2363.33 243.12C2365.28 243.12 2366.99 242.576 2368.46 241.488C2369.97 240.4 2371.13 238.816 2371.97 236.736C2372.8 234.656 2373.21 232.144 2373.21 229.2C2373.21 226.256 2372.8 223.744 2371.97 221.664C2371.13 219.584 2369.97 218 2368.46 216.912C2366.99 215.824 2365.28 215.28 2363.33 215.28C2361.37 215.28 2359.65 215.824 2358.14 216.912C2356.67 218 2355.52 219.584 2354.69 221.664C2353.85 223.744 2353.44 226.256 2353.44 229.2C2353.44 232.144 2353.85 234.656 2354.69 236.736C2355.52 238.816 2356.67 240.4 2358.14 241.488C2359.65 242.576 2361.37 243.12 2363.33 243.12ZM2390.93 212.4V246H2387.48V215.472H2379.56V212.4H2390.93ZM2407.8 226.176C2412.66 226.176 2416.2 227.056 2418.4 228.816C2420.64 230.544 2421.76 232.976 2421.76 236.112C2421.76 238.064 2421.3 239.808 2420.37 241.344C2419.48 242.88 2418.12 244.096 2416.29 244.992C2414.47 245.856 2412.23 246.288 2409.57 246.288C2407.17 246.288 2404.88 245.904 2402.71 245.136C2400.56 244.336 2398.84 243.28 2397.52 241.968L2399.2 239.232C2400.32 240.384 2401.8 241.328 2403.62 242.064C2405.44 242.768 2407.41 243.12 2409.52 243.12C2412.31 243.12 2414.45 242.496 2415.96 241.248C2417.49 240 2418.26 238.336 2418.26 236.256C2418.26 233.952 2417.4 232.208 2415.67 231.024C2413.97 229.84 2411.09 229.248 2407.03 229.248H2399.88L2401.6 212.4H2419.99V215.472H2404.63L2403.48 226.176H2407.8Z" fill="black"/>
<path d="M817.707 242.928V246H794.139V243.552L808.107 229.872C809.867 228.144 811.051 226.656 811.659 225.408C812.299 224.128 812.619 222.848 812.619 221.568C812.619 219.584 811.931 218.048 810.555 216.96C809.211 215.84 807.275 215.28 804.747 215.28C800.811 215.28 797.755 216.528 795.579 219.024L793.131 216.912C794.443 215.376 796.107 214.192 798.123 213.36C800.171 212.528 802.475 212.112 805.035 212.112C808.459 212.112 811.163 212.928 813.147 214.56C815.163 216.16 816.171 218.368 816.171 221.184C816.171 222.912 815.787 224.576 815.019 226.176C814.251 227.776 812.795 229.616 810.651 231.696L799.227 242.928H817.707ZM835.248 246.288C832.656 246.288 830.336 245.6 828.288 244.224C826.272 242.848 824.688 240.88 823.536 238.32C822.416 235.728 821.856 232.688 821.856 229.2C821.856 225.712 822.416 222.688 823.536 220.128C824.688 217.536 826.272 215.552 828.288 214.176C830.336 212.8 832.656 212.112 835.248 212.112C837.84 212.112 840.144 212.8 842.16 214.176C844.208 215.552 845.808 217.536 846.96 220.128C848.112 222.688 848.688 225.712 848.688 229.2C848.688 232.688 848.112 235.728 846.96 238.32C845.808 240.88 844.208 242.848 842.16 244.224C840.144 245.6 837.84 246.288 835.248 246.288ZM835.248 243.12C837.2 243.12 838.912 242.576 840.384 241.488C841.888 240.4 843.056 238.816 843.888 236.736C844.72 234.656 845.136 232.144 845.136 229.2C845.136 226.256 844.72 223.744 843.888 221.664C843.056 219.584 841.888 218 840.384 216.912C838.912 215.824 837.2 215.28 835.248 215.28C833.296 215.28 831.568 215.824 830.064 216.912C828.592 218 827.44 219.584 826.608 221.664C825.776 223.744 825.36 226.256 825.36 229.2C825.36 232.144 825.776 234.656 826.608 236.736C827.44 238.816 828.592 240.4 830.064 241.488C831.568 242.576 833.296 243.12 835.248 243.12ZM862.856 212.4V246H859.4V215.472H851.48V212.4H862.856ZM880.2 212.4V246H876.744V215.472H868.824V212.4H880.2Z" fill="black"/>
<path d="M1991.01 101.928V105H1967.44V102.552L1981.41 88.872C1983.17 87.144 1984.35 85.656 1984.96 84.408C1985.6 83.128 1985.92 81.848 1985.92 80.568C1985.92 78.584 1985.23 77.048 1983.86 75.96C1982.51 74.84 1980.58 74.28 1978.05 74.28C1974.11 74.28 1971.06 75.528 1968.88 78.024L1966.43 75.912C1967.75 74.376 1969.41 73.192 1971.43 72.36C1973.47 71.528 1975.78 71.112 1978.34 71.112C1981.76 71.112 1984.47 71.928 1986.45 73.56C1988.47 75.16 1989.47 77.368 1989.47 80.184C1989.47 81.912 1989.09 83.576 1988.32 85.176C1987.55 86.776 1986.1 88.616 1983.95 90.696L1972.53 101.928H1991.01ZM2008.55 105.288C2005.96 105.288 2003.64 104.6 2001.59 103.224C1999.58 101.848 1997.99 99.88 1996.84 97.32C1995.72 94.728 1995.16 91.688 1995.16 88.2C1995.16 84.712 1995.72 81.688 1996.84 79.128C1997.99 76.536 1999.58 74.552 2001.59 73.176C2003.64 71.8 2005.96 71.112 2008.55 71.112C2011.14 71.112 2013.45 71.8 2015.46 73.176C2017.51 74.552 2019.11 76.536 2020.26 79.128C2021.42 81.688 2021.99 84.712 2021.99 88.2C2021.99 91.688 2021.42 94.728 2020.26 97.32C2019.11 99.88 2017.51 101.848 2015.46 103.224C2013.45 104.6 2011.14 105.288 2008.55 105.288ZM2008.55 102.12C2010.5 102.12 2012.22 101.576 2013.69 100.488C2015.19 99.4 2016.36 97.816 2017.19 95.736C2018.02 93.656 2018.44 91.144 2018.44 88.2C2018.44 85.256 2018.02 82.744 2017.19 80.664C2016.36 78.584 2015.19 77 2013.69 75.912C2012.22 74.824 2010.5 74.28 2008.55 74.28C2006.6 74.28 2004.87 74.824 2003.37 75.912C2001.9 77 2000.74 78.584 1999.91 80.664C1999.08 82.744 1998.66 85.256 1998.66 88.2C1998.66 91.144 1999.08 93.656 1999.91 95.736C2000.74 97.816 2001.9 99.4 2003.37 100.488C2004.87 101.576 2006.6 102.12 2008.55 102.12ZM2036.16 71.4V105H2032.7V74.472H2024.78V71.4H2036.16ZM2072.75 96.168H2066.03V105H2062.58V96.168H2043.62V93.672L2061.42 71.4H2065.26L2048.08 93.096H2062.67V85.32H2066.03V93.096H2072.75V96.168Z" fill="black"/>
<path d="M1164.74 101.928V105H1141.17V102.552L1155.14 88.872C1156.9 87.144 1158.08 85.656 1158.69 84.408C1159.33 83.128 1159.65 81.848 1159.65 80.568C1159.65 78.584 1158.96 77.048 1157.58 75.96C1156.24 74.84 1154.3 74.28 1151.78 74.28C1147.84 74.28 1144.78 75.528 1142.61 78.024L1140.16 75.912C1141.47 74.376 1143.14 73.192 1145.15 72.36C1147.2 71.528 1149.5 71.112 1152.06 71.112C1155.49 71.112 1158.19 71.928 1160.18 73.56C1162.19 75.16 1163.2 77.368 1163.2 80.184C1163.2 81.912 1162.82 83.576 1162.05 85.176C1161.28 86.776 1159.82 88.616 1157.68 90.696L1146.26 101.928H1164.74ZM1182.28 105.288C1179.69 105.288 1177.37 104.6 1175.32 103.224C1173.3 101.848 1171.72 99.88 1170.57 97.32C1169.45 94.728 1168.89 91.688 1168.89 88.2C1168.89 84.712 1169.45 81.688 1170.57 79.128C1171.72 76.536 1173.3 74.552 1175.32 73.176C1177.37 71.8 1179.69 71.112 1182.28 71.112C1184.87 71.112 1187.17 71.8 1189.19 73.176C1191.24 74.552 1192.84 76.536 1193.99 79.128C1195.14 81.688 1195.72 84.712 1195.72 88.2C1195.72 91.688 1195.14 94.728 1193.99 97.32C1192.84 99.88 1191.24 101.848 1189.19 103.224C1187.17 104.6 1184.87 105.288 1182.28 105.288ZM1182.28 102.12C1184.23 102.12 1185.94 101.576 1187.41 100.488C1188.92 99.4 1190.09 97.816 1190.92 95.736C1191.75 93.656 1192.17 91.144 1192.17 88.2C1192.17 85.256 1191.75 82.744 1190.92 80.664C1190.09 78.584 1188.92 77 1187.41 75.912C1185.94 74.824 1184.23 74.28 1182.28 74.28C1180.33 74.28 1178.6 74.824 1177.09 75.912C1175.62 77 1174.47 78.584 1173.64 80.664C1172.81 82.744 1172.39 85.256 1172.39 88.2C1172.39 91.144 1172.81 93.656 1173.64 95.736C1174.47 97.816 1175.62 99.4 1177.09 100.488C1178.6 101.576 1180.33 102.12 1182.28 102.12ZM1209.89 71.4V105H1206.43V74.472H1198.51V71.4H1209.89ZM1240.86 101.928V105H1217.29V102.552L1231.26 88.872C1233.02 87.144 1234.21 85.656 1234.81 84.408C1235.45 83.128 1235.77 81.848 1235.77 80.568C1235.77 78.584 1235.09 77.048 1233.71 75.96C1232.37 74.84 1230.43 74.28 1227.9 74.28C1223.97 74.28 1220.91 75.528 1218.73 78.024L1216.29 75.912C1217.6 74.376 1219.26 73.192 1221.28 72.36C1223.33 71.528 1225.63 71.112 1228.19 71.112C1231.61 71.112 1234.32 71.928 1236.3 73.56C1238.32 75.16 1239.33 77.368 1239.33 80.184C1239.33 81.912 1238.94 83.576 1238.17 85.176C1237.41 86.776 1235.95 88.616 1233.81 90.696L1222.38 101.928H1240.86Z" fill="black"/>
<path d="M1571.83 43.928V47H1548.26V44.552L1562.23 30.872C1563.99 29.144 1565.17 27.656 1565.78 26.408C1566.42 25.128 1566.74 23.848 1566.74 22.568C1566.74 20.584 1566.05 19.048 1564.68 17.96C1563.33 16.84 1561.4 16.28 1558.87 16.28C1554.93 16.28 1551.88 17.528 1549.7 20.024L1547.25 17.912C1548.57 16.376 1550.23 15.192 1552.25 14.36C1554.29 13.528 1556.6 13.112 1559.16 13.112C1562.58 13.112 1565.29 13.928 1567.27 15.56C1569.29 17.16 1570.29 19.368 1570.29 22.184C1570.29 23.912 1569.91 25.576 1569.14 27.176C1568.37 28.776 1566.92 30.616 1564.77 32.696L1553.35 43.928H1571.83ZM1589.37 47.288C1586.78 47.288 1584.46 46.6 1582.41 45.224C1580.4 43.848 1578.81 41.88 1577.66 39.32C1576.54 36.728 1575.98 33.688 1575.98 30.2C1575.98 26.712 1576.54 23.688 1577.66 21.128C1578.81 18.536 1580.4 16.552 1582.41 15.176C1584.46 13.8 1586.78 13.112 1589.37 13.112C1591.96 13.112 1594.27 13.8 1596.28 15.176C1598.33 16.552 1599.93 18.536 1601.08 21.128C1602.24 23.688 1602.81 26.712 1602.81 30.2C1602.81 33.688 1602.24 36.728 1601.08 39.32C1599.93 41.88 1598.33 43.848 1596.28 45.224C1594.27 46.6 1591.96 47.288 1589.37 47.288ZM1589.37 44.12C1591.32 44.12 1593.04 43.576 1594.51 42.488C1596.01 41.4 1597.18 39.816 1598.01 37.736C1598.84 35.656 1599.26 33.144 1599.26 30.2C1599.26 27.256 1598.84 24.744 1598.01 22.664C1597.18 20.584 1596.01 19 1594.51 17.912C1593.04 16.824 1591.32 16.28 1589.37 16.28C1587.42 16.28 1585.69 16.824 1584.19 17.912C1582.72 19 1581.56 20.584 1580.73 22.664C1579.9 24.744 1579.48 27.256 1579.48 30.2C1579.48 33.144 1579.9 35.656 1580.73 37.736C1581.56 39.816 1582.72 41.4 1584.19 42.488C1585.69 43.576 1587.42 44.12 1589.37 44.12ZM1616.98 13.4V47H1613.52V16.472H1605.6V13.4H1616.98ZM1636.44 27.8C1639.96 27.992 1642.63 28.952 1644.45 30.68C1646.31 32.376 1647.24 34.6 1647.24 37.352C1647.24 39.272 1646.77 40.984 1645.84 42.488C1644.92 43.96 1643.54 45.128 1641.72 45.992C1639.89 46.856 1637.67 47.288 1635.04 47.288C1632.61 47.288 1630.31 46.904 1628.13 46.136C1625.99 45.336 1624.26 44.28 1622.95 42.968L1624.63 40.232C1625.75 41.384 1627.24 42.328 1629.09 43.064C1630.95 43.768 1632.93 44.12 1635.04 44.12C1637.8 44.12 1639.92 43.528 1641.43 42.344C1642.93 41.128 1643.68 39.464 1643.68 37.352C1643.68 35.272 1642.93 33.64 1641.43 32.456C1639.92 31.272 1637.65 30.68 1634.61 30.68H1632.21V28.136L1641.52 16.472H1624.34V13.4H1645.94V15.848L1636.44 27.8Z" fill="black"/>
<circle cx="1604" cy="108" r="15" fill="#858585"/>
<circle cx="1957.37" cy="154.371" r="15" transform="rotate(15 1957.37 154.371)" fill="#858585"/>
<circle cx="2285.49" cy="289.49" r="15" transform="rotate(30 2285.49 289.49)" fill="#858585"/>
<circle cx="2567.21" cy="505.213" r="15" transform="rotate(45 2567.21 505.213)" fill="#858585"/>
<circle cx="2783.49" cy="787.49" r="15" transform="rotate(60 2783.49 787.49)" fill="#858585"/>
<circle cx="2919.37" cy="1115.37" r="15" transform="rotate(75 2919.37 1115.37)" fill="#858585"/>
<circle cx="2966" cy="1467" r="15" transform="rotate(90 2966 1467)" fill="#858585"/>
<circle cx="2919.37" cy="1818.37" r="15" transform="rotate(105 2919.37 1818.37)" fill="#858585"/>
<circle r="15" transform="matrix(-0.965926 0.258819 0.258819 0.965926 1251.63 154.371)" fill="#858585"/>
<circle r="15" transform="matrix(-0.866025 0.5 0.5 0.866025 923.51 289.49)" fill="#858585"/>
<circle r="15" transform="matrix(-0.707107 0.707107 0.707107 0.707107 641.787 505.213)" fill="#858585"/>
<circle r="15" transform="matrix(-0.5 0.866025 0.866025 0.5 425.51 787.49)" fill="#858585"/>
<circle r="15" transform="matrix(-0.258819 0.965926 0.965926 0.258819 289.628 1115.37)" fill="#858585"/>
<mask id="mask0_140_436" style="mask-type:alpha" maskUnits="userSpaceOnUse" x="275" y="41" width="2661" height="1785">
<path d="M277 1823L1605 1467L2933 1823L2903 252L1605 44L277 252V1823Z" fill="#C4C4C4" stroke="black" stroke-width="4"/>
</mask>
<g mask="url(#mask0_140_436)">
<circle cx="1604.5" cy="1467.5" r="1237.5" stroke="#858585" stroke-width="4" stroke-dasharray="8 8"/>
<circle cx="1605" cy="1467" r="825" stroke="#858585" stroke-width="4" stroke-dasharray="8 8"/>
<circle cx="1604.5" cy="1467.5" r="412.5" stroke="#858585" stroke-width="4" stroke-dasharray="8 8"/>
</g>
<circle r="15" transform="matrix(0 -1 -1 0 291 1817.74)" fill="#858585"/>
<circle r="15" transform="matrix(-0.258819 -0.965926 -0.965926 0.258819 244.371 1466.37)" fill="#858585"/>
</svg>
