<svg width="3193" height="1904" viewBox="0 0 3193 1904" fill="none" xmlns="http://www.w3.org/2000/svg">
<g clip-path="url(#clip0_175_908)">
<path d="M1604.79 1468.5L414 781" stroke="white" stroke-width="4" stroke-dasharray="8 8"/>
<path d="M1603.88 1468.15L1248 140" stroke="white" stroke-width="4" stroke-dasharray="8 8"/>
<path d="M1604.5 1467.79L917 277" stroke="white" stroke-width="4" stroke-dasharray="8 8"/>
<path d="M1605 1468L633 496" stroke="white" stroke-width="4" stroke-dasharray="8 8"/>
<path d="M1605.15 1466.88L277 1111" stroke="white" stroke-width="4" stroke-dasharray="8 8"/>
<path d="M1605.15 1467L277 1822.88" stroke="white" stroke-width="4" stroke-dasharray="8 8"/>
<path d="M1605 1467H2980" stroke="white" stroke-width="4" stroke-dasharray="8 8"/>
<path d="M230 1467H1605" stroke="white" stroke-width="4" stroke-dasharray="8 8"/>
<path d="M1605 1467.27L2577.27 495" stroke="white" stroke-width="4" stroke-dasharray="8 8"/>
<path d="M1605 1467.5L2795.78 780" stroke="white" stroke-width="4" stroke-dasharray="8 8"/>
<path d="M1605 1468.15L1960.88 140" stroke="white" stroke-width="4" stroke-dasharray="8 8"/>
<path d="M1605 1466.88L2933.15 1111" stroke="white" stroke-width="4" stroke-dasharray="8 8"/>
<path d="M1605 1467L2933.15 1822.88" stroke="white" stroke-width="4" stroke-dasharray="8 8"/>
<path d="M1605 1467.78L2292.5 277" stroke="white" stroke-width="4" stroke-dasharray="8 8"/>
<path d="M1604 1468V93" stroke="white" stroke-width="4" stroke-dasharray="8 8"/>
<circle cx="1604" cy="108" r="15" fill="white"/>
<circle cx="1957.37" cy="154.371" r="15" transform="rotate(15 1957.37 154.371)" fill="white"/>
<circle cx="2285.49" cy="289.49" r="15" transform="rotate(30 2285.49 289.49)" fill="white"/>
<circle cx="2567.21" cy="505.213" r="15" transform="rotate(45 2567.21 505.213)" fill="white"/>
<circle cx="2783.49" cy="787.49" r="15" transform="rotate(60 2783.49 787.49)" fill="white"/>
<circle cx="2919.37" cy="1115.37" r="15" transform="rotate(75 2919.37 1115.37)" fill="white"/>
<circle cx="2966" cy="1467" r="15" transform="rotate(90 2966 1467)" fill="white"/>
<circle cx="2919.37" cy="1818.37" r="15" transform="rotate(105 2919.37 1818.37)" fill="white"/>
<circle r="15" transform="matrix(-0.965926 0.258819 0.258819 0.965926 1251.63 154.371)" fill="white"/>
<circle r="15" transform="matrix(-0.866025 0.5 0.5 0.866025 923.51 289.49)" fill="white"/>
<circle r="15" transform="matrix(-0.707107 0.707107 0.707107 0.707107 641.787 505.213)" fill="white"/>
<circle r="15" transform="matrix(-0.5 0.866025 0.866025 0.5 425.51 787.49)" fill="white"/>
<circle r="15" transform="matrix(-0.258819 0.965926 0.965926 0.258819 289.628 1115.37)" fill="white"/>
<mask id="mask0_175_908" style="mask-type:alpha" maskUnits="userSpaceOnUse" x="275" y="41" width="2661" height="1785">
<path d="M277 1823L1605 1467L2933 1823L2903 252L1605 44L277 252V1823Z" fill="#C4C4C4" stroke="black" stroke-width="4"/>
</mask>
<g mask="url(#mask0_175_908)">
<circle cx="1604.5" cy="1467.5" r="1237.5" stroke="white" stroke-width="4" stroke-dasharray="8 8"/>
<circle cx="1605" cy="1467" r="825" stroke="white" stroke-width="4" stroke-dasharray="8 8"/>
<circle cx="1604.5" cy="1467.5" r="412.5" stroke="white" stroke-width="4" stroke-dasharray="8 8"/>
</g>
<circle r="15" transform="matrix(0 -1 -1 0 291 1817.74)" fill="white"/>
<circle r="15" transform="matrix(-0.258819 -0.965926 -0.965926 0.258819 244.371 1466.37)" fill="white"/>
<path d="M108.324 1780V1773.91L124.483 1758.07C126.028 1756.51 127.316 1755.12 128.347 1753.91C129.377 1752.7 130.15 1751.52 130.665 1750.39C131.18 1749.25 131.438 1748.04 131.438 1746.75C131.438 1745.28 131.104 1744.02 130.438 1742.98C129.771 1741.92 128.854 1741.1 127.688 1740.52C126.521 1739.95 125.195 1739.66 123.71 1739.66C122.18 1739.66 120.839 1739.98 119.688 1740.61C118.536 1741.23 117.642 1742.12 117.006 1743.27C116.384 1744.42 116.074 1745.8 116.074 1747.39H108.051C108.051 1744.43 108.725 1741.86 110.074 1739.68C111.422 1737.5 113.278 1735.81 115.642 1734.61C118.021 1733.42 120.748 1732.82 123.824 1732.82C126.945 1732.82 129.688 1733.4 132.051 1734.57C134.415 1735.73 136.248 1737.33 137.551 1739.36C138.869 1741.39 139.528 1743.71 139.528 1746.32C139.528 1748.06 139.195 1749.77 138.528 1751.45C137.862 1753.14 136.688 1755 135.006 1757.05C133.339 1759.09 130.998 1761.57 127.983 1764.48L119.96 1772.64V1772.95H140.233V1780H108.324ZM165.278 1780.89C161.536 1780.89 158.324 1779.94 155.642 1778.05C152.975 1776.14 150.922 1773.39 149.483 1769.8C148.059 1766.19 147.347 1761.85 147.347 1756.77C147.362 1751.7 148.081 1747.38 149.506 1743.82C150.945 1740.24 152.998 1737.52 155.665 1735.64C158.347 1733.76 161.551 1732.82 165.278 1732.82C169.006 1732.82 172.21 1733.76 174.892 1735.64C177.574 1737.52 179.627 1740.24 181.051 1743.82C182.491 1747.39 183.21 1751.71 183.21 1756.77C183.21 1761.86 182.491 1766.21 181.051 1769.82C179.627 1773.41 177.574 1776.15 174.892 1778.05C172.225 1779.94 169.021 1780.89 165.278 1780.89ZM165.278 1773.77C168.188 1773.77 170.483 1772.34 172.165 1769.48C173.862 1766.6 174.71 1762.36 174.71 1756.77C174.71 1753.08 174.324 1749.97 173.551 1747.45C172.778 1744.94 171.688 1743.05 170.278 1741.77C168.869 1740.48 167.203 1739.84 165.278 1739.84C162.384 1739.84 160.097 1741.28 158.415 1744.16C156.733 1747.02 155.884 1751.23 155.869 1756.77C155.854 1760.48 156.225 1763.61 156.983 1766.14C157.756 1768.67 158.847 1770.58 160.256 1771.86C161.665 1773.14 163.339 1773.77 165.278 1773.77ZM207.966 1780.89C204.223 1780.89 201.011 1779.94 198.33 1778.05C195.663 1776.14 193.61 1773.39 192.17 1769.8C190.746 1766.19 190.034 1761.85 190.034 1756.77C190.049 1751.7 190.769 1747.38 192.193 1743.82C193.633 1740.24 195.686 1737.52 198.352 1735.64C201.034 1733.76 204.239 1732.82 207.966 1732.82C211.693 1732.82 214.898 1733.76 217.58 1735.64C220.261 1737.52 222.314 1740.24 223.739 1743.82C225.178 1747.39 225.898 1751.71 225.898 1756.77C225.898 1761.86 225.178 1766.21 223.739 1769.82C222.314 1773.41 220.261 1776.15 217.58 1778.05C214.913 1779.94 211.708 1780.89 207.966 1780.89ZM207.966 1773.77C210.875 1773.77 213.17 1772.34 214.852 1769.48C216.549 1766.6 217.398 1762.36 217.398 1756.77C217.398 1753.08 217.011 1749.97 216.239 1747.45C215.466 1744.94 214.375 1743.05 212.966 1741.77C211.557 1740.48 209.89 1739.84 207.966 1739.84C205.072 1739.84 202.784 1741.28 201.102 1744.16C199.42 1747.02 198.572 1751.23 198.557 1756.77C198.542 1760.48 198.913 1763.61 199.67 1766.14C200.443 1768.67 201.534 1770.58 202.943 1771.86C204.352 1773.14 206.027 1773.77 207.966 1773.77ZM250.494 1780.64C248.267 1780.62 246.093 1780.23 243.972 1779.48C241.85 1778.7 239.941 1777.45 238.244 1775.73C236.547 1773.98 235.199 1771.67 234.199 1768.8C233.199 1765.9 232.706 1762.32 232.722 1758.05C232.722 1754.06 233.146 1750.51 233.994 1747.39C234.843 1744.27 236.062 1741.63 237.653 1739.48C239.244 1737.31 241.161 1735.66 243.403 1734.52C245.661 1733.39 248.184 1732.82 250.972 1732.82C253.896 1732.82 256.487 1733.39 258.744 1734.55C261.017 1735.7 262.85 1737.27 264.244 1739.27C265.638 1741.26 266.502 1743.5 266.835 1746H258.54C258.116 1744.21 257.244 1742.79 255.926 1741.73C254.623 1740.65 252.972 1740.11 250.972 1740.11C247.744 1740.11 245.259 1741.52 243.517 1744.32C241.79 1747.12 240.919 1750.97 240.903 1755.86H241.222C241.964 1754.53 242.926 1753.39 244.108 1752.43C245.29 1751.48 246.623 1750.74 248.108 1750.23C249.608 1749.7 251.191 1749.43 252.858 1749.43C255.585 1749.43 258.032 1750.08 260.199 1751.39C262.381 1752.69 264.108 1754.48 265.381 1756.77C266.653 1759.05 267.282 1761.65 267.267 1764.59C267.282 1767.65 266.585 1770.4 265.176 1772.84C263.767 1775.27 261.805 1777.17 259.29 1778.57C256.775 1779.96 253.843 1780.65 250.494 1780.64ZM250.449 1773.82C252.1 1773.82 253.578 1773.42 254.881 1772.61C256.184 1771.81 257.214 1770.73 257.972 1769.36C258.729 1768 259.1 1766.47 259.085 1764.77C259.1 1763.11 258.737 1761.6 257.994 1760.25C257.267 1758.9 256.259 1757.83 254.972 1757.05C253.684 1756.26 252.214 1755.86 250.562 1755.86C249.335 1755.86 248.191 1756.1 247.131 1756.57C246.07 1757.04 245.146 1757.69 244.358 1758.52C243.57 1759.34 242.949 1760.3 242.494 1761.39C242.055 1762.46 241.828 1763.61 241.812 1764.84C241.828 1766.46 242.206 1767.95 242.949 1769.32C243.691 1770.68 244.714 1771.77 246.017 1772.59C247.32 1773.41 248.797 1773.82 250.449 1773.82Z" fill="white"/>
<path d="M77.9176 1425V1418.91L94.0767 1403.07C95.6222 1401.51 96.91 1400.12 97.9403 1398.91C98.9706 1397.7 99.7434 1396.52 100.259 1395.39C100.774 1394.25 101.031 1393.04 101.031 1391.75C101.031 1390.28 100.698 1389.02 100.031 1387.98C99.3646 1386.92 98.4479 1386.1 97.2812 1385.52C96.1146 1384.95 94.7888 1384.66 93.304 1384.66C91.7737 1384.66 90.4328 1384.98 89.2812 1385.61C88.1297 1386.23 87.2358 1387.12 86.5994 1388.27C85.9782 1389.42 85.6676 1390.8 85.6676 1392.39H77.6449C77.6449 1389.43 78.3191 1386.86 79.6676 1384.68C81.0161 1382.5 82.8722 1380.81 85.2358 1379.61C87.6146 1378.42 90.3419 1377.82 93.4176 1377.82C96.5388 1377.82 99.2813 1378.4 101.645 1379.57C104.009 1380.73 105.842 1382.33 107.145 1384.36C108.463 1386.39 109.122 1388.71 109.122 1391.32C109.122 1393.06 108.789 1394.77 108.122 1396.45C107.455 1398.14 106.281 1400 104.599 1402.05C102.933 1404.09 100.592 1406.57 97.5767 1409.48L89.554 1417.64V1417.95H109.827V1425H77.9176ZM134.872 1425.89C131.13 1425.89 127.918 1424.94 125.236 1423.05C122.569 1421.14 120.516 1418.39 119.077 1414.8C117.652 1411.19 116.94 1406.85 116.94 1401.77C116.955 1396.7 117.675 1392.38 119.099 1388.82C120.539 1385.24 122.592 1382.52 125.259 1380.64C127.94 1378.76 131.145 1377.82 134.872 1377.82C138.599 1377.82 141.804 1378.76 144.486 1380.64C147.168 1382.52 149.221 1385.24 150.645 1388.82C152.084 1392.39 152.804 1396.71 152.804 1401.77C152.804 1406.86 152.084 1411.21 150.645 1414.82C149.221 1418.41 147.168 1421.15 144.486 1423.05C141.819 1424.94 138.615 1425.89 134.872 1425.89ZM134.872 1418.77C137.781 1418.77 140.077 1417.34 141.759 1414.48C143.455 1411.6 144.304 1407.36 144.304 1401.77C144.304 1398.08 143.918 1394.97 143.145 1392.45C142.372 1389.94 141.281 1388.05 139.872 1386.77C138.463 1385.48 136.796 1384.84 134.872 1384.84C131.978 1384.84 129.69 1386.28 128.009 1389.16C126.327 1392.02 125.478 1396.23 125.463 1401.77C125.448 1405.48 125.819 1408.61 126.577 1411.14C127.349 1413.67 128.44 1415.58 129.849 1416.86C131.259 1418.14 132.933 1418.77 134.872 1418.77ZM177.56 1425.89C173.817 1425.89 170.605 1424.94 167.923 1423.05C165.257 1421.14 163.204 1418.39 161.764 1414.8C160.34 1411.19 159.628 1406.85 159.628 1401.77C159.643 1396.7 160.363 1392.38 161.787 1388.82C163.226 1385.24 165.279 1382.52 167.946 1380.64C170.628 1378.76 173.832 1377.82 177.56 1377.82C181.287 1377.82 184.491 1378.76 187.173 1380.64C189.855 1382.52 191.908 1385.24 193.332 1388.82C194.772 1392.39 195.491 1396.71 195.491 1401.77C195.491 1406.86 194.772 1411.21 193.332 1414.82C191.908 1418.41 189.855 1421.15 187.173 1423.05C184.507 1424.94 181.302 1425.89 177.56 1425.89ZM177.56 1418.77C180.469 1418.77 182.764 1417.34 184.446 1414.48C186.143 1411.6 186.991 1407.36 186.991 1401.77C186.991 1398.08 186.605 1394.97 185.832 1392.45C185.06 1389.94 183.969 1388.05 182.56 1386.77C181.151 1385.48 179.484 1384.84 177.56 1384.84C174.666 1384.84 172.378 1386.28 170.696 1389.16C169.014 1392.02 168.166 1396.23 168.151 1401.77C168.135 1405.48 168.507 1408.61 169.264 1411.14C170.037 1413.67 171.128 1415.58 172.537 1416.86C173.946 1418.14 175.62 1418.77 177.56 1418.77ZM203.497 1425L223.293 1385.82V1385.5H200.315V1378.45H232.02V1385.66L212.247 1425H203.497Z" fill="white"/>
<path d="M113.418 1074V1067.91L129.577 1052.07C131.122 1050.51 132.41 1049.12 133.44 1047.91C134.471 1046.7 135.243 1045.52 135.759 1044.39C136.274 1043.25 136.531 1042.04 136.531 1040.75C136.531 1039.28 136.198 1038.02 135.531 1036.98C134.865 1035.92 133.948 1035.1 132.781 1034.52C131.615 1033.95 130.289 1033.66 128.804 1033.66C127.274 1033.66 125.933 1033.98 124.781 1034.61C123.63 1035.23 122.736 1036.12 122.099 1037.27C121.478 1038.42 121.168 1039.8 121.168 1041.39H113.145C113.145 1038.43 113.819 1035.86 115.168 1033.68C116.516 1031.5 118.372 1029.81 120.736 1028.61C123.115 1027.42 125.842 1026.82 128.918 1026.82C132.039 1026.82 134.781 1027.4 137.145 1028.57C139.509 1029.73 141.342 1031.33 142.645 1033.36C143.963 1035.39 144.622 1037.71 144.622 1040.32C144.622 1042.06 144.289 1043.77 143.622 1045.45C142.955 1047.14 141.781 1049 140.099 1051.05C138.433 1053.09 136.092 1055.57 133.077 1058.48L125.054 1066.64V1066.95H145.327V1074H113.418ZM170.372 1074.89C166.63 1074.89 163.418 1073.94 160.736 1072.05C158.069 1070.14 156.016 1067.39 154.577 1063.8C153.152 1060.19 152.44 1055.85 152.44 1050.77C152.455 1045.7 153.175 1041.38 154.599 1037.82C156.039 1034.24 158.092 1031.52 160.759 1029.64C163.44 1027.76 166.645 1026.82 170.372 1026.82C174.099 1026.82 177.304 1027.76 179.986 1029.64C182.668 1031.52 184.721 1034.24 186.145 1037.82C187.584 1041.39 188.304 1045.71 188.304 1050.77C188.304 1055.86 187.584 1060.21 186.145 1063.82C184.721 1067.41 182.668 1070.15 179.986 1072.05C177.319 1073.94 174.115 1074.89 170.372 1074.89ZM170.372 1067.77C173.281 1067.77 175.577 1066.34 177.259 1063.48C178.955 1060.6 179.804 1056.36 179.804 1050.77C179.804 1047.08 179.418 1043.97 178.645 1041.45C177.872 1038.94 176.781 1037.05 175.372 1035.77C173.963 1034.48 172.296 1033.84 170.372 1033.84C167.478 1033.84 165.19 1035.28 163.509 1038.16C161.827 1041.02 160.978 1045.23 160.963 1050.77C160.948 1054.48 161.319 1057.61 162.077 1060.14C162.849 1062.67 163.94 1064.58 165.349 1065.86C166.759 1067.14 168.433 1067.77 170.372 1067.77ZM213.06 1074.89C209.317 1074.89 206.105 1073.94 203.423 1072.05C200.757 1070.14 198.704 1067.39 197.264 1063.8C195.84 1060.19 195.128 1055.85 195.128 1050.77C195.143 1045.7 195.863 1041.38 197.287 1037.82C198.726 1034.24 200.779 1031.52 203.446 1029.64C206.128 1027.76 209.332 1026.82 213.06 1026.82C216.787 1026.82 219.991 1027.76 222.673 1029.64C225.355 1031.52 227.408 1034.24 228.832 1037.82C230.272 1041.39 230.991 1045.71 230.991 1050.77C230.991 1055.86 230.272 1060.21 228.832 1063.82C227.408 1067.41 225.355 1070.15 222.673 1072.05C220.007 1073.94 216.802 1074.89 213.06 1074.89ZM213.06 1067.77C215.969 1067.77 218.264 1066.34 219.946 1063.48C221.643 1060.6 222.491 1056.36 222.491 1050.77C222.491 1047.08 222.105 1043.97 221.332 1041.45C220.56 1038.94 219.469 1037.05 218.06 1035.77C216.651 1034.48 214.984 1033.84 213.06 1033.84C210.166 1033.84 207.878 1035.28 206.196 1038.16C204.514 1041.02 203.666 1045.23 203.651 1050.77C203.635 1054.48 204.007 1057.61 204.764 1060.14C205.537 1062.67 206.628 1064.58 208.037 1065.86C209.446 1067.14 211.12 1067.77 213.06 1067.77ZM255.088 1074.64C251.709 1074.64 248.709 1074.07 246.088 1072.93C243.482 1071.8 241.437 1070.24 239.952 1068.27C238.482 1066.29 237.755 1064.04 237.77 1061.52C237.755 1059.57 238.179 1057.77 239.043 1056.14C239.906 1054.5 241.073 1053.14 242.543 1052.05C244.027 1050.94 245.679 1050.23 247.497 1049.93V1049.61C245.103 1049.08 243.164 1047.86 241.679 1045.95C240.209 1044.03 239.482 1041.81 239.497 1039.3C239.482 1036.9 240.149 1034.77 241.497 1032.89C242.846 1031.01 244.694 1029.53 247.043 1028.45C249.391 1027.36 252.073 1026.82 255.088 1026.82C258.073 1026.82 260.732 1027.36 263.065 1028.45C265.414 1029.53 267.262 1031.01 268.611 1032.89C269.974 1034.77 270.656 1036.9 270.656 1039.3C270.656 1041.81 269.906 1044.03 268.406 1045.95C266.921 1047.86 265.005 1049.08 262.656 1049.61V1049.93C264.474 1050.23 266.111 1050.94 267.565 1052.05C269.035 1053.14 270.202 1054.5 271.065 1056.14C271.944 1057.77 272.384 1059.57 272.384 1061.52C272.384 1064.04 271.641 1066.29 270.156 1068.27C268.671 1070.24 266.626 1071.8 264.02 1072.93C261.429 1074.07 258.452 1074.64 255.088 1074.64ZM255.088 1068.14C256.83 1068.14 258.346 1067.84 259.634 1067.25C260.921 1066.64 261.921 1065.8 262.634 1064.7C263.346 1063.61 263.709 1062.36 263.724 1060.93C263.709 1059.45 263.323 1058.14 262.565 1057C261.823 1055.85 260.8 1054.95 259.497 1054.3C258.209 1053.64 256.74 1053.32 255.088 1053.32C253.421 1053.32 251.937 1053.64 250.634 1054.3C249.33 1054.95 248.3 1055.85 247.543 1057C246.8 1058.14 246.437 1059.45 246.452 1060.93C246.437 1062.36 246.785 1063.61 247.497 1064.7C248.209 1065.78 249.209 1066.62 250.497 1067.23C251.8 1067.83 253.33 1068.14 255.088 1068.14ZM255.088 1046.93C256.512 1046.93 257.77 1046.64 258.861 1046.07C259.967 1045.49 260.838 1044.69 261.474 1043.66C262.111 1042.63 262.437 1041.44 262.452 1040.09C262.437 1038.76 262.118 1037.59 261.497 1036.59C260.876 1035.58 260.012 1034.8 258.906 1034.25C257.8 1033.69 256.527 1033.41 255.088 1033.41C253.618 1033.41 252.323 1033.69 251.202 1034.25C250.096 1034.8 249.232 1035.58 248.611 1036.59C248.005 1037.59 247.709 1038.76 247.724 1040.09C247.709 1041.44 248.012 1042.63 248.634 1043.66C249.27 1044.67 250.141 1045.48 251.247 1046.07C252.368 1046.64 253.649 1046.93 255.088 1046.93Z" fill="white"/>
<path d="M242.324 764V757.909L258.483 742.068C260.028 740.508 261.316 739.121 262.347 737.909C263.377 736.697 264.15 735.523 264.665 734.386C265.18 733.25 265.438 732.038 265.438 730.75C265.438 729.28 265.104 728.023 264.438 726.977C263.771 725.917 262.854 725.098 261.688 724.523C260.521 723.947 259.195 723.659 257.71 723.659C256.18 723.659 254.839 723.977 253.688 724.614C252.536 725.235 251.642 726.121 251.006 727.273C250.384 728.424 250.074 729.795 250.074 731.386H242.051C242.051 728.432 242.725 725.864 244.074 723.682C245.422 721.5 247.278 719.811 249.642 718.614C252.021 717.417 254.748 716.818 257.824 716.818C260.945 716.818 263.688 717.402 266.051 718.568C268.415 719.735 270.248 721.333 271.551 723.364C272.869 725.394 273.528 727.712 273.528 730.318C273.528 732.061 273.195 733.773 272.528 735.455C271.862 737.136 270.688 739 269.006 741.045C267.339 743.091 264.998 745.568 261.983 748.477L253.96 756.636V756.955H274.233V764H242.324ZM299.278 764.886C295.536 764.886 292.324 763.939 289.642 762.045C286.975 760.136 284.922 757.386 283.483 753.795C282.059 750.189 281.347 745.848 281.347 740.773C281.362 735.697 282.081 731.379 283.506 727.818C284.945 724.242 286.998 721.515 289.665 719.636C292.347 717.758 295.551 716.818 299.278 716.818C303.006 716.818 306.21 717.758 308.892 719.636C311.574 721.515 313.627 724.242 315.051 727.818C316.491 731.394 317.21 735.712 317.21 740.773C317.21 745.864 316.491 750.212 315.051 753.818C313.627 757.409 311.574 760.152 308.892 762.045C306.225 763.939 303.021 764.886 299.278 764.886ZM299.278 757.773C302.188 757.773 304.483 756.341 306.165 753.477C307.862 750.598 308.71 746.364 308.71 740.773C308.71 737.076 308.324 733.97 307.551 731.455C306.778 728.939 305.688 727.045 304.278 725.773C302.869 724.485 301.203 723.841 299.278 723.841C296.384 723.841 294.097 725.28 292.415 728.159C290.733 731.023 289.884 735.227 289.869 740.773C289.854 744.485 290.225 747.606 290.983 750.136C291.756 752.667 292.847 754.576 294.256 755.864C295.665 757.136 297.339 757.773 299.278 757.773ZM341.966 764.886C338.223 764.886 335.011 763.939 332.33 762.045C329.663 760.136 327.61 757.386 326.17 753.795C324.746 750.189 324.034 745.848 324.034 740.773C324.049 735.697 324.769 731.379 326.193 727.818C327.633 724.242 329.686 721.515 332.352 719.636C335.034 717.758 338.239 716.818 341.966 716.818C345.693 716.818 348.898 717.758 351.58 719.636C354.261 721.515 356.314 724.242 357.739 727.818C359.178 731.394 359.898 735.712 359.898 740.773C359.898 745.864 359.178 750.212 357.739 753.818C356.314 757.409 354.261 760.152 351.58 762.045C348.913 763.939 345.708 764.886 341.966 764.886ZM341.966 757.773C344.875 757.773 347.17 756.341 348.852 753.477C350.549 750.598 351.398 746.364 351.398 740.773C351.398 737.076 351.011 733.97 350.239 731.455C349.466 728.939 348.375 727.045 346.966 725.773C345.557 724.485 343.89 723.841 341.966 723.841C339.072 723.841 336.784 725.28 335.102 728.159C333.42 731.023 332.572 735.227 332.557 740.773C332.542 744.485 332.913 747.606 333.67 750.136C334.443 752.667 335.534 754.576 336.943 755.864C338.352 757.136 340.027 757.773 341.966 757.773ZM383.608 716.818C385.835 716.833 388.002 717.227 390.108 718C392.229 718.758 394.138 720 395.835 721.727C397.532 723.439 398.881 725.735 399.881 728.614C400.881 731.492 401.381 735.053 401.381 739.295C401.396 743.295 400.972 746.871 400.108 750.023C399.259 753.159 398.04 755.811 396.449 757.977C394.858 760.144 392.941 761.795 390.699 762.932C388.456 764.068 385.934 764.636 383.131 764.636C380.191 764.636 377.585 764.061 375.312 762.909C373.055 761.758 371.229 760.182 369.835 758.182C368.441 756.182 367.585 753.894 367.267 751.318H375.562C375.987 753.167 376.85 754.636 378.153 755.727C379.472 756.803 381.131 757.341 383.131 757.341C386.358 757.341 388.843 755.939 390.585 753.136C392.328 750.333 393.199 746.439 393.199 741.455H392.881C392.138 742.788 391.176 743.939 389.994 744.909C388.813 745.864 387.472 746.598 385.972 747.114C384.487 747.629 382.911 747.886 381.244 747.886C378.517 747.886 376.063 747.235 373.881 745.932C371.714 744.629 369.994 742.841 368.722 740.568C367.464 738.295 366.828 735.697 366.812 732.773C366.812 729.742 367.509 727.023 368.903 724.614C370.313 722.189 372.275 720.28 374.79 718.886C377.305 717.477 380.244 716.788 383.608 716.818ZM383.631 723.636C381.994 723.636 380.517 724.038 379.199 724.841C377.896 725.629 376.866 726.705 376.108 728.068C375.366 729.417 374.994 730.924 374.994 732.591C375.009 734.242 375.381 735.742 376.108 737.091C376.85 738.439 377.858 739.508 379.131 740.295C380.419 741.083 381.888 741.477 383.54 741.477C384.767 741.477 385.911 741.242 386.972 740.773C388.032 740.303 388.956 739.652 389.744 738.818C390.547 737.97 391.169 737.008 391.608 735.932C392.063 734.856 392.282 733.72 392.267 732.523C392.267 730.932 391.888 729.462 391.131 728.114C390.388 726.765 389.366 725.682 388.062 724.864C386.775 724.045 385.297 723.636 383.631 723.636Z" fill="white"/>
<path d="M498.699 462V455.909L514.858 440.068C516.403 438.508 517.691 437.121 518.722 435.909C519.752 434.697 520.525 433.523 521.04 432.386C521.555 431.25 521.812 430.038 521.812 428.75C521.812 427.28 521.479 426.023 520.812 424.977C520.146 423.917 519.229 423.098 518.062 422.523C516.896 421.947 515.57 421.659 514.085 421.659C512.555 421.659 511.214 421.977 510.062 422.614C508.911 423.235 508.017 424.121 507.381 425.273C506.759 426.424 506.449 427.795 506.449 429.386H498.426C498.426 426.432 499.1 423.864 500.449 421.682C501.797 419.5 503.653 417.811 506.017 416.614C508.396 415.417 511.123 414.818 514.199 414.818C517.32 414.818 520.063 415.402 522.426 416.568C524.79 417.735 526.623 419.333 527.926 421.364C529.244 423.394 529.903 425.712 529.903 428.318C529.903 430.061 529.57 431.773 528.903 433.455C528.237 435.136 527.063 437 525.381 439.045C523.714 441.091 521.373 443.568 518.358 446.477L510.335 454.636V454.955H530.608V462H498.699ZM555.653 462.886C551.911 462.886 548.699 461.939 546.017 460.045C543.35 458.136 541.297 455.386 539.858 451.795C538.434 448.189 537.722 443.848 537.722 438.773C537.737 433.697 538.456 429.379 539.881 425.818C541.32 422.242 543.373 419.515 546.04 417.636C548.722 415.758 551.926 414.818 555.653 414.818C559.381 414.818 562.585 415.758 565.267 417.636C567.949 419.515 570.002 422.242 571.426 425.818C572.866 429.394 573.585 433.712 573.585 438.773C573.585 443.864 572.866 448.212 571.426 451.818C570.002 455.409 567.949 458.152 565.267 460.045C562.6 461.939 559.396 462.886 555.653 462.886ZM555.653 455.773C558.563 455.773 560.858 454.341 562.54 451.477C564.237 448.598 565.085 444.364 565.085 438.773C565.085 435.076 564.699 431.97 563.926 429.455C563.153 426.939 562.063 425.045 560.653 423.773C559.244 422.485 557.578 421.841 555.653 421.841C552.759 421.841 550.472 423.28 548.79 426.159C547.108 429.023 546.259 433.227 546.244 438.773C546.229 442.485 546.6 445.606 547.358 448.136C548.131 450.667 549.222 452.576 550.631 453.864C552.04 455.136 553.714 455.773 555.653 455.773ZM600.068 415.455V462H591.636V423.659H591.364L580.477 430.614V422.886L592.045 415.455H600.068ZM629.091 462.886C625.348 462.886 622.136 461.939 619.455 460.045C616.788 458.136 614.735 455.386 613.295 451.795C611.871 448.189 611.159 443.848 611.159 438.773C611.174 433.697 611.894 429.379 613.318 425.818C614.758 422.242 616.811 419.515 619.477 417.636C622.159 415.758 625.364 414.818 629.091 414.818C632.818 414.818 636.023 415.758 638.705 417.636C641.386 419.515 643.439 422.242 644.864 425.818C646.303 429.394 647.023 433.712 647.023 438.773C647.023 443.864 646.303 448.212 644.864 451.818C643.439 455.409 641.386 458.152 638.705 460.045C636.038 461.939 632.833 462.886 629.091 462.886ZM629.091 455.773C632 455.773 634.295 454.341 635.977 451.477C637.674 448.598 638.523 444.364 638.523 438.773C638.523 435.076 638.136 431.97 637.364 429.455C636.591 426.939 635.5 425.045 634.091 423.773C632.682 422.485 631.015 421.841 629.091 421.841C626.197 421.841 623.909 423.28 622.227 426.159C620.545 429.023 619.697 433.227 619.682 438.773C619.667 442.485 620.038 445.606 620.795 448.136C621.568 450.667 622.659 452.576 624.068 453.864C625.477 455.136 627.152 455.773 629.091 455.773Z" fill="white"/>
<path d="M834.668 250V243.909L850.827 228.068C852.372 226.508 853.66 225.121 854.69 223.909C855.721 222.697 856.493 221.523 857.009 220.386C857.524 219.25 857.781 218.038 857.781 216.75C857.781 215.28 857.448 214.023 856.781 212.977C856.115 211.917 855.198 211.098 854.031 210.523C852.865 209.947 851.539 209.659 850.054 209.659C848.524 209.659 847.183 209.977 846.031 210.614C844.88 211.235 843.986 212.121 843.349 213.273C842.728 214.424 842.418 215.795 842.418 217.386H834.395C834.395 214.432 835.069 211.864 836.418 209.682C837.766 207.5 839.622 205.811 841.986 204.614C844.365 203.417 847.092 202.818 850.168 202.818C853.289 202.818 856.031 203.402 858.395 204.568C860.759 205.735 862.592 207.333 863.895 209.364C865.213 211.394 865.872 213.712 865.872 216.318C865.872 218.061 865.539 219.773 864.872 221.455C864.205 223.136 863.031 225 861.349 227.045C859.683 229.091 857.342 231.568 854.327 234.477L846.304 242.636V242.955H866.577V250H834.668ZM891.622 250.886C887.88 250.886 884.668 249.939 881.986 248.045C879.319 246.136 877.266 243.386 875.827 239.795C874.402 236.189 873.69 231.848 873.69 226.773C873.705 221.697 874.425 217.379 875.849 213.818C877.289 210.242 879.342 207.515 882.009 205.636C884.69 203.758 887.895 202.818 891.622 202.818C895.349 202.818 898.554 203.758 901.236 205.636C903.918 207.515 905.971 210.242 907.395 213.818C908.834 217.394 909.554 221.712 909.554 226.773C909.554 231.864 908.834 236.212 907.395 239.818C905.971 243.409 903.918 246.152 901.236 248.045C898.569 249.939 895.365 250.886 891.622 250.886ZM891.622 243.773C894.531 243.773 896.827 242.341 898.509 239.477C900.205 236.598 901.054 232.364 901.054 226.773C901.054 223.076 900.668 219.97 899.895 217.455C899.122 214.939 898.031 213.045 896.622 211.773C895.213 210.485 893.546 209.841 891.622 209.841C888.728 209.841 886.44 211.28 884.759 214.159C883.077 217.023 882.228 221.227 882.213 226.773C882.198 230.485 882.569 233.606 883.327 236.136C884.099 238.667 885.19 240.576 886.599 241.864C888.009 243.136 889.683 243.773 891.622 243.773ZM936.037 203.455V250H927.605V211.659H927.332L916.446 218.614V210.886L928.014 203.455H936.037ZM966.787 203.455V250H958.355V211.659H958.082L947.196 218.614V210.886L958.764 203.455H966.787Z" fill="white"/>
<path d="M1175.17 108V101.909L1191.33 86.0682C1192.87 84.5076 1194.16 83.1212 1195.19 81.9091C1196.22 80.697 1196.99 79.5227 1197.51 78.3864C1198.02 77.25 1198.28 76.0379 1198.28 74.75C1198.28 73.2803 1197.95 72.0227 1197.28 70.9773C1196.61 69.9167 1195.7 69.0985 1194.53 68.5227C1193.36 67.947 1192.04 67.6591 1190.55 67.6591C1189.02 67.6591 1187.68 67.9773 1186.53 68.6136C1185.38 69.2348 1184.49 70.1212 1183.85 71.2727C1183.23 72.4242 1182.92 73.7955 1182.92 75.3864H1174.89C1174.89 72.4318 1175.57 69.8636 1176.92 67.6818C1178.27 65.5 1180.12 63.8106 1182.49 62.6136C1184.86 61.4167 1187.59 60.8182 1190.67 60.8182C1193.79 60.8182 1196.53 61.4015 1198.89 62.5682C1201.26 63.7348 1203.09 65.3333 1204.39 67.3636C1205.71 69.3939 1206.37 71.7121 1206.37 74.3182C1206.37 76.0606 1206.04 77.7727 1205.37 79.4545C1204.71 81.1364 1203.53 83 1201.85 85.0455C1200.18 87.0909 1197.84 89.5682 1194.83 92.4773L1186.8 100.636V100.955H1207.08V108H1175.17ZM1232.12 108.886C1228.38 108.886 1225.17 107.939 1222.49 106.045C1219.82 104.136 1217.77 101.386 1216.33 97.7955C1214.9 94.1894 1214.19 89.8485 1214.19 84.7727C1214.21 79.697 1214.93 75.3788 1216.35 71.8182C1217.79 68.2424 1219.84 65.5152 1222.51 63.6364C1225.19 61.7576 1228.39 60.8182 1232.12 60.8182C1235.85 60.8182 1239.05 61.7576 1241.74 63.6364C1244.42 65.5152 1246.47 68.2424 1247.89 71.8182C1249.33 75.3939 1250.05 79.7121 1250.05 84.7727C1250.05 89.8636 1249.33 94.2121 1247.89 97.8182C1246.47 101.409 1244.42 104.152 1241.74 106.045C1239.07 107.939 1235.86 108.886 1232.12 108.886ZM1232.12 101.773C1235.03 101.773 1237.33 100.341 1239.01 97.4773C1240.71 94.5985 1241.55 90.3636 1241.55 84.7727C1241.55 81.0758 1241.17 77.9697 1240.39 75.4545C1239.62 72.9394 1238.53 71.0455 1237.12 69.7727C1235.71 68.4848 1234.05 67.8409 1232.12 67.8409C1229.23 67.8409 1226.94 69.2803 1225.26 72.1591C1223.58 75.0227 1222.73 79.2273 1222.71 84.7727C1222.7 88.4848 1223.07 91.6061 1223.83 94.1364C1224.6 96.6667 1225.69 98.5758 1227.1 99.8636C1228.51 101.136 1230.18 101.773 1232.12 101.773ZM1276.54 61.4545V108H1268.11V69.6591H1267.83L1256.95 76.6136V68.8864L1268.51 61.4545H1276.54ZM1288.36 108V101.909L1304.51 86.0682C1306.06 84.5076 1307.35 83.1212 1308.38 81.9091C1309.41 80.697 1310.18 79.5227 1310.7 78.3864C1311.21 77.25 1311.47 76.0379 1311.47 74.75C1311.47 73.2803 1311.14 72.0227 1310.47 70.9773C1309.8 69.9167 1308.89 69.0985 1307.72 68.5227C1306.55 67.947 1305.23 67.6591 1303.74 67.6591C1302.21 67.6591 1300.87 67.9773 1299.72 68.6136C1298.57 69.2348 1297.67 70.1212 1297.04 71.2727C1296.42 72.4242 1296.11 73.7955 1296.11 75.3864H1288.08C1288.08 72.4318 1288.76 69.8636 1290.11 67.6818C1291.45 65.5 1293.31 63.8106 1295.67 62.6136C1298.05 61.4167 1300.78 60.8182 1303.86 60.8182C1306.98 60.8182 1309.72 61.4015 1312.08 62.5682C1314.45 63.7348 1316.28 65.3333 1317.58 67.3636C1318.9 69.3939 1319.56 71.7121 1319.56 74.3182C1319.56 76.0606 1319.23 77.7727 1318.56 79.4545C1317.89 81.1364 1316.72 83 1315.04 85.0455C1313.37 87.0909 1311.03 89.5682 1308.01 92.4773L1299.99 100.636V100.955H1320.26V108H1288.36Z" fill="white"/>
<path d="M1531.2 62V55.9091L1547.36 40.0682C1548.9 38.5076 1550.19 37.1212 1551.22 35.9091C1552.25 34.697 1553.02 33.5227 1553.54 32.3864C1554.05 31.25 1554.31 30.0379 1554.31 28.75C1554.31 27.2803 1553.98 26.0227 1553.31 24.9773C1552.65 23.9167 1551.73 23.0985 1550.56 22.5227C1549.4 21.947 1548.07 21.6591 1546.59 21.6591C1545.05 21.6591 1543.71 21.9773 1542.56 22.6136C1541.41 23.2348 1540.52 24.1212 1539.88 25.2727C1539.26 26.4242 1538.95 27.7955 1538.95 29.3864H1530.93C1530.93 26.4318 1531.6 23.8636 1532.95 21.6818C1534.3 19.5 1536.15 17.8106 1538.52 16.6136C1540.9 15.4167 1543.62 14.8182 1546.7 14.8182C1549.82 14.8182 1552.56 15.4015 1554.93 16.5682C1557.29 17.7348 1559.12 19.3333 1560.43 21.3636C1561.74 23.3939 1562.4 25.7121 1562.4 28.3182C1562.4 30.0606 1562.07 31.7727 1561.4 33.4545C1560.74 35.1364 1559.56 37 1557.88 39.0455C1556.21 41.0909 1553.87 43.5682 1550.86 46.4773L1542.84 54.6364V54.9545H1563.11V62H1531.2ZM1588.15 62.8864C1584.41 62.8864 1581.2 61.9394 1578.52 60.0455C1575.85 58.1364 1573.8 55.3864 1572.36 51.7955C1570.93 48.1894 1570.22 43.8485 1570.22 38.7727C1570.24 33.697 1570.96 29.3788 1572.38 25.8182C1573.82 22.2424 1575.87 19.5152 1578.54 17.6364C1581.22 15.7576 1584.43 14.8182 1588.15 14.8182C1591.88 14.8182 1595.09 15.7576 1597.77 17.6364C1600.45 19.5152 1602.5 22.2424 1603.93 25.8182C1605.37 29.3939 1606.09 33.7121 1606.09 38.7727C1606.09 43.8636 1605.37 48.2121 1603.93 51.8182C1602.5 55.4091 1600.45 58.1515 1597.77 60.0455C1595.1 61.9394 1591.9 62.8864 1588.15 62.8864ZM1588.15 55.7727C1591.06 55.7727 1593.36 54.3409 1595.04 51.4773C1596.74 48.5985 1597.59 44.3636 1597.59 38.7727C1597.59 35.0758 1597.2 31.9697 1596.43 29.4545C1595.65 26.9394 1594.56 25.0455 1593.15 23.7727C1591.74 22.4848 1590.08 21.8409 1588.15 21.8409C1585.26 21.8409 1582.97 23.2803 1581.29 26.1591C1579.61 29.0227 1578.76 33.2273 1578.74 38.7727C1578.73 42.4848 1579.1 45.6061 1579.86 48.1364C1580.63 50.6667 1581.72 52.5758 1583.13 53.8636C1584.54 55.1364 1586.21 55.7727 1588.15 55.7727ZM1632.57 15.4545V62H1624.14V23.6591H1623.86L1612.98 30.6136V22.8864L1624.55 15.4545H1632.57ZM1661.09 62.6364C1657.82 62.6364 1654.91 62.0758 1652.36 60.9545C1649.83 59.8333 1647.83 58.2727 1646.36 56.2727C1644.89 54.2727 1644.11 51.9621 1644.02 49.3409H1652.57C1652.64 50.5985 1653.06 51.697 1653.82 52.6364C1654.58 53.5606 1655.58 54.2803 1656.84 54.7955C1658.1 55.3106 1659.51 55.5682 1661.07 55.5682C1662.73 55.5682 1664.21 55.2803 1665.5 54.7045C1666.79 54.1136 1667.8 53.2955 1668.52 52.25C1669.25 51.2045 1669.61 50 1669.59 48.6364C1669.61 47.2273 1669.24 45.9848 1668.5 44.9091C1667.76 43.8333 1666.68 42.9924 1665.27 42.3864C1663.88 41.7803 1662.2 41.4773 1660.23 41.4773H1656.11V34.9773H1660.23C1661.85 34.9773 1663.27 34.697 1664.48 34.1364C1665.7 33.5758 1666.67 32.7879 1667.36 31.7727C1668.06 30.7424 1668.4 29.553 1668.39 28.2045C1668.4 26.8864 1668.11 25.7424 1667.5 24.7727C1666.91 23.7879 1666.07 23.0227 1664.98 22.4773C1663.9 21.9318 1662.64 21.6591 1661.18 21.6591C1659.76 21.6591 1658.44 21.9167 1657.23 22.4318C1656.02 22.947 1655.04 23.6818 1654.3 24.6364C1653.55 25.5758 1653.16 26.697 1653.11 28H1645C1645.06 25.3939 1645.81 23.1061 1647.25 21.1364C1648.7 19.1515 1650.64 17.6061 1653.07 16.5C1655.49 15.3788 1658.21 14.8182 1661.23 14.8182C1664.33 14.8182 1667.03 15.4015 1669.32 16.5682C1671.62 17.7197 1673.4 19.2727 1674.66 21.2273C1675.92 23.1818 1676.55 25.3409 1676.55 27.7045C1676.56 30.3258 1675.79 32.5227 1674.23 34.2955C1672.68 36.0682 1670.65 37.2273 1668.14 37.7727V38.1364C1671.41 38.5909 1673.92 39.803 1675.66 41.7727C1677.42 43.7273 1678.29 46.1591 1678.27 49.0682C1678.27 51.6742 1677.53 54.0076 1676.05 56.0682C1674.58 58.1136 1672.55 59.7197 1669.95 60.8864C1667.38 62.053 1664.42 62.6364 1661.09 62.6364Z" fill="white"/>
<path d="M2987.17 1779V1772.91L3003.33 1757.07C3004.87 1755.51 3006.16 1754.12 3007.19 1752.91C3008.22 1751.7 3008.99 1750.52 3009.51 1749.39C3010.02 1748.25 3010.28 1747.04 3010.28 1745.75C3010.28 1744.28 3009.95 1743.02 3009.28 1741.98C3008.61 1740.92 3007.7 1740.1 3006.53 1739.52C3005.36 1738.95 3004.04 1738.66 3002.55 1738.66C3001.02 1738.66 2999.68 1738.98 2998.53 1739.61C2997.38 1740.23 2996.49 1741.12 2995.85 1742.27C2995.23 1743.42 2994.92 1744.8 2994.92 1746.39H2986.89C2986.89 1743.43 2987.57 1740.86 2988.92 1738.68C2990.27 1736.5 2992.12 1734.81 2994.49 1733.61C2996.86 1732.42 2999.59 1731.82 3002.67 1731.82C3005.79 1731.82 3008.53 1732.4 3010.89 1733.57C3013.26 1734.73 3015.09 1736.33 3016.39 1738.36C3017.71 1740.39 3018.37 1742.71 3018.37 1745.32C3018.37 1747.06 3018.04 1748.77 3017.37 1750.45C3016.71 1752.14 3015.53 1754 3013.85 1756.05C3012.18 1758.09 3009.84 1760.57 3006.83 1763.48L2998.8 1771.64V1771.95H3019.08V1779H2987.17ZM3044.12 1779.89C3040.38 1779.89 3037.17 1778.94 3034.49 1777.05C3031.82 1775.14 3029.77 1772.39 3028.33 1768.8C3026.9 1765.19 3026.19 1760.85 3026.19 1755.77C3026.21 1750.7 3026.93 1746.38 3028.35 1742.82C3029.79 1739.24 3031.84 1736.52 3034.51 1734.64C3037.19 1732.76 3040.39 1731.82 3044.12 1731.82C3047.85 1731.82 3051.05 1732.76 3053.74 1734.64C3056.42 1736.52 3058.47 1739.24 3059.89 1742.82C3061.33 1746.39 3062.05 1750.71 3062.05 1755.77C3062.05 1760.86 3061.33 1765.21 3059.89 1768.82C3058.47 1772.41 3056.42 1775.15 3053.74 1777.05C3051.07 1778.94 3047.86 1779.89 3044.12 1779.89ZM3044.12 1772.77C3047.03 1772.77 3049.33 1771.34 3051.01 1768.48C3052.71 1765.6 3053.55 1761.36 3053.55 1755.77C3053.55 1752.08 3053.17 1748.97 3052.39 1746.45C3051.62 1743.94 3050.53 1742.05 3049.12 1740.77C3047.71 1739.48 3046.05 1738.84 3044.12 1738.84C3041.23 1738.84 3038.94 1740.28 3037.26 1743.16C3035.58 1746.02 3034.73 1750.23 3034.71 1755.77C3034.7 1759.48 3035.07 1762.61 3035.83 1765.14C3036.6 1767.67 3037.69 1769.58 3039.1 1770.86C3040.51 1772.14 3042.18 1772.77 3044.12 1772.77ZM3069.61 1779V1772.91L3085.76 1757.07C3087.31 1755.51 3088.6 1754.12 3089.63 1752.91C3090.66 1751.7 3091.43 1750.52 3091.95 1749.39C3092.46 1748.25 3092.72 1747.04 3092.72 1745.75C3092.72 1744.28 3092.39 1743.02 3091.72 1741.98C3091.05 1740.92 3090.14 1740.1 3088.97 1739.52C3087.8 1738.95 3086.48 1738.66 3084.99 1738.66C3083.46 1738.66 3082.12 1738.98 3080.97 1739.61C3079.82 1740.23 3078.92 1741.12 3078.29 1742.27C3077.67 1743.42 3077.36 1744.8 3077.36 1746.39H3069.33C3069.33 1743.43 3070.01 1740.86 3071.36 1738.68C3072.7 1736.5 3074.56 1734.81 3076.92 1733.61C3079.3 1732.42 3082.03 1731.82 3085.11 1731.82C3088.23 1731.82 3090.97 1732.4 3093.33 1733.57C3095.7 1734.73 3097.53 1736.33 3098.83 1738.36C3100.15 1740.39 3100.81 1742.71 3100.81 1745.32C3100.81 1747.06 3100.48 1748.77 3099.81 1750.45C3099.14 1752.14 3097.97 1754 3096.29 1756.05C3094.62 1758.09 3092.28 1760.57 3089.26 1763.48L3081.24 1771.64V1771.95H3101.51V1779H3069.61ZM3128.29 1732.45V1779H3119.86V1740.66H3119.58L3108.7 1747.61V1739.89L3120.26 1732.45H3128.29Z" fill="white"/>
<path d="M3014.2 1424V1417.91L3030.36 1402.07C3031.9 1400.51 3033.19 1399.12 3034.22 1397.91C3035.25 1396.7 3036.02 1395.52 3036.54 1394.39C3037.05 1393.25 3037.31 1392.04 3037.31 1390.75C3037.31 1389.28 3036.98 1388.02 3036.31 1386.98C3035.65 1385.92 3034.73 1385.1 3033.56 1384.52C3032.4 1383.95 3031.07 1383.66 3029.59 1383.66C3028.05 1383.66 3026.71 1383.98 3025.56 1384.61C3024.41 1385.23 3023.52 1386.12 3022.88 1387.27C3022.26 1388.42 3021.95 1389.8 3021.95 1391.39H3013.93C3013.93 1388.43 3014.6 1385.86 3015.95 1383.68C3017.3 1381.5 3019.15 1379.81 3021.52 1378.61C3023.9 1377.42 3026.62 1376.82 3029.7 1376.82C3032.82 1376.82 3035.56 1377.4 3037.93 1378.57C3040.29 1379.73 3042.12 1381.33 3043.43 1383.36C3044.74 1385.39 3045.4 1387.71 3045.4 1390.32C3045.4 1392.06 3045.07 1393.77 3044.4 1395.45C3043.74 1397.14 3042.56 1399 3040.88 1401.05C3039.21 1403.09 3036.87 1405.57 3033.86 1408.48L3025.84 1416.64V1416.95H3046.11V1424H3014.2ZM3071.15 1424.89C3067.41 1424.89 3064.2 1423.94 3061.52 1422.05C3058.85 1420.14 3056.8 1417.39 3055.36 1413.8C3053.93 1410.19 3053.22 1405.85 3053.22 1400.77C3053.24 1395.7 3053.96 1391.38 3055.38 1387.82C3056.82 1384.24 3058.87 1381.52 3061.54 1379.64C3064.22 1377.76 3067.43 1376.82 3071.15 1376.82C3074.88 1376.82 3078.09 1377.76 3080.77 1379.64C3083.45 1381.52 3085.5 1384.24 3086.93 1387.82C3088.37 1391.39 3089.09 1395.71 3089.09 1400.77C3089.09 1405.86 3088.37 1410.21 3086.93 1413.82C3085.5 1417.41 3083.45 1420.15 3080.77 1422.05C3078.1 1423.94 3074.9 1424.89 3071.15 1424.89ZM3071.15 1417.77C3074.06 1417.77 3076.36 1416.34 3078.04 1413.48C3079.74 1410.6 3080.59 1406.36 3080.59 1400.77C3080.59 1397.08 3080.2 1393.97 3079.43 1391.45C3078.65 1388.94 3077.56 1387.05 3076.15 1385.77C3074.74 1384.48 3073.08 1383.84 3071.15 1383.84C3068.26 1383.84 3065.97 1385.28 3064.29 1388.16C3062.61 1391.02 3061.76 1395.23 3061.74 1400.77C3061.73 1404.48 3062.1 1407.61 3062.86 1410.14C3063.63 1412.67 3064.72 1414.58 3066.13 1415.86C3067.54 1417.14 3069.21 1417.77 3071.15 1417.77ZM3096.64 1424V1417.91L3112.8 1402.07C3114.34 1400.51 3115.63 1399.12 3116.66 1397.91C3117.69 1396.7 3118.46 1395.52 3118.98 1394.39C3119.49 1393.25 3119.75 1392.04 3119.75 1390.75C3119.75 1389.28 3119.42 1388.02 3118.75 1386.98C3118.08 1385.92 3117.17 1385.1 3116 1384.52C3114.83 1383.95 3113.51 1383.66 3112.02 1383.66C3110.49 1383.66 3109.15 1383.98 3108 1384.61C3106.85 1385.23 3105.95 1386.12 3105.32 1387.27C3104.7 1388.42 3104.39 1389.8 3104.39 1391.39H3096.36C3096.36 1388.43 3097.04 1385.86 3098.39 1383.68C3099.73 1381.5 3101.59 1379.81 3103.95 1378.61C3106.33 1377.42 3109.06 1376.82 3112.14 1376.82C3115.26 1376.82 3118 1377.4 3120.36 1378.57C3122.73 1379.73 3124.56 1381.33 3125.86 1383.36C3127.18 1385.39 3127.84 1387.71 3127.84 1390.32C3127.84 1392.06 3127.51 1393.77 3126.84 1395.45C3126.17 1397.14 3125 1399 3123.32 1401.05C3121.65 1403.09 3119.31 1405.57 3116.3 1408.48L3108.27 1416.64V1416.95H3128.55V1424H3096.64ZM3153.59 1424.89C3149.85 1424.89 3146.64 1423.94 3143.95 1422.05C3141.29 1420.14 3139.23 1417.39 3137.8 1413.8C3136.37 1410.19 3135.66 1405.85 3135.66 1400.77C3135.67 1395.7 3136.39 1391.38 3137.82 1387.82C3139.26 1384.24 3141.31 1381.52 3143.98 1379.64C3146.66 1377.76 3149.86 1376.82 3153.59 1376.82C3157.32 1376.82 3160.52 1377.76 3163.2 1379.64C3165.89 1381.52 3167.94 1384.24 3169.36 1387.82C3170.8 1391.39 3171.52 1395.71 3171.52 1400.77C3171.52 1405.86 3170.8 1410.21 3169.36 1413.82C3167.94 1417.41 3165.89 1420.15 3163.2 1422.05C3160.54 1423.94 3157.33 1424.89 3153.59 1424.89ZM3153.59 1417.77C3156.5 1417.77 3158.8 1416.34 3160.48 1413.48C3162.17 1410.6 3163.02 1406.36 3163.02 1400.77C3163.02 1397.08 3162.64 1393.97 3161.86 1391.45C3161.09 1388.94 3160 1387.05 3158.59 1385.77C3157.18 1384.48 3155.52 1383.84 3153.59 1383.84C3150.7 1383.84 3148.41 1385.28 3146.73 1388.16C3145.05 1391.02 3144.2 1395.23 3144.18 1400.77C3144.17 1404.48 3144.54 1407.61 3145.3 1410.14C3146.07 1412.67 3147.16 1414.58 3148.57 1415.86C3149.98 1417.14 3151.65 1417.77 3153.59 1417.77Z" fill="white"/>
<path d="M2981.39 1073V1066.91L2997.55 1051.07C2999.09 1049.51 3000.38 1048.12 3001.41 1046.91C3002.44 1045.7 3003.21 1044.52 3003.73 1043.39C3004.24 1042.25 3004.5 1041.04 3004.5 1039.75C3004.5 1038.28 3004.17 1037.02 3003.5 1035.98C3002.83 1034.92 3001.92 1034.1 3000.75 1033.52C2999.58 1032.95 2998.26 1032.66 2996.77 1032.66C2995.24 1032.66 2993.9 1032.98 2992.75 1033.61C2991.6 1034.23 2990.7 1035.12 2990.07 1036.27C2989.45 1037.42 2989.14 1038.8 2989.14 1040.39H2981.11C2981.11 1037.43 2981.79 1034.86 2983.14 1032.68C2984.48 1030.5 2986.34 1028.81 2988.7 1027.61C2991.08 1026.42 2993.81 1025.82 2996.89 1025.82C3000.01 1025.82 3002.75 1026.4 3005.11 1027.57C3007.48 1028.73 3009.31 1030.33 3010.61 1032.36C3011.93 1034.39 3012.59 1036.71 3012.59 1039.32C3012.59 1041.06 3012.26 1042.77 3011.59 1044.45C3010.92 1046.14 3009.75 1048 3008.07 1050.05C3006.4 1052.09 3004.06 1054.57 3001.05 1057.48L2993.02 1065.64V1065.95H3013.3V1073H2981.39ZM3038.34 1073.89C3034.6 1073.89 3031.39 1072.94 3028.7 1071.05C3026.04 1069.14 3023.98 1066.39 3022.55 1062.8C3021.12 1059.19 3020.41 1054.85 3020.41 1049.77C3020.42 1044.7 3021.14 1040.38 3022.57 1036.82C3024.01 1033.24 3026.06 1030.52 3028.73 1028.64C3031.41 1026.76 3034.61 1025.82 3038.34 1025.82C3042.07 1025.82 3045.27 1026.76 3047.95 1028.64C3050.64 1030.52 3052.69 1033.24 3054.11 1036.82C3055.55 1040.39 3056.27 1044.71 3056.27 1049.77C3056.27 1054.86 3055.55 1059.21 3054.11 1062.82C3052.69 1066.41 3050.64 1069.15 3047.95 1071.05C3045.29 1072.94 3042.08 1073.89 3038.34 1073.89ZM3038.34 1066.77C3041.25 1066.77 3043.55 1065.34 3045.23 1062.48C3046.92 1059.6 3047.77 1055.36 3047.77 1049.77C3047.77 1046.08 3047.39 1042.97 3046.61 1040.45C3045.84 1037.94 3044.75 1036.05 3043.34 1034.77C3041.93 1033.48 3040.27 1032.84 3038.34 1032.84C3035.45 1032.84 3033.16 1034.28 3031.48 1037.16C3029.8 1040.02 3028.95 1044.23 3028.93 1049.77C3028.92 1053.48 3029.29 1056.61 3030.05 1059.14C3030.82 1061.67 3031.91 1063.58 3033.32 1064.86C3034.73 1066.14 3036.4 1066.77 3038.34 1066.77ZM3082.76 1026.45V1073H3074.32V1034.66H3074.05L3063.16 1041.61V1033.89L3074.73 1026.45H3082.76ZM3111.12 1073.64C3107.74 1073.64 3104.74 1073.07 3102.12 1071.93C3099.51 1070.8 3097.47 1069.24 3095.98 1067.27C3094.51 1065.29 3093.79 1063.04 3093.8 1060.52C3093.79 1058.57 3094.21 1056.77 3095.07 1055.14C3095.94 1053.5 3097.1 1052.14 3098.57 1051.05C3100.06 1049.94 3101.71 1049.23 3103.53 1048.93V1048.61C3101.13 1048.08 3099.2 1046.86 3097.71 1044.95C3096.24 1043.03 3095.51 1040.81 3095.53 1038.3C3095.51 1035.9 3096.18 1033.77 3097.53 1031.89C3098.88 1030.01 3100.73 1028.53 3103.07 1027.45C3105.42 1026.36 3108.1 1025.82 3111.12 1025.82C3114.1 1025.82 3116.76 1026.36 3119.1 1027.45C3121.45 1028.53 3123.29 1030.01 3124.64 1031.89C3126.01 1033.77 3126.69 1035.9 3126.69 1038.3C3126.69 1040.81 3125.94 1043.03 3124.44 1044.95C3122.95 1046.86 3121.04 1048.08 3118.69 1048.61V1048.93C3120.51 1049.23 3122.14 1049.94 3123.6 1051.05C3125.07 1052.14 3126.23 1053.5 3127.1 1055.14C3127.98 1056.77 3128.41 1058.57 3128.41 1060.52C3128.41 1063.04 3127.67 1065.29 3126.19 1067.27C3124.7 1069.24 3122.66 1070.8 3120.05 1071.93C3117.46 1073.07 3114.48 1073.64 3111.12 1073.64ZM3111.12 1067.14C3112.86 1067.14 3114.38 1066.84 3115.66 1066.25C3116.95 1065.64 3117.95 1064.8 3118.66 1063.7C3119.38 1062.61 3119.74 1061.36 3119.76 1059.93C3119.74 1058.45 3119.35 1057.14 3118.6 1056C3117.85 1054.85 3116.83 1053.95 3115.53 1053.3C3114.24 1052.64 3112.77 1052.32 3111.12 1052.32C3109.45 1052.32 3107.97 1052.64 3106.66 1053.3C3105.36 1053.95 3104.33 1054.85 3103.57 1056C3102.83 1057.14 3102.47 1058.45 3102.48 1059.93C3102.47 1061.36 3102.82 1062.61 3103.53 1063.7C3104.24 1064.78 3105.24 1065.62 3106.53 1066.23C3107.83 1066.83 3109.36 1067.14 3111.12 1067.14ZM3111.12 1045.93C3112.54 1045.93 3113.8 1045.64 3114.89 1045.07C3116 1044.49 3116.87 1043.69 3117.51 1042.66C3118.14 1041.63 3118.47 1040.44 3118.48 1039.09C3118.47 1037.76 3118.15 1036.59 3117.53 1035.59C3116.91 1034.58 3116.04 1033.8 3114.94 1033.25C3113.83 1032.69 3112.56 1032.41 3111.12 1032.41C3109.65 1032.41 3108.35 1032.69 3107.23 1033.25C3106.13 1033.8 3105.26 1034.58 3104.64 1035.59C3104.04 1036.59 3103.74 1037.76 3103.76 1039.09C3103.74 1040.44 3104.04 1041.63 3104.66 1042.66C3105.3 1043.67 3106.17 1044.48 3107.28 1045.07C3108.4 1045.64 3109.68 1045.93 3111.12 1045.93Z" fill="white"/>
<path d="M2854.26 763V756.909L2870.42 741.068C2871.97 739.508 2873.25 738.121 2874.28 736.909C2875.31 735.697 2876.09 734.523 2876.6 733.386C2877.12 732.25 2877.38 731.038 2877.38 729.75C2877.38 728.28 2877.04 727.023 2876.38 725.977C2875.71 724.917 2874.79 724.098 2873.62 723.523C2872.46 722.947 2871.13 722.659 2869.65 722.659C2868.12 722.659 2866.78 722.977 2865.62 723.614C2864.47 724.235 2863.58 725.121 2862.94 726.273C2862.32 727.424 2862.01 728.795 2862.01 730.386H2853.99C2853.99 727.432 2854.66 724.864 2856.01 722.682C2857.36 720.5 2859.22 718.811 2861.58 717.614C2863.96 716.417 2866.69 715.818 2869.76 715.818C2872.88 715.818 2875.63 716.402 2877.99 717.568C2880.35 718.735 2882.19 720.333 2883.49 722.364C2884.81 724.394 2885.47 726.712 2885.47 729.318C2885.47 731.061 2885.13 732.773 2884.47 734.455C2883.8 736.136 2882.63 738 2880.94 740.045C2879.28 742.091 2876.94 744.568 2873.92 747.477L2865.9 755.636V755.955H2886.17V763H2854.26ZM2911.22 763.886C2907.47 763.886 2904.26 762.939 2901.58 761.045C2898.91 759.136 2896.86 756.386 2895.42 752.795C2894 749.189 2893.28 744.848 2893.28 739.773C2893.3 734.697 2894.02 730.379 2895.44 726.818C2896.88 723.242 2898.94 720.515 2901.6 718.636C2904.28 716.758 2907.49 715.818 2911.22 715.818C2914.94 715.818 2918.15 716.758 2920.83 718.636C2923.51 720.515 2925.56 723.242 2926.99 726.818C2928.43 730.394 2929.15 734.712 2929.15 739.773C2929.15 744.864 2928.43 749.212 2926.99 752.818C2925.56 756.409 2923.51 759.152 2920.83 761.045C2918.16 762.939 2914.96 763.886 2911.22 763.886ZM2911.22 756.773C2914.13 756.773 2916.42 755.341 2918.1 752.477C2919.8 749.598 2920.65 745.364 2920.65 739.773C2920.65 736.076 2920.26 732.97 2919.49 730.455C2918.72 727.939 2917.63 726.045 2916.22 724.773C2914.81 723.485 2913.14 722.841 2911.22 722.841C2908.32 722.841 2906.03 724.28 2904.35 727.159C2902.67 730.023 2901.82 734.227 2901.81 739.773C2901.79 743.485 2902.16 746.606 2902.92 749.136C2903.69 751.667 2904.78 753.576 2906.19 754.864C2907.6 756.136 2909.28 756.773 2911.22 756.773ZM2955.63 716.455V763H2947.2V724.659H2946.93L2936.04 731.614V723.886L2947.61 716.455H2955.63ZM2969.15 763L2988.95 723.818V723.5H2965.97V716.455H2997.68V723.659L2977.9 763H2969.15Z" fill="white"/>
<path d="M2601.29 461V454.909L2617.45 439.068C2619 437.508 2620.29 436.121 2621.32 434.909C2622.35 433.697 2623.12 432.523 2623.63 431.386C2624.15 430.25 2624.41 429.038 2624.41 427.75C2624.41 426.28 2624.07 425.023 2623.41 423.977C2622.74 422.917 2621.82 422.098 2620.66 421.523C2619.49 420.947 2618.16 420.659 2616.68 420.659C2615.15 420.659 2613.81 420.977 2612.66 421.614C2611.5 422.235 2610.61 423.121 2609.97 424.273C2609.35 425.424 2609.04 426.795 2609.04 428.386H2601.02C2601.02 425.432 2601.69 422.864 2603.04 420.682C2604.39 418.5 2606.25 416.811 2608.61 415.614C2610.99 414.417 2613.72 413.818 2616.79 413.818C2619.91 413.818 2622.66 414.402 2625.02 415.568C2627.38 416.735 2629.22 418.333 2630.52 420.364C2631.84 422.394 2632.5 424.712 2632.5 427.318C2632.5 429.061 2632.16 430.773 2631.5 432.455C2630.83 434.136 2629.66 436 2627.97 438.045C2626.31 440.091 2623.97 442.568 2620.95 445.477L2612.93 453.636V453.955H2633.2V461H2601.29ZM2658.25 461.886C2654.5 461.886 2651.29 460.939 2648.61 459.045C2645.94 457.136 2643.89 454.386 2642.45 450.795C2641.03 447.189 2640.32 442.848 2640.32 437.773C2640.33 432.697 2641.05 428.379 2642.47 424.818C2643.91 421.242 2645.97 418.515 2648.63 416.636C2651.32 414.758 2654.52 413.818 2658.25 413.818C2661.97 413.818 2665.18 414.758 2667.86 416.636C2670.54 418.515 2672.6 421.242 2674.02 424.818C2675.46 428.394 2676.18 432.712 2676.18 437.773C2676.18 442.864 2675.46 447.212 2674.02 450.818C2672.6 454.409 2670.54 457.152 2667.86 459.045C2665.19 460.939 2661.99 461.886 2658.25 461.886ZM2658.25 454.773C2661.16 454.773 2663.45 453.341 2665.13 450.477C2666.83 447.598 2667.68 443.364 2667.68 437.773C2667.68 434.076 2667.29 430.97 2666.52 428.455C2665.75 425.939 2664.66 424.045 2663.25 422.773C2661.84 421.485 2660.17 420.841 2658.25 420.841C2655.35 420.841 2653.07 422.28 2651.38 425.159C2649.7 428.023 2648.85 432.227 2648.84 437.773C2648.82 441.485 2649.19 444.606 2649.95 447.136C2650.72 449.667 2651.82 451.576 2653.22 452.864C2654.63 454.136 2656.31 454.773 2658.25 454.773ZM2702.66 414.455V461H2694.23V422.659H2693.96L2683.07 429.614V421.886L2694.64 414.455H2702.66ZM2731.53 461.636C2729.3 461.621 2727.12 461.235 2725 460.477C2722.88 459.705 2720.97 458.455 2719.28 456.727C2717.58 454.985 2716.23 452.674 2715.23 449.795C2714.23 446.902 2713.74 443.318 2713.75 439.045C2713.75 435.061 2714.18 431.508 2715.03 428.386C2715.87 425.265 2717.09 422.629 2718.68 420.477C2720.28 418.311 2722.19 416.659 2724.43 415.523C2726.69 414.386 2729.21 413.818 2732 413.818C2734.93 413.818 2737.52 414.394 2739.78 415.545C2742.05 416.697 2743.88 418.273 2745.28 420.273C2746.67 422.258 2747.53 424.5 2747.87 427H2739.57C2739.15 425.212 2738.28 423.788 2736.96 422.727C2735.65 421.652 2734 421.114 2732 421.114C2728.78 421.114 2726.29 422.515 2724.55 425.318C2722.82 428.121 2721.95 431.97 2721.93 436.864H2722.25C2723 435.53 2723.96 434.386 2725.14 433.432C2726.32 432.477 2727.65 431.742 2729.14 431.227C2730.64 430.697 2732.22 430.432 2733.89 430.432C2736.62 430.432 2739.06 431.083 2741.23 432.386C2743.41 433.689 2745.14 435.485 2746.41 437.773C2747.68 440.045 2748.31 442.652 2748.3 445.591C2748.31 448.652 2747.62 451.402 2746.21 453.841C2744.8 456.265 2742.84 458.174 2740.32 459.568C2737.81 460.962 2734.87 461.652 2731.53 461.636ZM2731.48 454.818C2733.13 454.818 2734.61 454.417 2735.91 453.614C2737.21 452.811 2738.25 451.727 2739 450.364C2739.76 449 2740.13 447.47 2740.12 445.773C2740.13 444.106 2739.77 442.598 2739.03 441.25C2738.3 439.902 2737.29 438.833 2736 438.045C2734.71 437.258 2733.25 436.864 2731.59 436.864C2730.37 436.864 2729.22 437.098 2728.16 437.568C2727.1 438.038 2726.18 438.689 2725.39 439.523C2724.6 440.341 2723.98 441.295 2723.53 442.386C2723.09 443.462 2722.86 444.614 2722.84 445.841C2722.86 447.462 2723.24 448.955 2723.98 450.318C2724.72 451.682 2725.75 452.773 2727.05 453.591C2728.35 454.409 2729.83 454.818 2731.48 454.818Z" fill="white"/>
<path d="M2271.79 249V242.909L2287.95 227.068C2289.5 225.508 2290.79 224.121 2291.82 222.909C2292.85 221.697 2293.62 220.523 2294.13 219.386C2294.65 218.25 2294.91 217.038 2294.91 215.75C2294.91 214.28 2294.57 213.023 2293.91 211.977C2293.24 210.917 2292.32 210.098 2291.16 209.523C2289.99 208.947 2288.66 208.659 2287.18 208.659C2285.65 208.659 2284.31 208.977 2283.16 209.614C2282 210.235 2281.11 211.121 2280.47 212.273C2279.85 213.424 2279.54 214.795 2279.54 216.386H2271.52C2271.52 213.432 2272.19 210.864 2273.54 208.682C2274.89 206.5 2276.75 204.811 2279.11 203.614C2281.49 202.417 2284.22 201.818 2287.29 201.818C2290.41 201.818 2293.16 202.402 2295.52 203.568C2297.88 204.735 2299.72 206.333 2301.02 208.364C2302.34 210.394 2303 212.712 2303 215.318C2303 217.061 2302.66 218.773 2302 220.455C2301.33 222.136 2300.16 224 2298.47 226.045C2296.81 228.091 2294.47 230.568 2291.45 233.477L2283.43 241.636V241.955H2303.7V249H2271.79ZM2328.75 249.886C2325 249.886 2321.79 248.939 2319.11 247.045C2316.44 245.136 2314.39 242.386 2312.95 238.795C2311.53 235.189 2310.82 230.848 2310.82 225.773C2310.83 220.697 2311.55 216.379 2312.97 212.818C2314.41 209.242 2316.47 206.515 2319.13 204.636C2321.82 202.758 2325.02 201.818 2328.75 201.818C2332.47 201.818 2335.68 202.758 2338.36 204.636C2341.04 206.515 2343.1 209.242 2344.52 212.818C2345.96 216.394 2346.68 220.712 2346.68 225.773C2346.68 230.864 2345.96 235.212 2344.52 238.818C2343.1 242.409 2341.04 245.152 2338.36 247.045C2335.69 248.939 2332.49 249.886 2328.75 249.886ZM2328.75 242.773C2331.66 242.773 2333.95 241.341 2335.63 238.477C2337.33 235.598 2338.18 231.364 2338.18 225.773C2338.18 222.076 2337.79 218.97 2337.02 216.455C2336.25 213.939 2335.16 212.045 2333.75 210.773C2332.34 209.485 2330.67 208.841 2328.75 208.841C2325.85 208.841 2323.57 210.28 2321.88 213.159C2320.2 216.023 2319.35 220.227 2319.34 225.773C2319.32 229.485 2319.69 232.606 2320.45 235.136C2321.22 237.667 2322.32 239.576 2323.72 240.864C2325.13 242.136 2326.81 242.773 2328.75 242.773ZM2373.16 202.455V249H2364.73V210.659H2364.46L2353.57 217.614V209.886L2365.14 202.455H2373.16ZM2401.16 249.636C2398.13 249.636 2395.42 249.068 2393.03 247.932C2390.63 246.78 2388.73 245.205 2387.32 243.205C2385.93 241.205 2385.18 238.917 2385.09 236.341H2393.28C2393.43 238.25 2394.25 239.811 2395.75 241.023C2397.25 242.22 2399.06 242.818 2401.16 242.818C2402.81 242.818 2404.28 242.439 2405.57 241.682C2406.86 240.924 2407.87 239.871 2408.62 238.523C2409.36 237.174 2409.72 235.636 2409.71 233.909C2409.72 232.152 2409.35 230.591 2408.59 229.227C2407.84 227.864 2406.8 226.795 2405.48 226.023C2404.16 225.235 2402.65 224.841 2400.93 224.841C2399.54 224.826 2398.17 225.083 2396.82 225.614C2395.47 226.144 2394.4 226.841 2393.62 227.705L2386 226.455L2388.43 202.455H2415.43V209.5H2395.41L2394.07 221.841H2394.34C2395.21 220.826 2396.43 219.985 2398 219.318C2399.58 218.636 2401.31 218.295 2403.18 218.295C2406 218.295 2408.52 218.962 2410.73 220.295C2412.94 221.614 2414.68 223.432 2415.96 225.75C2417.23 228.068 2417.87 230.72 2417.87 233.705C2417.87 236.78 2417.15 239.523 2415.73 241.932C2414.32 244.326 2412.36 246.212 2409.84 247.591C2407.34 248.955 2404.45 249.636 2401.16 249.636Z" fill="white"/>
<path d="M1925.73 107V100.909L1941.89 85.0682C1943.43 83.5076 1944.72 82.1212 1945.75 80.9091C1946.78 79.697 1947.56 78.5227 1948.07 77.3864C1948.59 76.25 1948.84 75.0379 1948.84 73.75C1948.84 72.2803 1948.51 71.0227 1947.84 69.9773C1947.18 68.9167 1946.26 68.0985 1945.09 67.5227C1943.93 66.947 1942.6 66.6591 1941.12 66.6591C1939.59 66.6591 1938.25 66.9773 1937.09 67.6136C1935.94 68.2348 1935.05 69.1212 1934.41 70.2727C1933.79 71.4242 1933.48 72.7955 1933.48 74.3864H1925.46C1925.46 71.4318 1926.13 68.8636 1927.48 66.6818C1928.83 64.5 1930.68 62.8106 1933.05 61.6136C1935.43 60.4167 1938.15 59.8182 1941.23 59.8182C1944.35 59.8182 1947.09 60.4015 1949.46 61.5682C1951.82 62.7348 1953.65 64.3333 1954.96 66.3636C1956.28 68.3939 1956.93 70.7121 1956.93 73.3182C1956.93 75.0606 1956.6 76.7727 1955.93 78.4545C1955.27 80.1364 1954.09 82 1952.41 84.0455C1950.75 86.0909 1948.4 88.5682 1945.39 91.4773L1937.37 99.6364V99.9545H1957.64V107H1925.73ZM1982.68 107.886C1978.94 107.886 1975.73 106.939 1973.05 105.045C1970.38 103.136 1968.33 100.386 1966.89 96.7955C1965.46 93.1894 1964.75 88.8485 1964.75 83.7727C1964.77 78.697 1965.49 74.3788 1966.91 70.8182C1968.35 67.2424 1970.4 64.5152 1973.07 62.6364C1975.75 60.7576 1978.96 59.8182 1982.68 59.8182C1986.41 59.8182 1989.62 60.7576 1992.3 62.6364C1994.98 64.5152 1997.03 67.2424 1998.46 70.8182C1999.9 74.3939 2000.62 78.7121 2000.62 83.7727C2000.62 88.8636 1999.9 93.2121 1998.46 96.8182C1997.03 100.409 1994.98 103.152 1992.3 105.045C1989.63 106.939 1986.43 107.886 1982.68 107.886ZM1982.68 100.773C1985.59 100.773 1987.89 99.3409 1989.57 96.4773C1991.27 93.5985 1992.12 89.3636 1992.12 83.7727C1992.12 80.0758 1991.73 76.9697 1990.96 74.4545C1990.18 71.9394 1989.09 70.0455 1987.68 68.7727C1986.28 67.4848 1984.61 66.8409 1982.68 66.8409C1979.79 66.8409 1977.5 68.2803 1975.82 71.1591C1974.14 74.0227 1973.29 78.2273 1973.28 83.7727C1973.26 87.4848 1973.63 90.6061 1974.39 93.1364C1975.16 95.6667 1976.25 97.5758 1977.66 98.8636C1979.07 100.136 1980.75 100.773 1982.68 100.773ZM2027.1 60.4545V107H2018.67V68.6591H2018.39L2007.51 75.6136V67.8864L2019.08 60.4545H2027.1ZM2038.08 98.3636V91.6591L2057.83 60.4545H2063.42V70H2060.01L2046.71 91.0682V91.4318H2074.28V98.3636H2038.08ZM2060.28 107V96.3182L2060.37 93.3182V60.4545H2068.33V107H2060.28Z" fill="white"/>
</g>
<defs>
<clipPath id="clip0_175_908">
<rect width="3193" height="1904" fill="white"/>
</clipPath>
</defs>
</svg>
