<svg width="255" height="388" viewBox="0 0 255 388" fill="none" xmlns="http://www.w3.org/2000/svg">
<mask id="path-1-inside-1_243_275" fill="white">
<path fill-rule="evenodd" clip-rule="evenodd" d="M134.5 14C134.5 21.732 140.768 28 148.5 28H207.201L146.401 88.7999C131.164 77.6098 112.354 71 92 71C41.1898 71 0 112.19 0 163C0 209.224 34.0898 247.486 78.5 254.017V298H33C25.268 298 19 304.268 19 312C19 319.732 25.268 326 33 326H78.5V373.5C78.5 381.232 84.768 387.5 92.5 387.5C100.232 387.5 106.5 381.232 106.5 373.5V326H148.5C156.232 326 162.5 319.732 162.5 312C162.5 304.268 156.232 298 148.5 298H106.5V253.864C150.421 246.91 184 208.877 184 163C184 142.646 177.39 123.836 166.2 108.599L227 47.799V117.5C227 125.232 233.268 131.5 241 131.5C248.732 131.5 255 125.232 255 117.5V14C255 6.26801 248.732 0 241 0H148.5C140.768 0 134.5 6.26801 134.5 14ZM157 163C157 198.898 127.899 228 92 228C56.1015 228 27 198.898 27 163C27 127.101 56.1015 98 92 98C127.899 98 157 127.101 157 163ZM56 147C56 142.029 60.0294 138 65 138H119.5C124.471 138 128.5 142.029 128.5 147C128.5 151.971 124.471 156 119.5 156H65C60.0294 156 56 151.971 56 147ZM65 170.5C60.0294 170.5 56 174.529 56 179.5C56 184.471 60.0294 188.5 65 188.5H119.5C124.471 188.5 128.5 184.471 128.5 179.5C128.5 174.529 124.471 170.5 119.5 170.5H65Z"/>
</mask>
<path fill-rule="evenodd" clip-rule="evenodd" d="M134.5 14C134.5 21.732 140.768 28 148.5 28H207.201L146.401 88.7999C131.164 77.6098 112.354 71 92 71C41.1898 71 0 112.19 0 163C0 209.224 34.0898 247.486 78.5 254.017V298H33C25.268 298 19 304.268 19 312C19 319.732 25.268 326 33 326H78.5V373.5C78.5 381.232 84.768 387.5 92.5 387.5C100.232 387.5 106.5 381.232 106.5 373.5V326H148.5C156.232 326 162.5 319.732 162.5 312C162.5 304.268 156.232 298 148.5 298H106.5V253.864C150.421 246.91 184 208.877 184 163C184 142.646 177.39 123.836 166.2 108.599L227 47.799V117.5C227 125.232 233.268 131.5 241 131.5C248.732 131.5 255 125.232 255 117.5V14C255 6.26801 248.732 0 241 0H148.5C140.768 0 134.5 6.26801 134.5 14ZM157 163C157 198.898 127.899 228 92 228C56.1015 228 27 198.898 27 163C27 127.101 56.1015 98 92 98C127.899 98 157 127.101 157 163ZM56 147C56 142.029 60.0294 138 65 138H119.5C124.471 138 128.5 142.029 128.5 147C128.5 151.971 124.471 156 119.5 156H65C60.0294 156 56 151.971 56 147ZM65 170.5C60.0294 170.5 56 174.529 56 179.5C56 184.471 60.0294 188.5 65 188.5H119.5C124.471 188.5 128.5 184.471 128.5 179.5C128.5 174.529 124.471 170.5 119.5 170.5H65Z" fill="url(#paint0_linear_243_275)"/>
<path d="M207.201 28L210.029 30.8284L216.858 24H207.201V28ZM146.401 88.7999L144.033 92.0239L146.801 94.0566L149.23 91.6283L146.401 88.7999ZM78.5 254.017H82.5V250.562L79.0819 250.059L78.5 254.017ZM78.5 298V302H82.5V298H78.5ZM78.5 326H82.5V322H78.5V326ZM106.5 326V322H102.5V326H106.5ZM106.5 298H102.5V302H106.5V298ZM106.5 253.864L105.875 249.913L102.5 250.447V253.864H106.5ZM166.2 108.599L163.372 105.77L160.943 108.199L162.976 110.967L166.2 108.599ZM227 47.799H231V38.1421L224.172 44.9706L227 47.799ZM148.5 24C142.977 24 138.5 19.5228 138.5 14H130.5C130.5 23.9411 138.559 32 148.5 32V24ZM207.201 24H148.5V32H207.201V24ZM149.23 91.6283L210.029 30.8284L204.373 25.1716L143.573 85.9715L149.23 91.6283ZM92 75C111.474 75 129.46 81.3208 144.033 92.0239L148.769 85.5759C132.869 73.8987 113.234 67 92 67V75ZM4 163C4 114.399 43.3989 75 92 75V67C38.9807 67 -4 109.981 -4 163H4ZM79.0819 250.059C36.6063 243.813 4 207.211 4 163H-4C-4 211.237 31.5734 251.159 77.9181 257.974L79.0819 250.059ZM82.5 298V254.017H74.5V298H82.5ZM33 302H78.5V294H33V302ZM23 312C23 306.477 27.4772 302 33 302V294C23.0589 294 15 302.059 15 312H23ZM33 322C27.4772 322 23 317.523 23 312H15C15 321.941 23.0589 330 33 330V322ZM78.5 322H33V330H78.5V322ZM82.5 373.5V326H74.5V373.5H82.5ZM92.5 383.5C86.9772 383.5 82.5 379.023 82.5 373.5H74.5C74.5 383.441 82.5589 391.5 92.5 391.5V383.5ZM102.5 373.5C102.5 379.023 98.0228 383.5 92.5 383.5V391.5C102.441 391.5 110.5 383.441 110.5 373.5H102.5ZM102.5 326V373.5H110.5V326H102.5ZM148.5 322H106.5V330H148.5V322ZM158.5 312C158.5 317.523 154.023 322 148.5 322V330C158.441 330 166.5 321.941 166.5 312H158.5ZM148.5 302C154.023 302 158.5 306.477 158.5 312H166.5C166.5 302.059 158.441 294 148.5 294V302ZM106.5 302H148.5V294H106.5V302ZM102.5 253.864V298H110.5V253.864H102.5ZM180 163C180 206.878 147.882 243.262 105.875 249.913L107.125 257.815C152.959 250.558 188 210.875 188 163H180ZM162.976 110.967C173.679 125.54 180 143.526 180 163H188C188 141.766 181.101 122.131 169.424 106.231L162.976 110.967ZM224.172 44.9706L163.372 105.77L169.029 111.427L229.828 50.6274L224.172 44.9706ZM231 117.5V47.799H223V117.5H231ZM241 127.5C235.477 127.5 231 123.023 231 117.5H223C223 127.441 231.059 135.5 241 135.5V127.5ZM251 117.5C251 123.023 246.523 127.5 241 127.5V135.5C250.941 135.5 259 127.441 259 117.5H251ZM251 14V117.5H259V14H251ZM241 4C246.523 4 251 8.47715 251 14H259C259 4.05887 250.941 -4 241 -4V4ZM148.5 4H241V-4H148.5V4ZM138.5 14C138.5 8.47715 142.977 4 148.5 4V-4C138.559 -4 130.5 4.05888 130.5 14H138.5ZM92 232C130.108 232 161 201.108 161 163H153C153 196.689 125.689 224 92 224V232ZM23 163C23 201.108 53.8924 232 92 232V224C58.3106 224 31 196.689 31 163H23ZM92 94C53.8924 94 23 124.892 23 163H31C31 129.311 58.3106 102 92 102V94ZM161 163C161 124.892 130.108 94 92 94V102C125.689 102 153 129.311 153 163H161ZM65 134C57.8203 134 52 139.82 52 147H60C60 144.239 62.2386 142 65 142V134ZM119.5 134H65V142H119.5V134ZM132.5 147C132.5 139.82 126.68 134 119.5 134V142C122.261 142 124.5 144.239 124.5 147H132.5ZM119.5 160C126.68 160 132.5 154.18 132.5 147H124.5C124.5 149.761 122.261 152 119.5 152V160ZM65 160H119.5V152H65V160ZM52 147C52 154.18 57.8203 160 65 160V152C62.2386 152 60 149.761 60 147H52ZM60 179.5C60 176.739 62.2386 174.5 65 174.5V166.5C57.8203 166.5 52 172.32 52 179.5H60ZM65 184.5C62.2386 184.5 60 182.261 60 179.5H52C52 186.68 57.8203 192.5 65 192.5V184.5ZM119.5 184.5H65V192.5H119.5V184.5ZM124.5 179.5C124.5 182.261 122.261 184.5 119.5 184.5V192.5C126.68 192.5 132.5 186.68 132.5 179.5H124.5ZM119.5 174.5C122.261 174.5 124.5 176.739 124.5 179.5H132.5C132.5 172.32 126.68 166.5 119.5 166.5V174.5ZM65 174.5H119.5V166.5H65V174.5Z" fill="#ED677F" mask="url(#path-1-inside-1_243_275)"/>
<defs>
<linearGradient id="paint0_linear_243_275" x1="113.221" y1="419.647" x2="114.199" y2="6.547" gradientUnits="userSpaceOnUse">
<stop stop-color="#ED677F"/>
<stop offset="0.398136" stop-color="#F4A8B4"/>
<stop offset="1" stop-color="#FCE8F3"/>
</linearGradient>
</defs>
</svg>
